M48
;DRILL file {kicad (2014-08-12 BZR 5067)-product} date mar 26 ago 2014 17:36:41 ART
;FORMAT={-:-/ absolute / inch / decimal}
FMAT,2
INCH,TZ
T1C0.020
T2C0.022
T3C0.026
T4C0.032
T5C0.035
T6C0.035
T7C0.039
T8C0.039
T9C0.039
T10C0.040
T11C0.063
T12C0.079
T13C0.126
T14C0.128
T15C0.150
%
G90
G05
M72
T3
X3.7675Y-3.3249
X3.7675Y-3.4162
X3.7675Y-3.5044
X3.7675Y-3.5942
X3.7675Y-3.6839
X3.8675Y-3.28
X3.8675Y-3.3698
X3.8675Y-3.4595
X3.8675Y-3.5493
X3.8675Y-3.6391
X3.9675Y-3.3249
X3.9675Y-3.4146
X3.9675Y-3.5044
X3.9675Y-3.5942
X3.9675Y-3.6839
T4
X6.1537Y-3.5187
X6.2538Y-3.5187
X6.5237Y-3.7763
X6.5237Y-3.8762
X6.7538Y-3.7812
X6.7538Y-3.8813
T5
X4.2337Y-3.7912
X4.2337Y-3.8912
X4.2337Y-3.9912
X4.3275Y-3.28
X4.3375Y-3.58
X4.3675Y-3.4
X4.4238Y-3.1612
X4.4937Y-3.2312
X4.5737Y-3.3112
X4.6063Y-4.3377
X4.6638Y-3.4013
X4.6837Y-4.5112
X4.6895Y-4.341
X4.7295Y-4.076
X4.7437Y-4.7812
X4.7755Y-4.123
X4.8137Y-3.9213
X4.8155Y-4.41
X4.8315Y-4.512
X4.8907Y-3.5593
X4.9287Y-3.6153
X4.96Y-4.1475
X4.9725Y-4.7125
X4.9867Y-3.6462
X4.9937Y-3.8287
X5.0075Y-4.1125
X5.025Y-3.765
X5.0445Y-3.989
X5.0537Y-3.8312
X5.065Y-4.1275
X5.0777Y-3.4062
X5.1075Y-4.074
X5.1162Y-3.6387
X5.1965Y-4.483
X5.2047Y-3.1542
X5.2385Y-4.094
X5.2577Y-3.1953
X5.3148Y-3.2352
X5.3925Y-4.421
X5.4307Y-4.6643
X5.5275Y-4.34
X5.5275Y-4.43
X5.5275Y-4.52
X5.5365Y-4.175
X5.5587Y-5.1113
X5.6258Y-3.2363
X5.7988Y-3.5237
X5.8838Y-3.5237
X5.9337Y-3.7812
X5.9337Y-3.8712
X5.9337Y-3.9712
X5.9787Y-3.5237
X6.0488Y-3.6462
X6.2635Y-4.156
X6.2737Y-4.7313
X6.2915Y-4.353
X6.4238Y-4.7313
X6.4588Y-4.5213
X6.4638Y-4.3113
X6.5525Y-4.73
X6.5737Y-4.3113
X6.6137Y-3.4413
X6.6275Y-4.73
X6.6675Y-4.82
X6.6925Y-4.73
X6.7575Y-4.73
X6.9268Y-3.6633
X6.9407Y-3.7702
X7.2275Y-4.52
X7.2275Y-4.6
X7.3675Y-3.83
X7.4025Y-4.07
X7.4348Y-3.1972
X7.4775Y-4.1
X7.5008Y-3.2003
X7.5575Y-4.155
X7.6975Y-4.33
X7.7675Y-4.265
X7.7775Y-4.005
X7.7775Y-4.075
X7.7775Y-4.325
X7.8375Y-4.225
T6
X3.8896Y-4.2947
X3.8896Y-4.6928
X3.9494Y-4.1947
X3.9494Y-4.5928
X4.3321Y-4.3187
X4.3321Y-4.4188
X4.3321Y-4.5187
X4.3321Y-4.6187
X4.4089Y-4.2687
X4.4089Y-4.3687
X4.4089Y-4.5687
T7
X4.5258Y-3.0187
X4.5258Y-5.0187
X4.6258Y-3.0187
X4.6258Y-5.0187
X4.7258Y-3.0187
X4.7258Y-5.0187
X4.8258Y-3.0187
X4.8258Y-5.0187
X4.9258Y-3.0187
X4.9258Y-5.0187
X5.0258Y-3.0187
X5.0258Y-5.0187
X5.1258Y-3.0187
X5.1258Y-5.0187
X5.2258Y-3.0187
X5.2258Y-5.0187
X5.3258Y-3.0187
X5.3258Y-5.0187
X5.4258Y-3.0187
X5.4258Y-5.0187
X5.5258Y-3.0187
X5.5258Y-5.0187
X5.6258Y-3.0187
X5.6258Y-5.0187
X5.7258Y-3.0187
X5.7258Y-5.0187
X5.8258Y-3.0187
X5.8258Y-5.0187
X5.9258Y-3.0187
X5.9258Y-5.0187
X6.0258Y-3.0187
X6.0258Y-5.0187
X6.1258Y-3.0187
X6.1258Y-5.0187
X6.2258Y-3.0187
X6.2258Y-5.0187
X6.3258Y-3.0187
X6.3258Y-5.0187
X6.4258Y-3.0187
X6.4258Y-5.0187
X6.5258Y-3.0187
X6.5258Y-5.0187
X6.6258Y-3.0187
X6.6258Y-5.0187
X6.7258Y-3.0187
X6.7258Y-5.0187
X6.8258Y-3.0187
X6.8258Y-5.0187
T8
X7.4353Y-4.9112
X7.5337Y-4.9112
X7.6322Y-4.9112
T9
X4.4089Y-4.4688
X4.4258Y-2.9187
X4.4258Y-3.0187
X4.4258Y-4.9188
X4.4258Y-5.0187
X4.5258Y-2.9187
X4.5258Y-4.9188
X4.6258Y-2.9187
X4.6258Y-4.9188
X4.7258Y-2.9187
X4.7258Y-4.9188
X4.8258Y-2.9187
X4.8258Y-4.9188
X4.9258Y-2.9187
X4.9258Y-4.9188
X5.0258Y-2.9187
X5.0258Y-4.9188
X5.1258Y-2.9187
X5.1258Y-4.9188
X5.2258Y-2.9187
X5.2258Y-4.9188
X5.3258Y-2.9187
X5.3258Y-4.9188
X5.4258Y-2.9187
X5.4258Y-4.9188
X5.5258Y-2.9187
X5.5258Y-4.9188
X5.6258Y-2.9187
X5.6258Y-4.9188
X5.7258Y-2.9187
X5.7258Y-4.9188
X5.8258Y-2.9187
X5.8258Y-4.9188
X5.9258Y-2.9187
X5.9258Y-4.9188
X6.0258Y-2.9187
X6.0258Y-4.9188
X6.1258Y-2.9187
X6.1258Y-4.9188
X6.2258Y-2.9187
X6.2258Y-4.9188
X6.3258Y-2.9187
X6.3258Y-4.9188
X6.4258Y-2.9187
X6.4258Y-4.9188
X6.5258Y-2.9187
X6.5258Y-4.9188
X6.6258Y-2.9187
X6.6258Y-4.9188
X6.7258Y-2.9187
X6.7258Y-4.9188
X6.8258Y-2.9187
X6.8258Y-4.9188
X7.3851Y-3.3758
X7.3851Y-3.6317
X7.5623Y-3.3758
X7.5623Y-3.6317
X7.6707Y-3.1151
X7.6707Y-3.2923
X7.6707Y-3.4152
X7.6707Y-3.5923
X7.6707Y-3.7151
X7.6707Y-3.8923
X7.9268Y-3.1151
X7.9268Y-3.2923
X7.9268Y-3.4152
X7.9268Y-3.5923
X7.9268Y-3.7151
X7.9268Y-3.8923
T10
X5.6863Y-3.5063
X5.6863Y-3.6062
X5.6863Y-3.7062
X6.1937Y-4.2412
X6.1937Y-4.3412
X6.7138Y-4.0512
X6.7138Y-4.1513
T11
X4.2321Y-4.1376
X4.2321Y-4.7499
T12
X7.3448Y-4.6357
X7.7227Y-4.6357
T13
X3.8675Y-3.0028
X3.8675Y-3.9867
T14
X4.0825Y-4.6688
X4.086Y-4.2188
T15
X4.1825Y-2.91
X4.1875Y-4.9975
X7.8425Y-2.9225
X7.8475Y-4.985
T1
X7.036Y-5.056G85X7.036Y-5.0815
G05
X7.3115Y-5.056G85X7.3115Y-5.0815
G05
T2
X7.0694Y-4.9625G85X7.0812Y-4.9625
G05
X7.2663Y-4.9625G85X7.2781Y-4.9625
G05
T0
M30
