%FSLAX46Y46*%
G04 Gerber Fmt 4.6, Leading zero omitted, Abs format (unit mm)*
G04 Created by KiCad (PCBNEW (2014-08-12 BZR 5067)-product) date lun 25 ago 2014 16:59:38 ART*
%MOMM*%
G01*
G04 APERTURE LIST*
%ADD10C,0.150000*%
%ADD11O,1.500000X2.000000*%
%ADD12R,1.500000X2.000000*%
%ADD13R,2.032000X1.727200*%
%ADD14O,2.032000X1.727200*%
%ADD15R,2.032000X2.032000*%
%ADD16O,2.032000X2.032000*%
%ADD17R,1.198880X0.800100*%
%ADD18R,0.800100X1.198880*%
%ADD19C,1.998980*%
%ADD20R,0.400000X1.400000*%
%ADD21R,1.998980X1.998980*%
%ADD22C,3.750000*%
%ADD23C,1.500000*%
%ADD24C,2.800000*%
%ADD25R,0.914400X0.914400*%
%ADD26C,1.800000*%
%ADD27R,2.032000X3.657600*%
%ADD28R,2.032000X1.016000*%
%ADD29O,0.900000X1.900000*%
%ADD30O,1.250000X0.950000*%
%ADD31R,0.400000X1.350000*%
%ADD32R,1.501140X2.999740*%
%ADD33R,1.300480X1.498600*%
%ADD34R,1.498600X1.300480*%
%ADD35R,1.198880X1.198880*%
%ADD36R,0.800000X0.800000*%
%ADD37R,1.300480X0.299720*%
%ADD38R,0.299720X1.300480*%
%ADD39R,1.193800X1.092200*%
%ADD40C,5.001260*%
%ADD41C,1.198880*%
G04 APERTURE END LIST*
D10*
D11*
X173375250Y-76926250D03*
X170835250Y-76926250D03*
X168295250Y-76926250D03*
X165755250Y-76926250D03*
X163215250Y-76926250D03*
X160675250Y-76926250D03*
X158135250Y-76926250D03*
X155595250Y-76926250D03*
X153055250Y-76926250D03*
X150515250Y-76926250D03*
X147975250Y-76926250D03*
X145435250Y-76926250D03*
X142895250Y-76926250D03*
X140355250Y-76926250D03*
X137815250Y-76926250D03*
X135275250Y-76926250D03*
X132735250Y-76926250D03*
X130195250Y-76926250D03*
X127655250Y-76926250D03*
X125115250Y-76926250D03*
X122575250Y-76926250D03*
X120035250Y-76926250D03*
X117495250Y-76926250D03*
X114955250Y-76926250D03*
D12*
X112415250Y-76926250D03*
D11*
X112415250Y-73886250D03*
X114955250Y-73886250D03*
X117495250Y-73886250D03*
X120035250Y-73886250D03*
X122575250Y-73886250D03*
X125115250Y-73886250D03*
X127655250Y-73886250D03*
X130195250Y-73886250D03*
X132735250Y-73886250D03*
X135275250Y-73886250D03*
X137815250Y-73886250D03*
X140355250Y-73886250D03*
X142895250Y-73886250D03*
X145435250Y-73886250D03*
X147975250Y-73886250D03*
X150515250Y-73886250D03*
X153055250Y-73886250D03*
X155595250Y-73886250D03*
X158135250Y-73886250D03*
X160675250Y-73886250D03*
X163215250Y-73886250D03*
X165755250Y-73886250D03*
X168295250Y-73886250D03*
X170835250Y-73886250D03*
X173375250Y-73886250D03*
X173375250Y-124686250D03*
X170835250Y-124686250D03*
X168295250Y-124686250D03*
X165755250Y-124686250D03*
X163215250Y-124686250D03*
X160675250Y-124686250D03*
X158135250Y-124686250D03*
X155595250Y-124686250D03*
X153055250Y-124686250D03*
X150515250Y-124686250D03*
X147975250Y-124686250D03*
X145435250Y-124686250D03*
X142895250Y-124686250D03*
X140355250Y-124686250D03*
X137815250Y-124686250D03*
X135275250Y-124686250D03*
X132735250Y-124686250D03*
X130195250Y-124686250D03*
X127655250Y-124686250D03*
X125115250Y-124686250D03*
X122575250Y-124686250D03*
X120035250Y-124686250D03*
X117495250Y-124686250D03*
X114955250Y-124686250D03*
X112415250Y-124686250D03*
D12*
X112415250Y-127726250D03*
D11*
X114955250Y-127726250D03*
X117495250Y-127726250D03*
X120035250Y-127726250D03*
X122575250Y-127726250D03*
X125115250Y-127726250D03*
X127655250Y-127726250D03*
X130195250Y-127726250D03*
X132735250Y-127726250D03*
X135275250Y-127726250D03*
X137815250Y-127726250D03*
X140355250Y-127726250D03*
X142895250Y-127726250D03*
X145435250Y-127726250D03*
X147975250Y-127726250D03*
X150515250Y-127726250D03*
X153055250Y-127726250D03*
X155595250Y-127726250D03*
X158135250Y-127726250D03*
X160675250Y-127726250D03*
X163215250Y-127726250D03*
X165755250Y-127726250D03*
X168295250Y-127726250D03*
X170835250Y-127726250D03*
X173375250Y-127726250D03*
D13*
X144430750Y-89058750D03*
D14*
X144430750Y-91598750D03*
X144430750Y-94138750D03*
D15*
X170529250Y-105441750D03*
D16*
X170529250Y-102901750D03*
D15*
X157321250Y-107727750D03*
D16*
X157321250Y-110267750D03*
D17*
X178657250Y-121365010D03*
X178657250Y-119363490D03*
D18*
X178164490Y-100552250D03*
X180166010Y-100552250D03*
D17*
X141636750Y-91867990D03*
X141636750Y-93869510D03*
X141636750Y-90313510D03*
X141636750Y-88311990D03*
D18*
X180166010Y-95789750D03*
X178164490Y-95789750D03*
X178164490Y-93757750D03*
X180166010Y-93757750D03*
X178164490Y-91725750D03*
X180166010Y-91725750D03*
D17*
X128365250Y-79802990D03*
X128365250Y-81804510D03*
X126587250Y-79802990D03*
X126587250Y-81804510D03*
X124809250Y-79802990D03*
X124809250Y-81804510D03*
X130143250Y-79802990D03*
X130143250Y-81804510D03*
X191357250Y-129048510D03*
X191357250Y-127046990D03*
X177387250Y-72373490D03*
X177387250Y-74375010D03*
X179292250Y-72373490D03*
X179292250Y-74375010D03*
X181197250Y-72373490D03*
X181197250Y-74375010D03*
X183102250Y-72373490D03*
X183102250Y-74375010D03*
X185007250Y-72373490D03*
X185007250Y-74375010D03*
X186912250Y-72373490D03*
X186912250Y-74375010D03*
X188817250Y-72373490D03*
X188817250Y-74375010D03*
X190722250Y-72373490D03*
X190722250Y-74375010D03*
D18*
X169909490Y-115411250D03*
X171911010Y-115411250D03*
X169750740Y-117983000D03*
X171752260Y-117983000D03*
X165688010Y-107219750D03*
X163686490Y-107219750D03*
D17*
X167989250Y-103170990D03*
X167989250Y-105172510D03*
X160750250Y-116315490D03*
X160750250Y-118317010D03*
X158845250Y-116315490D03*
X158845250Y-118317010D03*
D18*
X172449490Y-110331250D03*
X174451010Y-110331250D03*
X172449490Y-112236250D03*
X174451010Y-112236250D03*
D17*
X161385250Y-108982510D03*
X161385250Y-106980990D03*
X154781250Y-109998510D03*
X154781250Y-107996990D03*
X142589250Y-119172990D03*
X142589250Y-121174510D03*
X140811250Y-119172990D03*
X140811250Y-121174510D03*
X148177250Y-119172990D03*
X148177250Y-121174510D03*
X146399250Y-119172990D03*
X146399250Y-121174510D03*
X144621250Y-119172990D03*
X144621250Y-121174510D03*
X153765250Y-119172990D03*
X153765250Y-121174510D03*
X151987250Y-119172990D03*
X151987250Y-121174510D03*
X150209250Y-119172990D03*
X150209250Y-121174510D03*
X108140500Y-90947240D03*
X108140500Y-92948760D03*
X108140500Y-86375240D03*
X108140500Y-88376760D03*
X108140500Y-83296760D03*
X108140500Y-81295240D03*
D18*
X136508490Y-106013250D03*
X138510010Y-106013250D03*
X128951990Y-94138750D03*
X130953510Y-94138750D03*
X131398010Y-121189750D03*
X129396490Y-121189750D03*
X116950490Y-121443750D03*
X118952010Y-121443750D03*
D17*
X127857250Y-115904010D03*
X127857250Y-113902490D03*
X129635250Y-115904010D03*
X129635250Y-113902490D03*
D18*
X134954010Y-107727750D03*
X132952490Y-107727750D03*
D17*
X114903250Y-113838990D03*
X114903250Y-115840510D03*
X114903250Y-107204510D03*
X114903250Y-105202990D03*
D18*
X110600490Y-103155750D03*
X112602010Y-103155750D03*
D17*
X136747250Y-109998510D03*
X136747250Y-107996990D03*
X114903250Y-119650510D03*
X114903250Y-117648990D03*
X114903250Y-111014510D03*
X114903250Y-109012990D03*
D18*
X132952490Y-110267750D03*
X134954010Y-110267750D03*
D17*
X191706500Y-109235240D03*
X191706500Y-111236760D03*
X187896500Y-109235240D03*
X187896500Y-111236760D03*
X189801500Y-109235240D03*
X189801500Y-111236760D03*
X193738500Y-109235240D03*
X193738500Y-111236760D03*
D18*
X195882260Y-105410000D03*
X193880740Y-105410000D03*
X195882260Y-101600000D03*
X193880740Y-101600000D03*
X195882260Y-103505000D03*
X193880740Y-103505000D03*
X195882260Y-107315000D03*
X193880740Y-107315000D03*
D19*
X187582810Y-85744050D03*
X192083690Y-92246450D03*
X192083690Y-85744050D03*
X187582810Y-92246450D03*
X194837050Y-98865690D03*
X201339450Y-94364810D03*
X194837050Y-94364810D03*
X201339450Y-98865690D03*
X194837050Y-91245690D03*
X201339450Y-86744810D03*
X194837050Y-86744810D03*
X201339450Y-91245690D03*
X194837050Y-83625690D03*
X201339450Y-79124810D03*
X194837050Y-79124810D03*
X201339450Y-83625690D03*
D20*
X164877750Y-118211250D03*
X165512750Y-118211250D03*
X166147750Y-118211250D03*
X166782750Y-118211250D03*
X162972750Y-112611250D03*
X162972750Y-118211250D03*
X163607750Y-118211250D03*
X164242750Y-118211250D03*
X167417750Y-112611250D03*
X166782750Y-112611250D03*
X166147750Y-112611250D03*
X165512750Y-112611250D03*
X164877750Y-112611250D03*
X164242750Y-112611250D03*
X167417750Y-118211250D03*
X163607750Y-112611250D03*
D21*
X171545250Y-98583750D03*
D19*
X171545250Y-96043750D03*
D21*
X165703250Y-98456750D03*
D19*
X165703250Y-95916750D03*
D21*
X158845250Y-89376250D03*
D19*
X156305250Y-89376250D03*
D22*
X103785250Y-107156250D03*
X103695250Y-118586250D03*
D23*
X110035250Y-117316250D03*
X111985250Y-116046250D03*
X110035250Y-114776250D03*
X111985250Y-113506250D03*
X110035250Y-112236250D03*
X111985250Y-110966250D03*
X110035250Y-109696250D03*
X111985250Y-108426250D03*
X98795250Y-119196250D03*
X100315250Y-116656250D03*
X98795250Y-109086250D03*
X100315250Y-106546250D03*
D24*
X107495250Y-105096250D03*
X107495250Y-120646250D03*
D25*
X165576250Y-105187750D03*
X163798250Y-105187750D03*
X164687250Y-103155750D03*
D26*
X188857250Y-124745750D03*
X191357250Y-124745750D03*
X193857250Y-124745750D03*
D24*
X196157250Y-117745750D03*
X186557250Y-117745750D03*
D27*
X154273250Y-96996250D03*
D28*
X160877250Y-96996250D03*
X160877250Y-94710250D03*
X160877250Y-99282250D03*
D29*
X185713250Y-128746250D03*
D30*
X184713250Y-126046250D03*
X179713250Y-126046250D03*
D31*
X182863250Y-126046250D03*
X183513250Y-126046250D03*
X181563250Y-126046250D03*
X182213250Y-126046250D03*
X180913250Y-126046250D03*
D29*
X178713250Y-128746250D03*
D32*
X134207250Y-120648730D03*
X134207250Y-116650770D03*
D33*
X178593750Y-123412250D03*
X176688750Y-123412250D03*
X181514750Y-121951750D03*
X183419750Y-121951750D03*
D34*
X176625250Y-126269750D03*
X176625250Y-128174750D03*
X160750250Y-114458750D03*
X160750250Y-112553750D03*
D33*
X181514750Y-119348250D03*
X183419750Y-119348250D03*
D34*
X161385250Y-103219250D03*
X161385250Y-105124250D03*
D33*
X159162750Y-103155750D03*
X157257750Y-103155750D03*
X130587750Y-96297750D03*
X132492750Y-96297750D03*
D34*
X125190250Y-94964250D03*
X125190250Y-96869250D03*
D33*
X125761750Y-112045750D03*
X123856750Y-112045750D03*
D34*
X123158250Y-94964250D03*
X123158250Y-96869250D03*
D33*
X133254750Y-112299750D03*
X135159750Y-112299750D03*
X136302750Y-103727250D03*
X138207750Y-103727250D03*
X116998750Y-116617750D03*
X118903750Y-116617750D03*
X116998750Y-107981750D03*
X118903750Y-107981750D03*
D34*
X125063250Y-116109750D03*
X125063250Y-114204750D03*
D33*
X116998750Y-112299750D03*
X118903750Y-112299750D03*
D34*
X190087250Y-99028250D03*
X190087250Y-97123250D03*
D35*
X177387250Y-78804770D03*
X177387250Y-76706730D03*
X179292250Y-78804770D03*
X179292250Y-76706730D03*
X181197250Y-78804770D03*
X181197250Y-76706730D03*
X183102250Y-78804770D03*
X183102250Y-76706730D03*
X185007250Y-78804770D03*
X185007250Y-76706730D03*
X186912250Y-78804770D03*
X186912250Y-76706730D03*
X188817250Y-78804770D03*
X188817250Y-76706730D03*
X190722250Y-78804770D03*
X190722250Y-76706730D03*
X178116230Y-102647750D03*
X180214270Y-102647750D03*
X179165250Y-110110270D03*
X179165250Y-108012230D03*
X179165250Y-112457230D03*
X179165250Y-114555270D03*
D36*
X182796750Y-99064750D03*
X184296750Y-99064750D03*
X184296750Y-96324750D03*
X182796750Y-96324750D03*
D37*
X123122690Y-102477570D03*
X123122690Y-102977950D03*
X123122690Y-103478330D03*
X123122690Y-103976170D03*
X123122690Y-104476550D03*
X123122690Y-100976430D03*
X123122690Y-101476810D03*
X123122690Y-101977190D03*
D38*
X124471430Y-107826810D03*
X124971810Y-107826810D03*
X125472190Y-107826810D03*
X125972570Y-107826810D03*
X126472950Y-107826810D03*
X126973330Y-107826810D03*
X127471170Y-107826810D03*
X127971550Y-107826810D03*
D37*
X131321810Y-106478070D03*
X131321810Y-105977690D03*
X131321810Y-105477310D03*
X131321810Y-104976930D03*
X131321810Y-104476550D03*
X131321810Y-103976170D03*
X131321810Y-103478330D03*
X131321810Y-102977950D03*
D38*
X129973070Y-99627690D03*
X129472690Y-99627690D03*
X128972310Y-99627690D03*
X128471930Y-99627690D03*
X127971550Y-99627690D03*
X127471170Y-99627690D03*
X126973330Y-99627690D03*
X126472950Y-99627690D03*
D37*
X123122690Y-104976930D03*
X123122690Y-105477310D03*
X123122690Y-105977690D03*
X123122690Y-106478070D03*
D38*
X128471930Y-107826810D03*
X128972310Y-107826810D03*
X129472690Y-107826810D03*
X129973070Y-107826810D03*
D37*
X131321810Y-102477570D03*
X131321810Y-101977190D03*
X131321810Y-101476810D03*
X131321810Y-100976430D03*
D38*
X125972570Y-99627690D03*
X125472190Y-99627690D03*
X124971810Y-99627690D03*
X124471430Y-99627690D03*
D39*
X136525000Y-99187000D03*
X133985000Y-99187000D03*
X133985000Y-101473000D03*
X136525000Y-101473000D03*
D40*
X98234500Y-76272000D03*
D41*
X100774500Y-89012000D03*
X100774500Y-86732000D03*
X100774500Y-84452000D03*
X100774500Y-91292000D03*
X100774500Y-93572000D03*
X98234500Y-90152000D03*
X98234500Y-87872000D03*
X98234500Y-85592000D03*
X98234500Y-83312000D03*
D40*
X98234500Y-101262000D03*
D41*
X98234500Y-92432000D03*
X95694500Y-84452000D03*
X95694500Y-86772000D03*
X95694500Y-89012000D03*
X95694500Y-91292000D03*
X95694500Y-93572000D03*
M02*
