%FSLAX45Y45*%
G04 Gerber Fmt 4.5, Leading zero omitted, Abs format (unit mm)*
G04 Created by KiCad (PCBNEW (2014-08-12 BZR 5067)-product) date mar 26 ago 2014 17:36:42 ART*
%MOMM*%
G01*
G04 APERTURE LIST*
%ADD10C,0.127000*%
%ADD11C,0.149860*%
%ADD12C,0.200000*%
%ADD13C,0.300000*%
G04 APERTURE END LIST*
D10*
D11*
X9242425Y-7013575D02*
X20354925Y-7013575D01*
X9242425Y-13084175D02*
X9242425Y-7013575D01*
X20354925Y-13084175D02*
X9242425Y-13084175D01*
X20354925Y-7013575D02*
X20354925Y-13084175D01*
D12*
X17846325Y-12849625D02*
X17896325Y-12899625D01*
X17896325Y-12849625D02*
X17846325Y-12899625D01*
X17856325Y-12842125D02*
X17856325Y-12907125D01*
X17886325Y-12842125D02*
X17886325Y-12907125D01*
X17856325Y-12907125D02*
G75*
G03X17886325Y-12907125I15000J0D01*
G74*
G01*
X17886325Y-12842125D02*
G75*
G03X17856325Y-12842125I-15000J0D01*
G74*
G01*
X18546325Y-12849625D02*
X18596325Y-12899625D01*
X18596325Y-12849625D02*
X18546325Y-12899625D01*
X18556325Y-12842125D02*
X18556325Y-12907125D01*
X18586325Y-12842125D02*
X18586325Y-12907125D01*
X18556325Y-12907125D02*
G75*
G03X18586325Y-12907125I15000J0D01*
G74*
G01*
X18586325Y-12842125D02*
G75*
G03X18556325Y-12842125I-15000J0D01*
G74*
G01*
X17998825Y-12604625D02*
G75*
G03X17998825Y-12604625I-27500J0D01*
G74*
G01*
X17956325Y-12622125D02*
X17986325Y-12622125D01*
X17956325Y-12587125D02*
X17986325Y-12587125D01*
X17986325Y-12622125D02*
G75*
G03X17986325Y-12587125I0J17500D01*
G74*
G01*
X17956325Y-12587125D02*
G75*
G03X17956325Y-12622125I0J-17500D01*
G74*
G01*
X18498825Y-12604625D02*
G75*
G03X18498825Y-12604625I-27500J0D01*
G74*
G01*
X18456325Y-12622125D02*
X18486325Y-12622125D01*
X18456325Y-12587125D02*
X18486325Y-12587125D01*
X18486325Y-12622125D02*
G75*
G03X18486325Y-12587125I0J17500D01*
G74*
G01*
X18456325Y-12587125D02*
G75*
G03X18456325Y-12622125I0J-17500D01*
G74*
G01*
X9569450Y-8412688D02*
X9569450Y-8477712D01*
X9536938Y-8445200D02*
X9601962Y-8445200D01*
X9569450Y-8644688D02*
X9569450Y-8709712D01*
X9536938Y-8677200D02*
X9601962Y-8677200D01*
X9569450Y-8868688D02*
X9569450Y-8933712D01*
X9536938Y-8901200D02*
X9601962Y-8901200D01*
X9569450Y-9096688D02*
X9569450Y-9161712D01*
X9536938Y-9129200D02*
X9601962Y-9129200D01*
X9569450Y-9324688D02*
X9569450Y-9389712D01*
X9536938Y-9357200D02*
X9601962Y-9357200D01*
X9823450Y-8298688D02*
X9823450Y-8363712D01*
X9790938Y-8331200D02*
X9855962Y-8331200D01*
X9823450Y-8526688D02*
X9823450Y-8591712D01*
X9790938Y-8559200D02*
X9855962Y-8559200D01*
X9823450Y-8754688D02*
X9823450Y-8819712D01*
X9790938Y-8787200D02*
X9855962Y-8787200D01*
X9823450Y-8982688D02*
X9823450Y-9047712D01*
X9790938Y-9015200D02*
X9855962Y-9015200D01*
X9823450Y-9210688D02*
X9823450Y-9275712D01*
X9790938Y-9243200D02*
X9855962Y-9243200D01*
X10077450Y-8412688D02*
X10077450Y-8477712D01*
X10044938Y-8445200D02*
X10109962Y-8445200D01*
X10077450Y-8640688D02*
X10077450Y-8705712D01*
X10044938Y-8673200D02*
X10109962Y-8673200D01*
X10077450Y-8868688D02*
X10077450Y-8933712D01*
X10044938Y-8901200D02*
X10109962Y-8901200D01*
X10077450Y-9096688D02*
X10077450Y-9161712D01*
X10044938Y-9129200D02*
X10109962Y-9129200D01*
X10077450Y-9324688D02*
X10077450Y-9389712D01*
X10044938Y-9357200D02*
X10109962Y-9357200D01*
X9834525Y-10863625D02*
X9924525Y-10953625D01*
X9924525Y-10863625D02*
X9834525Y-10953625D01*
X9924525Y-10908625D02*
G75*
G03X9924525Y-10908625I-45000J0D01*
G74*
G01*
X9834525Y-11874625D02*
X9924525Y-11964625D01*
X9924525Y-11874625D02*
X9834525Y-11964625D01*
X9924525Y-11919625D02*
G75*
G03X9924525Y-11919625I-45000J0D01*
G74*
G01*
X9986525Y-10609625D02*
X10076525Y-10699625D01*
X10076525Y-10609625D02*
X9986525Y-10699625D01*
X10076525Y-10654625D02*
G75*
G03X10076525Y-10654625I-45000J0D01*
G74*
G01*
X9986525Y-11620625D02*
X10076525Y-11710625D01*
X10076525Y-11620625D02*
X9986525Y-11710625D01*
X10076525Y-11665625D02*
G75*
G03X10076525Y-11665625I-45000J0D01*
G74*
G01*
X10958525Y-10924625D02*
X11048525Y-11014625D01*
X11048525Y-10924625D02*
X10958525Y-11014625D01*
X11048525Y-10969625D02*
G75*
G03X11048525Y-10969625I-45000J0D01*
G74*
G01*
X10958525Y-11178625D02*
X11048525Y-11268625D01*
X11048525Y-11178625D02*
X10958525Y-11268625D01*
X11048525Y-11223625D02*
G75*
G03X11048525Y-11223625I-45000J0D01*
G74*
G01*
X10958525Y-11432625D02*
X11048525Y-11522625D01*
X11048525Y-11432625D02*
X10958525Y-11522625D01*
X11048525Y-11477625D02*
G75*
G03X11048525Y-11477625I-45000J0D01*
G74*
G01*
X10958525Y-11686625D02*
X11048525Y-11776625D01*
X11048525Y-11686625D02*
X10958525Y-11776625D01*
X11048525Y-11731625D02*
G75*
G03X11048525Y-11731625I-45000J0D01*
G74*
G01*
X11153525Y-10797625D02*
X11243525Y-10887625D01*
X11243525Y-10797625D02*
X11153525Y-10887625D01*
X11243525Y-10842625D02*
G75*
G03X11243525Y-10842625I-45000J0D01*
G74*
G01*
X11153525Y-11051625D02*
X11243525Y-11141625D01*
X11243525Y-11051625D02*
X11153525Y-11141625D01*
X11243525Y-11096625D02*
G75*
G03X11243525Y-11096625I-45000J0D01*
G74*
G01*
X11153525Y-11559625D02*
X11243525Y-11649625D01*
X11243525Y-11559625D02*
X11153525Y-11649625D01*
X11243525Y-11604625D02*
G75*
G03X11243525Y-11604625I-45000J0D01*
G74*
G01*
X11445614Y-7617714D02*
X11545436Y-7717536D01*
X11545436Y-7617714D02*
X11445614Y-7717536D01*
X11495525Y-7617714D02*
X11495525Y-7717536D01*
X11445614Y-7667625D02*
X11545436Y-7667625D01*
X11445614Y-12697714D02*
X11545436Y-12797536D01*
X11545436Y-12697714D02*
X11445614Y-12797536D01*
X11495525Y-12697714D02*
X11495525Y-12797536D01*
X11445614Y-12747625D02*
X11545436Y-12747625D01*
X11699614Y-7617714D02*
X11799436Y-7717536D01*
X11799436Y-7617714D02*
X11699614Y-7717536D01*
X11749525Y-7617714D02*
X11749525Y-7717536D01*
X11699614Y-7667625D02*
X11799436Y-7667625D01*
X11699614Y-12697714D02*
X11799436Y-12797536D01*
X11799436Y-12697714D02*
X11699614Y-12797536D01*
X11749525Y-12697714D02*
X11749525Y-12797536D01*
X11699614Y-12747625D02*
X11799436Y-12747625D01*
X11953614Y-7617714D02*
X12053436Y-7717536D01*
X12053436Y-7617714D02*
X11953614Y-7717536D01*
X12003525Y-7617714D02*
X12003525Y-7717536D01*
X11953614Y-7667625D02*
X12053436Y-7667625D01*
X11953614Y-12697714D02*
X12053436Y-12797536D01*
X12053436Y-12697714D02*
X11953614Y-12797536D01*
X12003525Y-12697714D02*
X12003525Y-12797536D01*
X11953614Y-12747625D02*
X12053436Y-12747625D01*
X12207614Y-7617714D02*
X12307436Y-7717536D01*
X12307436Y-7617714D02*
X12207614Y-7717536D01*
X12257525Y-7617714D02*
X12257525Y-7717536D01*
X12207614Y-7667625D02*
X12307436Y-7667625D01*
X12207614Y-12697714D02*
X12307436Y-12797536D01*
X12307436Y-12697714D02*
X12207614Y-12797536D01*
X12257525Y-12697714D02*
X12257525Y-12797536D01*
X12207614Y-12747625D02*
X12307436Y-12747625D01*
X12461614Y-7617714D02*
X12561436Y-7717536D01*
X12561436Y-7617714D02*
X12461614Y-7717536D01*
X12511525Y-7617714D02*
X12511525Y-7717536D01*
X12461614Y-7667625D02*
X12561436Y-7667625D01*
X12461614Y-12697714D02*
X12561436Y-12797536D01*
X12561436Y-12697714D02*
X12461614Y-12797536D01*
X12511525Y-12697714D02*
X12511525Y-12797536D01*
X12461614Y-12747625D02*
X12561436Y-12747625D01*
X12715614Y-7617714D02*
X12815436Y-7717536D01*
X12815436Y-7617714D02*
X12715614Y-7717536D01*
X12765525Y-7617714D02*
X12765525Y-7717536D01*
X12715614Y-7667625D02*
X12815436Y-7667625D01*
X12715614Y-12697714D02*
X12815436Y-12797536D01*
X12815436Y-12697714D02*
X12715614Y-12797536D01*
X12765525Y-12697714D02*
X12765525Y-12797536D01*
X12715614Y-12747625D02*
X12815436Y-12747625D01*
X12969614Y-7617714D02*
X13069436Y-7717536D01*
X13069436Y-7617714D02*
X12969614Y-7717536D01*
X13019525Y-7617714D02*
X13019525Y-7717536D01*
X12969614Y-7667625D02*
X13069436Y-7667625D01*
X12969614Y-12697714D02*
X13069436Y-12797536D01*
X13069436Y-12697714D02*
X12969614Y-12797536D01*
X13019525Y-12697714D02*
X13019525Y-12797536D01*
X12969614Y-12747625D02*
X13069436Y-12747625D01*
X13223614Y-7617714D02*
X13323436Y-7717536D01*
X13323436Y-7617714D02*
X13223614Y-7717536D01*
X13273525Y-7617714D02*
X13273525Y-7717536D01*
X13223614Y-7667625D02*
X13323436Y-7667625D01*
X13223614Y-12697714D02*
X13323436Y-12797536D01*
X13323436Y-12697714D02*
X13223614Y-12797536D01*
X13273525Y-12697714D02*
X13273525Y-12797536D01*
X13223614Y-12747625D02*
X13323436Y-12747625D01*
X13477614Y-7617714D02*
X13577436Y-7717536D01*
X13577436Y-7617714D02*
X13477614Y-7717536D01*
X13527525Y-7617714D02*
X13527525Y-7717536D01*
X13477614Y-7667625D02*
X13577436Y-7667625D01*
X13477614Y-12697714D02*
X13577436Y-12797536D01*
X13577436Y-12697714D02*
X13477614Y-12797536D01*
X13527525Y-12697714D02*
X13527525Y-12797536D01*
X13477614Y-12747625D02*
X13577436Y-12747625D01*
X13731614Y-7617714D02*
X13831436Y-7717536D01*
X13831436Y-7617714D02*
X13731614Y-7717536D01*
X13781525Y-7617714D02*
X13781525Y-7717536D01*
X13731614Y-7667625D02*
X13831436Y-7667625D01*
X13731614Y-12697714D02*
X13831436Y-12797536D01*
X13831436Y-12697714D02*
X13731614Y-12797536D01*
X13781525Y-12697714D02*
X13781525Y-12797536D01*
X13731614Y-12747625D02*
X13831436Y-12747625D01*
X13985614Y-7617714D02*
X14085436Y-7717536D01*
X14085436Y-7617714D02*
X13985614Y-7717536D01*
X14035525Y-7617714D02*
X14035525Y-7717536D01*
X13985614Y-7667625D02*
X14085436Y-7667625D01*
X13985614Y-12697714D02*
X14085436Y-12797536D01*
X14085436Y-12697714D02*
X13985614Y-12797536D01*
X14035525Y-12697714D02*
X14035525Y-12797536D01*
X13985614Y-12747625D02*
X14085436Y-12747625D01*
X14239614Y-7617714D02*
X14339436Y-7717536D01*
X14339436Y-7617714D02*
X14239614Y-7717536D01*
X14289525Y-7617714D02*
X14289525Y-7717536D01*
X14239614Y-7667625D02*
X14339436Y-7667625D01*
X14239614Y-12697714D02*
X14339436Y-12797536D01*
X14339436Y-12697714D02*
X14239614Y-12797536D01*
X14289525Y-12697714D02*
X14289525Y-12797536D01*
X14239614Y-12747625D02*
X14339436Y-12747625D01*
X14493614Y-7617714D02*
X14593436Y-7717536D01*
X14593436Y-7617714D02*
X14493614Y-7717536D01*
X14543525Y-7617714D02*
X14543525Y-7717536D01*
X14493614Y-7667625D02*
X14593436Y-7667625D01*
X14493614Y-12697714D02*
X14593436Y-12797536D01*
X14593436Y-12697714D02*
X14493614Y-12797536D01*
X14543525Y-12697714D02*
X14543525Y-12797536D01*
X14493614Y-12747625D02*
X14593436Y-12747625D01*
X14747614Y-7617714D02*
X14847436Y-7717536D01*
X14847436Y-7617714D02*
X14747614Y-7717536D01*
X14797525Y-7617714D02*
X14797525Y-7717536D01*
X14747614Y-7667625D02*
X14847436Y-7667625D01*
X14747614Y-12697714D02*
X14847436Y-12797536D01*
X14847436Y-12697714D02*
X14747614Y-12797536D01*
X14797525Y-12697714D02*
X14797525Y-12797536D01*
X14747614Y-12747625D02*
X14847436Y-12747625D01*
X15001614Y-7617714D02*
X15101436Y-7717536D01*
X15101436Y-7617714D02*
X15001614Y-7717536D01*
X15051525Y-7617714D02*
X15051525Y-7717536D01*
X15001614Y-7667625D02*
X15101436Y-7667625D01*
X15001614Y-12697714D02*
X15101436Y-12797536D01*
X15101436Y-12697714D02*
X15001614Y-12797536D01*
X15051525Y-12697714D02*
X15051525Y-12797536D01*
X15001614Y-12747625D02*
X15101436Y-12747625D01*
X15255614Y-7617714D02*
X15355436Y-7717536D01*
X15355436Y-7617714D02*
X15255614Y-7717536D01*
X15305525Y-7617714D02*
X15305525Y-7717536D01*
X15255614Y-7667625D02*
X15355436Y-7667625D01*
X15255614Y-12697714D02*
X15355436Y-12797536D01*
X15355436Y-12697714D02*
X15255614Y-12797536D01*
X15305525Y-12697714D02*
X15305525Y-12797536D01*
X15255614Y-12747625D02*
X15355436Y-12747625D01*
X15509614Y-7617714D02*
X15609436Y-7717536D01*
X15609436Y-7617714D02*
X15509614Y-7717536D01*
X15559525Y-7617714D02*
X15559525Y-7717536D01*
X15509614Y-7667625D02*
X15609436Y-7667625D01*
X15509614Y-12697714D02*
X15609436Y-12797536D01*
X15609436Y-12697714D02*
X15509614Y-12797536D01*
X15559525Y-12697714D02*
X15559525Y-12797536D01*
X15509614Y-12747625D02*
X15609436Y-12747625D01*
X15763614Y-7617714D02*
X15863436Y-7717536D01*
X15863436Y-7617714D02*
X15763614Y-7717536D01*
X15813525Y-7617714D02*
X15813525Y-7717536D01*
X15763614Y-7667625D02*
X15863436Y-7667625D01*
X15763614Y-12697714D02*
X15863436Y-12797536D01*
X15863436Y-12697714D02*
X15763614Y-12797536D01*
X15813525Y-12697714D02*
X15813525Y-12797536D01*
X15763614Y-12747625D02*
X15863436Y-12747625D01*
X16017614Y-7617714D02*
X16117436Y-7717536D01*
X16117436Y-7617714D02*
X16017614Y-7717536D01*
X16067525Y-7617714D02*
X16067525Y-7717536D01*
X16017614Y-7667625D02*
X16117436Y-7667625D01*
X16017614Y-12697714D02*
X16117436Y-12797536D01*
X16117436Y-12697714D02*
X16017614Y-12797536D01*
X16067525Y-12697714D02*
X16067525Y-12797536D01*
X16017614Y-12747625D02*
X16117436Y-12747625D01*
X16271614Y-7617714D02*
X16371436Y-7717536D01*
X16371436Y-7617714D02*
X16271614Y-7717536D01*
X16321525Y-7617714D02*
X16321525Y-7717536D01*
X16271614Y-7667625D02*
X16371436Y-7667625D01*
X16271614Y-12697714D02*
X16371436Y-12797536D01*
X16371436Y-12697714D02*
X16271614Y-12797536D01*
X16321525Y-12697714D02*
X16321525Y-12797536D01*
X16271614Y-12747625D02*
X16371436Y-12747625D01*
X16525614Y-7617714D02*
X16625436Y-7717536D01*
X16625436Y-7617714D02*
X16525614Y-7717536D01*
X16575525Y-7617714D02*
X16575525Y-7717536D01*
X16525614Y-7667625D02*
X16625436Y-7667625D01*
X16525614Y-12697714D02*
X16625436Y-12797536D01*
X16625436Y-12697714D02*
X16525614Y-12797536D01*
X16575525Y-12697714D02*
X16575525Y-12797536D01*
X16525614Y-12747625D02*
X16625436Y-12747625D01*
X16779614Y-7617714D02*
X16879436Y-7717536D01*
X16879436Y-7617714D02*
X16779614Y-7717536D01*
X16829525Y-7617714D02*
X16829525Y-7717536D01*
X16779614Y-7667625D02*
X16879436Y-7667625D01*
X16779614Y-12697714D02*
X16879436Y-12797536D01*
X16879436Y-12697714D02*
X16779614Y-12797536D01*
X16829525Y-12697714D02*
X16829525Y-12797536D01*
X16779614Y-12747625D02*
X16879436Y-12747625D01*
X17033614Y-7617714D02*
X17133436Y-7717536D01*
X17133436Y-7617714D02*
X17033614Y-7717536D01*
X17083525Y-7617714D02*
X17083525Y-7717536D01*
X17033614Y-7667625D02*
X17133436Y-7667625D01*
X17033614Y-12697714D02*
X17133436Y-12797536D01*
X17133436Y-12697714D02*
X17033614Y-12797536D01*
X17083525Y-12697714D02*
X17083525Y-12797536D01*
X17033614Y-12747625D02*
X17133436Y-12747625D01*
X17287614Y-7617714D02*
X17387436Y-7717536D01*
X17387436Y-7617714D02*
X17287614Y-7717536D01*
X17337525Y-7617714D02*
X17337525Y-7717536D01*
X17287614Y-7667625D02*
X17387436Y-7667625D01*
X17287614Y-12697714D02*
X17387436Y-12797536D01*
X17387436Y-12697714D02*
X17287614Y-12797536D01*
X17337525Y-12697714D02*
X17337525Y-12797536D01*
X17287614Y-12747625D02*
X17387436Y-12747625D01*
X18835725Y-12424575D02*
X18935725Y-12524575D01*
X18935725Y-12424575D02*
X18835725Y-12524575D01*
X19085725Y-12424575D02*
X19185725Y-12524575D01*
X19185725Y-12424575D02*
X19085725Y-12524575D01*
X19335725Y-12424575D02*
X19435725Y-12524575D01*
X19435725Y-12424575D02*
X19335725Y-12524575D01*
X11148487Y-11300587D02*
X11248563Y-11400663D01*
X11248563Y-11300587D02*
X11148487Y-11400663D01*
X11191487Y-7363587D02*
X11291563Y-7463663D01*
X11291563Y-7363587D02*
X11191487Y-7463663D01*
X11191487Y-7617587D02*
X11291563Y-7717663D01*
X11291563Y-7617587D02*
X11191487Y-7717663D01*
X11191487Y-12443587D02*
X11291563Y-12543663D01*
X11291563Y-12443587D02*
X11191487Y-12543663D01*
X11191487Y-12697587D02*
X11291563Y-12797663D01*
X11291563Y-12697587D02*
X11191487Y-12797663D01*
X11445487Y-7363587D02*
X11545563Y-7463663D01*
X11545563Y-7363587D02*
X11445487Y-7463663D01*
X11445487Y-12443587D02*
X11545563Y-12543663D01*
X11545563Y-12443587D02*
X11445487Y-12543663D01*
X11699487Y-7363587D02*
X11799563Y-7463663D01*
X11799563Y-7363587D02*
X11699487Y-7463663D01*
X11699487Y-12443587D02*
X11799563Y-12543663D01*
X11799563Y-12443587D02*
X11699487Y-12543663D01*
X11953487Y-7363587D02*
X12053563Y-7463663D01*
X12053563Y-7363587D02*
X11953487Y-7463663D01*
X11953487Y-12443587D02*
X12053563Y-12543663D01*
X12053563Y-12443587D02*
X11953487Y-12543663D01*
X12207487Y-7363587D02*
X12307563Y-7463663D01*
X12307563Y-7363587D02*
X12207487Y-7463663D01*
X12207487Y-12443587D02*
X12307563Y-12543663D01*
X12307563Y-12443587D02*
X12207487Y-12543663D01*
X12461487Y-7363587D02*
X12561563Y-7463663D01*
X12561563Y-7363587D02*
X12461487Y-7463663D01*
X12461487Y-12443587D02*
X12561563Y-12543663D01*
X12561563Y-12443587D02*
X12461487Y-12543663D01*
X12715487Y-7363587D02*
X12815563Y-7463663D01*
X12815563Y-7363587D02*
X12715487Y-7463663D01*
X12715487Y-12443587D02*
X12815563Y-12543663D01*
X12815563Y-12443587D02*
X12715487Y-12543663D01*
X12969487Y-7363587D02*
X13069563Y-7463663D01*
X13069563Y-7363587D02*
X12969487Y-7463663D01*
X12969487Y-12443587D02*
X13069563Y-12543663D01*
X13069563Y-12443587D02*
X12969487Y-12543663D01*
X13223487Y-7363587D02*
X13323563Y-7463663D01*
X13323563Y-7363587D02*
X13223487Y-7463663D01*
X13223487Y-12443587D02*
X13323563Y-12543663D01*
X13323563Y-12443587D02*
X13223487Y-12543663D01*
X13477487Y-7363587D02*
X13577563Y-7463663D01*
X13577563Y-7363587D02*
X13477487Y-7463663D01*
X13477487Y-12443587D02*
X13577563Y-12543663D01*
X13577563Y-12443587D02*
X13477487Y-12543663D01*
X13731487Y-7363587D02*
X13831563Y-7463663D01*
X13831563Y-7363587D02*
X13731487Y-7463663D01*
X13731487Y-12443587D02*
X13831563Y-12543663D01*
X13831563Y-12443587D02*
X13731487Y-12543663D01*
X13985487Y-7363587D02*
X14085563Y-7463663D01*
X14085563Y-7363587D02*
X13985487Y-7463663D01*
X13985487Y-12443587D02*
X14085563Y-12543663D01*
X14085563Y-12443587D02*
X13985487Y-12543663D01*
X14239487Y-7363587D02*
X14339563Y-7463663D01*
X14339563Y-7363587D02*
X14239487Y-7463663D01*
X14239487Y-12443587D02*
X14339563Y-12543663D01*
X14339563Y-12443587D02*
X14239487Y-12543663D01*
X14493487Y-7363587D02*
X14593563Y-7463663D01*
X14593563Y-7363587D02*
X14493487Y-7463663D01*
X14493487Y-12443587D02*
X14593563Y-12543663D01*
X14593563Y-12443587D02*
X14493487Y-12543663D01*
X14747487Y-7363587D02*
X14847563Y-7463663D01*
X14847563Y-7363587D02*
X14747487Y-7463663D01*
X14747487Y-12443587D02*
X14847563Y-12543663D01*
X14847563Y-12443587D02*
X14747487Y-12543663D01*
X15001487Y-7363587D02*
X15101563Y-7463663D01*
X15101563Y-7363587D02*
X15001487Y-7463663D01*
X15001487Y-12443587D02*
X15101563Y-12543663D01*
X15101563Y-12443587D02*
X15001487Y-12543663D01*
X15255487Y-7363587D02*
X15355563Y-7463663D01*
X15355563Y-7363587D02*
X15255487Y-7463663D01*
X15255487Y-12443587D02*
X15355563Y-12543663D01*
X15355563Y-12443587D02*
X15255487Y-12543663D01*
X15509487Y-7363587D02*
X15609563Y-7463663D01*
X15609563Y-7363587D02*
X15509487Y-7463663D01*
X15509487Y-12443587D02*
X15609563Y-12543663D01*
X15609563Y-12443587D02*
X15509487Y-12543663D01*
X15763487Y-7363587D02*
X15863563Y-7463663D01*
X15863563Y-7363587D02*
X15763487Y-7463663D01*
X15763487Y-12443587D02*
X15863563Y-12543663D01*
X15863563Y-12443587D02*
X15763487Y-12543663D01*
X16017487Y-7363587D02*
X16117563Y-7463663D01*
X16117563Y-7363587D02*
X16017487Y-7463663D01*
X16017487Y-12443587D02*
X16117563Y-12543663D01*
X16117563Y-12443587D02*
X16017487Y-12543663D01*
X16271487Y-7363587D02*
X16371563Y-7463663D01*
X16371563Y-7363587D02*
X16271487Y-7463663D01*
X16271487Y-12443587D02*
X16371563Y-12543663D01*
X16371563Y-12443587D02*
X16271487Y-12543663D01*
X16525487Y-7363587D02*
X16625563Y-7463663D01*
X16625563Y-7363587D02*
X16525487Y-7463663D01*
X16525487Y-12443587D02*
X16625563Y-12543663D01*
X16625563Y-12443587D02*
X16525487Y-12543663D01*
X16779487Y-7363587D02*
X16879563Y-7463663D01*
X16879563Y-7363587D02*
X16779487Y-7463663D01*
X16779487Y-12443587D02*
X16879563Y-12543663D01*
X16879563Y-12443587D02*
X16779487Y-12543663D01*
X17033487Y-7363587D02*
X17133563Y-7463663D01*
X17133563Y-7363587D02*
X17033487Y-7463663D01*
X17033487Y-12443587D02*
X17133563Y-12543663D01*
X17133563Y-12443587D02*
X17033487Y-12543663D01*
X17287487Y-7363587D02*
X17387563Y-7463663D01*
X17387563Y-7363587D02*
X17287487Y-7463663D01*
X17287487Y-12443587D02*
X17387563Y-12543663D01*
X17387563Y-12443587D02*
X17287487Y-12543663D01*
X18708243Y-8524367D02*
X18808319Y-8624443D01*
X18808319Y-8524367D02*
X18708243Y-8624443D01*
X18708243Y-9174607D02*
X18808319Y-9274683D01*
X18808319Y-9174607D02*
X18708243Y-9274683D01*
X19158331Y-8524367D02*
X19258407Y-8624443D01*
X19258407Y-8524367D02*
X19158331Y-8624443D01*
X19158331Y-9174607D02*
X19258407Y-9274683D01*
X19258407Y-9174607D02*
X19158331Y-9274683D01*
X19433667Y-7862443D02*
X19533743Y-7962519D01*
X19533743Y-7862443D02*
X19433667Y-7962519D01*
X19433667Y-8312531D02*
X19533743Y-8412607D01*
X19533743Y-8312531D02*
X19433667Y-8412607D01*
X19433667Y-8624443D02*
X19533743Y-8724519D01*
X19533743Y-8624443D02*
X19433667Y-8724519D01*
X19433667Y-9074531D02*
X19533743Y-9174607D01*
X19533743Y-9074531D02*
X19433667Y-9174607D01*
X19433667Y-9386443D02*
X19533743Y-9486519D01*
X19533743Y-9386443D02*
X19433667Y-9486519D01*
X19433667Y-9836531D02*
X19533743Y-9936607D01*
X19533743Y-9836531D02*
X19433667Y-9936607D01*
X20083907Y-7862443D02*
X20183983Y-7962519D01*
X20183983Y-7862443D02*
X20083907Y-7962519D01*
X20083907Y-8312531D02*
X20183983Y-8412607D01*
X20183983Y-8312531D02*
X20083907Y-8412607D01*
X20083907Y-8624443D02*
X20183983Y-8724519D01*
X20183983Y-8624443D02*
X20083907Y-8724519D01*
X20083907Y-9074531D02*
X20183983Y-9174607D01*
X20183983Y-9074531D02*
X20083907Y-9174607D01*
X20083907Y-9386443D02*
X20183983Y-9486519D01*
X20183983Y-9386443D02*
X20083907Y-9486519D01*
X20083907Y-9836531D02*
X20183983Y-9936607D01*
X20183983Y-9836531D02*
X20083907Y-9936607D01*
X14443075Y-8855075D02*
X14443075Y-8956675D01*
X14392275Y-8905875D02*
X14493875Y-8905875D01*
X14493875Y-8905875D02*
G75*
G03X14493875Y-8905875I-50800J0D01*
G74*
G01*
X14443075Y-9109075D02*
X14443075Y-9210675D01*
X14392275Y-9159875D02*
X14493875Y-9159875D01*
X14493875Y-9159875D02*
G75*
G03X14493875Y-9159875I-50800J0D01*
G74*
G01*
X14443075Y-9363075D02*
X14443075Y-9464675D01*
X14392275Y-9413875D02*
X14493875Y-9413875D01*
X14493875Y-9413875D02*
G75*
G03X14493875Y-9413875I-50800J0D01*
G74*
G01*
X15732125Y-10721975D02*
X15732125Y-10823575D01*
X15681325Y-10772775D02*
X15782925Y-10772775D01*
X15782925Y-10772775D02*
G75*
G03X15782925Y-10772775I-50800J0D01*
G74*
G01*
X15732125Y-10975975D02*
X15732125Y-11077575D01*
X15681325Y-11026775D02*
X15782925Y-11026775D01*
X15782925Y-11026775D02*
G75*
G03X15782925Y-11026775I-50800J0D01*
G74*
G01*
X17052925Y-10239375D02*
X17052925Y-10340975D01*
X17002125Y-10290175D02*
X17103725Y-10290175D01*
X17103725Y-10290175D02*
G75*
G03X17103725Y-10290175I-50800J0D01*
G74*
G01*
X17052925Y-10493375D02*
X17052925Y-10594975D01*
X17002125Y-10544175D02*
X17103725Y-10544175D01*
X17103725Y-10544175D02*
G75*
G03X17103725Y-10544175I-50800J0D01*
G74*
G01*
X10829525Y-10509625D02*
G75*
G03X10829525Y-10509625I-80000J0D01*
G74*
G01*
X10829525Y-12064625D02*
G75*
G03X10829525Y-12064625I-80000J0D01*
G74*
G01*
X18755725Y-11774575D02*
G75*
G03X18755725Y-11774575I-100000J0D01*
G74*
G01*
X19715725Y-11774575D02*
G75*
G03X19715725Y-11774575I-100000J0D01*
G74*
G01*
X9823450Y-7467180D02*
X9823450Y-7787220D01*
X9663430Y-7627200D02*
X9983470Y-7627200D01*
X9823450Y-9966180D02*
X9823450Y-10286220D01*
X9663430Y-10126200D02*
X9983470Y-10126200D01*
X10369525Y-11696125D02*
X10369525Y-12021125D01*
X10207025Y-11858625D02*
X10532025Y-11858625D01*
X10378525Y-10553125D02*
X10378525Y-10878125D01*
X10216025Y-10715625D02*
X10541025Y-10715625D01*
D13*
X9506361Y-13557382D02*
X9506361Y-13257382D01*
X9577789Y-13257382D01*
X9620646Y-13271668D01*
X9649218Y-13300239D01*
X9663503Y-13328811D01*
X9677789Y-13385954D01*
X9677789Y-13428811D01*
X9663503Y-13485954D01*
X9649218Y-13514525D01*
X9620646Y-13543097D01*
X9577789Y-13557382D01*
X9506361Y-13557382D01*
X9806361Y-13557382D02*
X9806361Y-13357382D01*
X9806361Y-13414525D02*
X9820646Y-13385954D01*
X9834932Y-13371668D01*
X9863503Y-13357382D01*
X9892075Y-13357382D01*
X9992075Y-13557382D02*
X9992075Y-13357382D01*
X9992075Y-13257382D02*
X9977789Y-13271668D01*
X9992075Y-13285954D01*
X10006361Y-13271668D01*
X9992075Y-13257382D01*
X9992075Y-13285954D01*
X10177789Y-13557382D02*
X10149218Y-13543097D01*
X10134932Y-13514525D01*
X10134932Y-13257382D01*
X10334932Y-13557382D02*
X10306361Y-13543097D01*
X10292075Y-13514525D01*
X10292075Y-13257382D01*
X10677789Y-13557382D02*
X10677789Y-13257382D01*
X10777789Y-13471668D01*
X10877789Y-13257382D01*
X10877789Y-13557382D01*
X11149218Y-13557382D02*
X11149218Y-13400239D01*
X11134932Y-13371668D01*
X11106361Y-13357382D01*
X11049218Y-13357382D01*
X11020646Y-13371668D01*
X11149218Y-13543097D02*
X11120646Y-13557382D01*
X11049218Y-13557382D01*
X11020646Y-13543097D01*
X11006361Y-13514525D01*
X11006361Y-13485954D01*
X11020646Y-13457382D01*
X11049218Y-13443097D01*
X11120646Y-13443097D01*
X11149218Y-13428811D01*
X11292075Y-13357382D02*
X11292075Y-13657382D01*
X11292075Y-13371668D02*
X11320646Y-13357382D01*
X11377789Y-13357382D01*
X11406360Y-13371668D01*
X11420646Y-13385954D01*
X11434932Y-13414525D01*
X11434932Y-13500239D01*
X11420646Y-13528811D01*
X11406360Y-13543097D01*
X11377789Y-13557382D01*
X11320646Y-13557382D01*
X11292075Y-13543097D01*
X11563503Y-13528811D02*
X11577789Y-13543097D01*
X11563503Y-13557382D01*
X11549218Y-13543097D01*
X11563503Y-13528811D01*
X11563503Y-13557382D01*
X11563503Y-13371668D02*
X11577789Y-13385954D01*
X11563503Y-13400239D01*
X11549218Y-13385954D01*
X11563503Y-13371668D01*
X11563503Y-13400239D01*
X9184932Y-14026668D02*
X9234932Y-14076668D01*
X9234932Y-14026668D02*
X9184932Y-14076668D01*
X9563503Y-13887382D02*
X9592075Y-13887382D01*
X9620646Y-13901668D01*
X9634932Y-13915954D01*
X9649218Y-13944525D01*
X9663503Y-14001668D01*
X9663503Y-14073097D01*
X9649218Y-14130239D01*
X9634932Y-14158811D01*
X9620646Y-14173097D01*
X9592075Y-14187382D01*
X9563503Y-14187382D01*
X9534932Y-14173097D01*
X9520646Y-14158811D01*
X9506361Y-14130239D01*
X9492075Y-14073097D01*
X9492075Y-14001668D01*
X9506361Y-13944525D01*
X9520646Y-13915954D01*
X9534932Y-13901668D01*
X9563503Y-13887382D01*
X9792075Y-14158811D02*
X9806361Y-14173097D01*
X9792075Y-14187382D01*
X9777789Y-14173097D01*
X9792075Y-14158811D01*
X9792075Y-14187382D01*
X10077789Y-13887382D02*
X9934932Y-13887382D01*
X9920646Y-14030239D01*
X9934932Y-14015954D01*
X9963503Y-14001668D01*
X10034932Y-14001668D01*
X10063503Y-14015954D01*
X10077789Y-14030239D01*
X10092075Y-14058811D01*
X10092075Y-14130239D01*
X10077789Y-14158811D01*
X10063503Y-14173097D01*
X10034932Y-14187382D01*
X9963503Y-14187382D01*
X9934932Y-14173097D01*
X9920646Y-14158811D01*
X10277789Y-13887382D02*
X10306361Y-13887382D01*
X10334932Y-13901668D01*
X10349218Y-13915954D01*
X10363503Y-13944525D01*
X10377789Y-14001668D01*
X10377789Y-14073097D01*
X10363503Y-14130239D01*
X10349218Y-14158811D01*
X10334932Y-14173097D01*
X10306361Y-14187382D01*
X10277789Y-14187382D01*
X10249218Y-14173097D01*
X10234932Y-14158811D01*
X10220646Y-14130239D01*
X10206361Y-14073097D01*
X10206361Y-14001668D01*
X10220646Y-13944525D01*
X10234932Y-13915954D01*
X10249218Y-13901668D01*
X10277789Y-13887382D01*
X10506361Y-14187382D02*
X10506361Y-13987382D01*
X10506361Y-14015954D02*
X10520646Y-14001668D01*
X10549218Y-13987382D01*
X10592075Y-13987382D01*
X10620646Y-14001668D01*
X10634932Y-14030239D01*
X10634932Y-14187382D01*
X10634932Y-14030239D02*
X10649218Y-14001668D01*
X10677789Y-13987382D01*
X10720646Y-13987382D01*
X10749218Y-14001668D01*
X10763503Y-14030239D01*
X10763503Y-14187382D01*
X10906361Y-14187382D02*
X10906361Y-13987382D01*
X10906361Y-14015954D02*
X10920646Y-14001668D01*
X10949218Y-13987382D01*
X10992075Y-13987382D01*
X11020646Y-14001668D01*
X11034932Y-14030239D01*
X11034932Y-14187382D01*
X11034932Y-14030239D02*
X11049218Y-14001668D01*
X11077789Y-13987382D01*
X11120646Y-13987382D01*
X11149218Y-14001668D01*
X11163503Y-14030239D01*
X11163503Y-14187382D01*
X11749218Y-13873097D02*
X11492075Y-14258811D01*
X12134932Y-13887382D02*
X12163503Y-13887382D01*
X12192075Y-13901668D01*
X12206360Y-13915954D01*
X12220646Y-13944525D01*
X12234932Y-14001668D01*
X12234932Y-14073097D01*
X12220646Y-14130239D01*
X12206360Y-14158811D01*
X12192075Y-14173097D01*
X12163503Y-14187382D01*
X12134932Y-14187382D01*
X12106360Y-14173097D01*
X12092075Y-14158811D01*
X12077789Y-14130239D01*
X12063503Y-14073097D01*
X12063503Y-14001668D01*
X12077789Y-13944525D01*
X12092075Y-13915954D01*
X12106360Y-13901668D01*
X12134932Y-13887382D01*
X12363503Y-14158811D02*
X12377789Y-14173097D01*
X12363503Y-14187382D01*
X12349218Y-14173097D01*
X12363503Y-14158811D01*
X12363503Y-14187382D01*
X12563503Y-13887382D02*
X12592075Y-13887382D01*
X12620646Y-13901668D01*
X12634932Y-13915954D01*
X12649217Y-13944525D01*
X12663503Y-14001668D01*
X12663503Y-14073097D01*
X12649217Y-14130239D01*
X12634932Y-14158811D01*
X12620646Y-14173097D01*
X12592075Y-14187382D01*
X12563503Y-14187382D01*
X12534932Y-14173097D01*
X12520646Y-14158811D01*
X12506360Y-14130239D01*
X12492075Y-14073097D01*
X12492075Y-14001668D01*
X12506360Y-13944525D01*
X12520646Y-13915954D01*
X12534932Y-13901668D01*
X12563503Y-13887382D01*
X12777789Y-13915954D02*
X12792075Y-13901668D01*
X12820646Y-13887382D01*
X12892075Y-13887382D01*
X12920646Y-13901668D01*
X12934932Y-13915954D01*
X12949217Y-13944525D01*
X12949217Y-13973097D01*
X12934932Y-14015954D01*
X12763503Y-14187382D01*
X12949217Y-14187382D01*
X13134932Y-13887382D02*
X13163503Y-13887382D01*
X13192075Y-13901668D01*
X13206360Y-13915954D01*
X13220646Y-13944525D01*
X13234932Y-14001668D01*
X13234932Y-14073097D01*
X13220646Y-14130239D01*
X13206360Y-14158811D01*
X13192075Y-14173097D01*
X13163503Y-14187382D01*
X13134932Y-14187382D01*
X13106360Y-14173097D01*
X13092075Y-14158811D01*
X13077789Y-14130239D01*
X13063503Y-14073097D01*
X13063503Y-14001668D01*
X13077789Y-13944525D01*
X13092075Y-13915954D01*
X13106360Y-13901668D01*
X13134932Y-13887382D01*
X13349218Y-13887382D02*
X13349218Y-13944525D01*
X13463503Y-13887382D02*
X13463503Y-13944525D01*
X13906360Y-14301668D02*
X13892075Y-14287382D01*
X13863503Y-14244525D01*
X13849217Y-14215954D01*
X13834932Y-14173097D01*
X13820646Y-14101668D01*
X13820646Y-14044525D01*
X13834932Y-13973097D01*
X13849217Y-13930239D01*
X13863503Y-13901668D01*
X13892075Y-13858811D01*
X13906360Y-13844525D01*
X14077789Y-13887382D02*
X14106360Y-13887382D01*
X14134932Y-13901668D01*
X14149217Y-13915954D01*
X14163503Y-13944525D01*
X14177789Y-14001668D01*
X14177789Y-14073097D01*
X14163503Y-14130239D01*
X14149217Y-14158811D01*
X14134932Y-14173097D01*
X14106360Y-14187382D01*
X14077789Y-14187382D01*
X14049217Y-14173097D01*
X14034932Y-14158811D01*
X14020646Y-14130239D01*
X14006360Y-14073097D01*
X14006360Y-14001668D01*
X14020646Y-13944525D01*
X14034932Y-13915954D01*
X14049217Y-13901668D01*
X14077789Y-13887382D01*
X14534932Y-14187382D02*
X14534932Y-13887382D01*
X14663503Y-14187382D02*
X14663503Y-14030239D01*
X14649217Y-14001668D01*
X14620646Y-13987382D01*
X14577789Y-13987382D01*
X14549217Y-14001668D01*
X14534932Y-14015954D01*
X14849217Y-14187382D02*
X14820646Y-14173097D01*
X14806360Y-14158811D01*
X14792075Y-14130239D01*
X14792075Y-14044525D01*
X14806360Y-14015954D01*
X14820646Y-14001668D01*
X14849217Y-13987382D01*
X14892075Y-13987382D01*
X14920646Y-14001668D01*
X14934932Y-14015954D01*
X14949217Y-14044525D01*
X14949217Y-14130239D01*
X14934932Y-14158811D01*
X14920646Y-14173097D01*
X14892075Y-14187382D01*
X14849217Y-14187382D01*
X15120646Y-14187382D02*
X15092075Y-14173097D01*
X15077789Y-14144525D01*
X15077789Y-13887382D01*
X15349218Y-14173097D02*
X15320646Y-14187382D01*
X15263503Y-14187382D01*
X15234932Y-14173097D01*
X15220646Y-14144525D01*
X15220646Y-14030239D01*
X15234932Y-14001668D01*
X15263503Y-13987382D01*
X15320646Y-13987382D01*
X15349218Y-14001668D01*
X15363503Y-14030239D01*
X15363503Y-14058811D01*
X15220646Y-14087382D01*
X15477789Y-14173097D02*
X15506360Y-14187382D01*
X15563503Y-14187382D01*
X15592075Y-14173097D01*
X15606360Y-14144525D01*
X15606360Y-14130239D01*
X15592075Y-14101668D01*
X15563503Y-14087382D01*
X15520646Y-14087382D01*
X15492075Y-14073097D01*
X15477789Y-14044525D01*
X15477789Y-14030239D01*
X15492075Y-14001668D01*
X15520646Y-13987382D01*
X15563503Y-13987382D01*
X15592075Y-14001668D01*
X15963503Y-14073097D02*
X16192075Y-14073097D01*
X16077789Y-14187382D02*
X16077789Y-13958811D01*
X16549218Y-13915954D02*
X16563503Y-13901668D01*
X16592075Y-13887382D01*
X16663503Y-13887382D01*
X16692075Y-13901668D01*
X16706360Y-13915954D01*
X16720646Y-13944525D01*
X16720646Y-13973097D01*
X16706360Y-14015954D01*
X16534932Y-14187382D01*
X16720646Y-14187382D01*
X17063503Y-14173097D02*
X17092075Y-14187382D01*
X17149218Y-14187382D01*
X17177789Y-14173097D01*
X17192075Y-14144525D01*
X17192075Y-14130239D01*
X17177789Y-14101668D01*
X17149218Y-14087382D01*
X17106360Y-14087382D01*
X17077789Y-14073097D01*
X17063503Y-14044525D01*
X17063503Y-14030239D01*
X17077789Y-14001668D01*
X17106360Y-13987382D01*
X17149218Y-13987382D01*
X17177789Y-14001668D01*
X17363503Y-14187382D02*
X17334932Y-14173097D01*
X17320646Y-14144525D01*
X17320646Y-13887382D01*
X17520646Y-14187382D02*
X17492075Y-14173097D01*
X17477789Y-14158811D01*
X17463503Y-14130239D01*
X17463503Y-14044525D01*
X17477789Y-14015954D01*
X17492075Y-14001668D01*
X17520646Y-13987382D01*
X17563503Y-13987382D01*
X17592075Y-14001668D01*
X17606360Y-14015954D01*
X17620646Y-14044525D01*
X17620646Y-14130239D01*
X17606360Y-14158811D01*
X17592075Y-14173097D01*
X17563503Y-14187382D01*
X17520646Y-14187382D01*
X17706360Y-13987382D02*
X17820646Y-13987382D01*
X17749218Y-13887382D02*
X17749218Y-14144525D01*
X17763503Y-14173097D01*
X17792075Y-14187382D01*
X17820646Y-14187382D01*
X17906361Y-14173097D02*
X17934932Y-14187382D01*
X17992075Y-14187382D01*
X18020646Y-14173097D01*
X18034932Y-14144525D01*
X18034932Y-14130239D01*
X18020646Y-14101668D01*
X17992075Y-14087382D01*
X17949218Y-14087382D01*
X17920646Y-14073097D01*
X17906361Y-14044525D01*
X17906361Y-14030239D01*
X17920646Y-14001668D01*
X17949218Y-13987382D01*
X17992075Y-13987382D01*
X18020646Y-14001668D01*
X18134932Y-14301668D02*
X18149218Y-14287382D01*
X18177789Y-14244525D01*
X18192075Y-14215954D01*
X18206360Y-14173097D01*
X18220646Y-14101668D01*
X18220646Y-14044525D01*
X18206360Y-13973097D01*
X18192075Y-13930239D01*
X18177789Y-13901668D01*
X18149218Y-13858811D01*
X18134932Y-13844525D01*
D12*
X9234932Y-14447668D02*
G75*
G03X9234932Y-14447668I-27500J0D01*
G74*
G01*
D13*
X9563503Y-14283382D02*
X9592075Y-14283382D01*
X9620646Y-14297668D01*
X9634932Y-14311954D01*
X9649218Y-14340525D01*
X9663503Y-14397668D01*
X9663503Y-14469097D01*
X9649218Y-14526239D01*
X9634932Y-14554811D01*
X9620646Y-14569097D01*
X9592075Y-14583382D01*
X9563503Y-14583382D01*
X9534932Y-14569097D01*
X9520646Y-14554811D01*
X9506361Y-14526239D01*
X9492075Y-14469097D01*
X9492075Y-14397668D01*
X9506361Y-14340525D01*
X9520646Y-14311954D01*
X9534932Y-14297668D01*
X9563503Y-14283382D01*
X9792075Y-14554811D02*
X9806361Y-14569097D01*
X9792075Y-14583382D01*
X9777789Y-14569097D01*
X9792075Y-14554811D01*
X9792075Y-14583382D01*
X10077789Y-14283382D02*
X9934932Y-14283382D01*
X9920646Y-14426239D01*
X9934932Y-14411954D01*
X9963503Y-14397668D01*
X10034932Y-14397668D01*
X10063503Y-14411954D01*
X10077789Y-14426239D01*
X10092075Y-14454811D01*
X10092075Y-14526239D01*
X10077789Y-14554811D01*
X10063503Y-14569097D01*
X10034932Y-14583382D01*
X9963503Y-14583382D01*
X9934932Y-14569097D01*
X9920646Y-14554811D01*
X10363503Y-14283382D02*
X10220646Y-14283382D01*
X10206361Y-14426239D01*
X10220646Y-14411954D01*
X10249218Y-14397668D01*
X10320646Y-14397668D01*
X10349218Y-14411954D01*
X10363503Y-14426239D01*
X10377789Y-14454811D01*
X10377789Y-14526239D01*
X10363503Y-14554811D01*
X10349218Y-14569097D01*
X10320646Y-14583382D01*
X10249218Y-14583382D01*
X10220646Y-14569097D01*
X10206361Y-14554811D01*
X10506361Y-14583382D02*
X10506361Y-14383382D01*
X10506361Y-14411954D02*
X10520646Y-14397668D01*
X10549218Y-14383382D01*
X10592075Y-14383382D01*
X10620646Y-14397668D01*
X10634932Y-14426239D01*
X10634932Y-14583382D01*
X10634932Y-14426239D02*
X10649218Y-14397668D01*
X10677789Y-14383382D01*
X10720646Y-14383382D01*
X10749218Y-14397668D01*
X10763503Y-14426239D01*
X10763503Y-14583382D01*
X10906361Y-14583382D02*
X10906361Y-14383382D01*
X10906361Y-14411954D02*
X10920646Y-14397668D01*
X10949218Y-14383382D01*
X10992075Y-14383382D01*
X11020646Y-14397668D01*
X11034932Y-14426239D01*
X11034932Y-14583382D01*
X11034932Y-14426239D02*
X11049218Y-14397668D01*
X11077789Y-14383382D01*
X11120646Y-14383382D01*
X11149218Y-14397668D01*
X11163503Y-14426239D01*
X11163503Y-14583382D01*
X11749218Y-14269097D02*
X11492075Y-14654811D01*
X12134932Y-14283382D02*
X12163503Y-14283382D01*
X12192075Y-14297668D01*
X12206360Y-14311954D01*
X12220646Y-14340525D01*
X12234932Y-14397668D01*
X12234932Y-14469097D01*
X12220646Y-14526239D01*
X12206360Y-14554811D01*
X12192075Y-14569097D01*
X12163503Y-14583382D01*
X12134932Y-14583382D01*
X12106360Y-14569097D01*
X12092075Y-14554811D01*
X12077789Y-14526239D01*
X12063503Y-14469097D01*
X12063503Y-14397668D01*
X12077789Y-14340525D01*
X12092075Y-14311954D01*
X12106360Y-14297668D01*
X12134932Y-14283382D01*
X12363503Y-14554811D02*
X12377789Y-14569097D01*
X12363503Y-14583382D01*
X12349218Y-14569097D01*
X12363503Y-14554811D01*
X12363503Y-14583382D01*
X12563503Y-14283382D02*
X12592075Y-14283382D01*
X12620646Y-14297668D01*
X12634932Y-14311954D01*
X12649217Y-14340525D01*
X12663503Y-14397668D01*
X12663503Y-14469097D01*
X12649217Y-14526239D01*
X12634932Y-14554811D01*
X12620646Y-14569097D01*
X12592075Y-14583382D01*
X12563503Y-14583382D01*
X12534932Y-14569097D01*
X12520646Y-14554811D01*
X12506360Y-14526239D01*
X12492075Y-14469097D01*
X12492075Y-14397668D01*
X12506360Y-14340525D01*
X12520646Y-14311954D01*
X12534932Y-14297668D01*
X12563503Y-14283382D01*
X12777789Y-14311954D02*
X12792075Y-14297668D01*
X12820646Y-14283382D01*
X12892075Y-14283382D01*
X12920646Y-14297668D01*
X12934932Y-14311954D01*
X12949217Y-14340525D01*
X12949217Y-14369097D01*
X12934932Y-14411954D01*
X12763503Y-14583382D01*
X12949217Y-14583382D01*
X13063503Y-14311954D02*
X13077789Y-14297668D01*
X13106360Y-14283382D01*
X13177789Y-14283382D01*
X13206360Y-14297668D01*
X13220646Y-14311954D01*
X13234932Y-14340525D01*
X13234932Y-14369097D01*
X13220646Y-14411954D01*
X13049217Y-14583382D01*
X13234932Y-14583382D01*
X13349218Y-14283382D02*
X13349218Y-14340525D01*
X13463503Y-14283382D02*
X13463503Y-14340525D01*
X13906360Y-14697668D02*
X13892075Y-14683382D01*
X13863503Y-14640525D01*
X13849217Y-14611954D01*
X13834932Y-14569097D01*
X13820646Y-14497668D01*
X13820646Y-14440525D01*
X13834932Y-14369097D01*
X13849217Y-14326239D01*
X13863503Y-14297668D01*
X13892075Y-14254811D01*
X13906360Y-14240525D01*
X14077789Y-14283382D02*
X14106360Y-14283382D01*
X14134932Y-14297668D01*
X14149217Y-14311954D01*
X14163503Y-14340525D01*
X14177789Y-14397668D01*
X14177789Y-14469097D01*
X14163503Y-14526239D01*
X14149217Y-14554811D01*
X14134932Y-14569097D01*
X14106360Y-14583382D01*
X14077789Y-14583382D01*
X14049217Y-14569097D01*
X14034932Y-14554811D01*
X14020646Y-14526239D01*
X14006360Y-14469097D01*
X14006360Y-14397668D01*
X14020646Y-14340525D01*
X14034932Y-14311954D01*
X14049217Y-14297668D01*
X14077789Y-14283382D01*
X14534932Y-14583382D02*
X14534932Y-14283382D01*
X14663503Y-14583382D02*
X14663503Y-14426239D01*
X14649217Y-14397668D01*
X14620646Y-14383382D01*
X14577789Y-14383382D01*
X14549217Y-14397668D01*
X14534932Y-14411954D01*
X14849217Y-14583382D02*
X14820646Y-14569097D01*
X14806360Y-14554811D01*
X14792075Y-14526239D01*
X14792075Y-14440525D01*
X14806360Y-14411954D01*
X14820646Y-14397668D01*
X14849217Y-14383382D01*
X14892075Y-14383382D01*
X14920646Y-14397668D01*
X14934932Y-14411954D01*
X14949217Y-14440525D01*
X14949217Y-14526239D01*
X14934932Y-14554811D01*
X14920646Y-14569097D01*
X14892075Y-14583382D01*
X14849217Y-14583382D01*
X15120646Y-14583382D02*
X15092075Y-14569097D01*
X15077789Y-14540525D01*
X15077789Y-14283382D01*
X15349218Y-14569097D02*
X15320646Y-14583382D01*
X15263503Y-14583382D01*
X15234932Y-14569097D01*
X15220646Y-14540525D01*
X15220646Y-14426239D01*
X15234932Y-14397668D01*
X15263503Y-14383382D01*
X15320646Y-14383382D01*
X15349218Y-14397668D01*
X15363503Y-14426239D01*
X15363503Y-14454811D01*
X15220646Y-14483382D01*
X15477789Y-14569097D02*
X15506360Y-14583382D01*
X15563503Y-14583382D01*
X15592075Y-14569097D01*
X15606360Y-14540525D01*
X15606360Y-14526239D01*
X15592075Y-14497668D01*
X15563503Y-14483382D01*
X15520646Y-14483382D01*
X15492075Y-14469097D01*
X15477789Y-14440525D01*
X15477789Y-14426239D01*
X15492075Y-14397668D01*
X15520646Y-14383382D01*
X15563503Y-14383382D01*
X15592075Y-14397668D01*
X15963503Y-14469097D02*
X16192075Y-14469097D01*
X16077789Y-14583382D02*
X16077789Y-14354811D01*
X16549218Y-14311954D02*
X16563503Y-14297668D01*
X16592075Y-14283382D01*
X16663503Y-14283382D01*
X16692075Y-14297668D01*
X16706360Y-14311954D01*
X16720646Y-14340525D01*
X16720646Y-14369097D01*
X16706360Y-14411954D01*
X16534932Y-14583382D01*
X16720646Y-14583382D01*
X17063503Y-14569097D02*
X17092075Y-14583382D01*
X17149218Y-14583382D01*
X17177789Y-14569097D01*
X17192075Y-14540525D01*
X17192075Y-14526239D01*
X17177789Y-14497668D01*
X17149218Y-14483382D01*
X17106360Y-14483382D01*
X17077789Y-14469097D01*
X17063503Y-14440525D01*
X17063503Y-14426239D01*
X17077789Y-14397668D01*
X17106360Y-14383382D01*
X17149218Y-14383382D01*
X17177789Y-14397668D01*
X17363503Y-14583382D02*
X17334932Y-14569097D01*
X17320646Y-14540525D01*
X17320646Y-14283382D01*
X17520646Y-14583382D02*
X17492075Y-14569097D01*
X17477789Y-14554811D01*
X17463503Y-14526239D01*
X17463503Y-14440525D01*
X17477789Y-14411954D01*
X17492075Y-14397668D01*
X17520646Y-14383382D01*
X17563503Y-14383382D01*
X17592075Y-14397668D01*
X17606360Y-14411954D01*
X17620646Y-14440525D01*
X17620646Y-14526239D01*
X17606360Y-14554811D01*
X17592075Y-14569097D01*
X17563503Y-14583382D01*
X17520646Y-14583382D01*
X17706360Y-14383382D02*
X17820646Y-14383382D01*
X17749218Y-14283382D02*
X17749218Y-14540525D01*
X17763503Y-14569097D01*
X17792075Y-14583382D01*
X17820646Y-14583382D01*
X17906361Y-14569097D02*
X17934932Y-14583382D01*
X17992075Y-14583382D01*
X18020646Y-14569097D01*
X18034932Y-14540525D01*
X18034932Y-14526239D01*
X18020646Y-14497668D01*
X17992075Y-14483382D01*
X17949218Y-14483382D01*
X17920646Y-14469097D01*
X17906361Y-14440525D01*
X17906361Y-14426239D01*
X17920646Y-14397668D01*
X17949218Y-14383382D01*
X17992075Y-14383382D01*
X18020646Y-14397668D01*
X18134932Y-14697668D02*
X18149218Y-14683382D01*
X18177789Y-14640525D01*
X18192075Y-14611954D01*
X18206360Y-14569097D01*
X18220646Y-14497668D01*
X18220646Y-14440525D01*
X18206360Y-14369097D01*
X18192075Y-14326239D01*
X18177789Y-14297668D01*
X18149218Y-14254811D01*
X18134932Y-14240525D01*
X9202420Y-14811156D02*
X9202420Y-14876180D01*
X9169908Y-14843668D02*
X9234932Y-14843668D01*
X9563503Y-14679382D02*
X9592075Y-14679382D01*
X9620646Y-14693668D01*
X9634932Y-14707954D01*
X9649218Y-14736525D01*
X9663503Y-14793668D01*
X9663503Y-14865097D01*
X9649218Y-14922239D01*
X9634932Y-14950811D01*
X9620646Y-14965097D01*
X9592075Y-14979382D01*
X9563503Y-14979382D01*
X9534932Y-14965097D01*
X9520646Y-14950811D01*
X9506361Y-14922239D01*
X9492075Y-14865097D01*
X9492075Y-14793668D01*
X9506361Y-14736525D01*
X9520646Y-14707954D01*
X9534932Y-14693668D01*
X9563503Y-14679382D01*
X9792075Y-14950811D02*
X9806361Y-14965097D01*
X9792075Y-14979382D01*
X9777789Y-14965097D01*
X9792075Y-14950811D01*
X9792075Y-14979382D01*
X10063503Y-14679382D02*
X10006360Y-14679382D01*
X9977789Y-14693668D01*
X9963503Y-14707954D01*
X9934932Y-14750811D01*
X9920646Y-14807954D01*
X9920646Y-14922239D01*
X9934932Y-14950811D01*
X9949218Y-14965097D01*
X9977789Y-14979382D01*
X10034932Y-14979382D01*
X10063503Y-14965097D01*
X10077789Y-14950811D01*
X10092075Y-14922239D01*
X10092075Y-14850811D01*
X10077789Y-14822239D01*
X10063503Y-14807954D01*
X10034932Y-14793668D01*
X9977789Y-14793668D01*
X9949218Y-14807954D01*
X9934932Y-14822239D01*
X9920646Y-14850811D01*
X10363503Y-14679382D02*
X10220646Y-14679382D01*
X10206361Y-14822239D01*
X10220646Y-14807954D01*
X10249218Y-14793668D01*
X10320646Y-14793668D01*
X10349218Y-14807954D01*
X10363503Y-14822239D01*
X10377789Y-14850811D01*
X10377789Y-14922239D01*
X10363503Y-14950811D01*
X10349218Y-14965097D01*
X10320646Y-14979382D01*
X10249218Y-14979382D01*
X10220646Y-14965097D01*
X10206361Y-14950811D01*
X10506361Y-14979382D02*
X10506361Y-14779382D01*
X10506361Y-14807954D02*
X10520646Y-14793668D01*
X10549218Y-14779382D01*
X10592075Y-14779382D01*
X10620646Y-14793668D01*
X10634932Y-14822239D01*
X10634932Y-14979382D01*
X10634932Y-14822239D02*
X10649218Y-14793668D01*
X10677789Y-14779382D01*
X10720646Y-14779382D01*
X10749218Y-14793668D01*
X10763503Y-14822239D01*
X10763503Y-14979382D01*
X10906361Y-14979382D02*
X10906361Y-14779382D01*
X10906361Y-14807954D02*
X10920646Y-14793668D01*
X10949218Y-14779382D01*
X10992075Y-14779382D01*
X11020646Y-14793668D01*
X11034932Y-14822239D01*
X11034932Y-14979382D01*
X11034932Y-14822239D02*
X11049218Y-14793668D01*
X11077789Y-14779382D01*
X11120646Y-14779382D01*
X11149218Y-14793668D01*
X11163503Y-14822239D01*
X11163503Y-14979382D01*
X11749218Y-14665097D02*
X11492075Y-15050811D01*
X12134932Y-14679382D02*
X12163503Y-14679382D01*
X12192075Y-14693668D01*
X12206360Y-14707954D01*
X12220646Y-14736525D01*
X12234932Y-14793668D01*
X12234932Y-14865097D01*
X12220646Y-14922239D01*
X12206360Y-14950811D01*
X12192075Y-14965097D01*
X12163503Y-14979382D01*
X12134932Y-14979382D01*
X12106360Y-14965097D01*
X12092075Y-14950811D01*
X12077789Y-14922239D01*
X12063503Y-14865097D01*
X12063503Y-14793668D01*
X12077789Y-14736525D01*
X12092075Y-14707954D01*
X12106360Y-14693668D01*
X12134932Y-14679382D01*
X12363503Y-14950811D02*
X12377789Y-14965097D01*
X12363503Y-14979382D01*
X12349218Y-14965097D01*
X12363503Y-14950811D01*
X12363503Y-14979382D01*
X12563503Y-14679382D02*
X12592075Y-14679382D01*
X12620646Y-14693668D01*
X12634932Y-14707954D01*
X12649217Y-14736525D01*
X12663503Y-14793668D01*
X12663503Y-14865097D01*
X12649217Y-14922239D01*
X12634932Y-14950811D01*
X12620646Y-14965097D01*
X12592075Y-14979382D01*
X12563503Y-14979382D01*
X12534932Y-14965097D01*
X12520646Y-14950811D01*
X12506360Y-14922239D01*
X12492075Y-14865097D01*
X12492075Y-14793668D01*
X12506360Y-14736525D01*
X12520646Y-14707954D01*
X12534932Y-14693668D01*
X12563503Y-14679382D01*
X12777789Y-14707954D02*
X12792075Y-14693668D01*
X12820646Y-14679382D01*
X12892075Y-14679382D01*
X12920646Y-14693668D01*
X12934932Y-14707954D01*
X12949217Y-14736525D01*
X12949217Y-14765097D01*
X12934932Y-14807954D01*
X12763503Y-14979382D01*
X12949217Y-14979382D01*
X13206360Y-14679382D02*
X13149217Y-14679382D01*
X13120646Y-14693668D01*
X13106360Y-14707954D01*
X13077789Y-14750811D01*
X13063503Y-14807954D01*
X13063503Y-14922239D01*
X13077789Y-14950811D01*
X13092075Y-14965097D01*
X13120646Y-14979382D01*
X13177789Y-14979382D01*
X13206360Y-14965097D01*
X13220646Y-14950811D01*
X13234932Y-14922239D01*
X13234932Y-14850811D01*
X13220646Y-14822239D01*
X13206360Y-14807954D01*
X13177789Y-14793668D01*
X13120646Y-14793668D01*
X13092075Y-14807954D01*
X13077789Y-14822239D01*
X13063503Y-14850811D01*
X13349218Y-14679382D02*
X13349218Y-14736525D01*
X13463503Y-14679382D02*
X13463503Y-14736525D01*
X13906360Y-15093668D02*
X13892075Y-15079382D01*
X13863503Y-15036525D01*
X13849217Y-15007954D01*
X13834932Y-14965097D01*
X13820646Y-14893668D01*
X13820646Y-14836525D01*
X13834932Y-14765097D01*
X13849217Y-14722239D01*
X13863503Y-14693668D01*
X13892075Y-14650811D01*
X13906360Y-14636525D01*
X14177789Y-14979382D02*
X14006360Y-14979382D01*
X14092075Y-14979382D02*
X14092075Y-14679382D01*
X14063503Y-14722239D01*
X14034932Y-14750811D01*
X14006360Y-14765097D01*
X14449217Y-14679382D02*
X14306360Y-14679382D01*
X14292075Y-14822239D01*
X14306360Y-14807954D01*
X14334932Y-14793668D01*
X14406360Y-14793668D01*
X14434932Y-14807954D01*
X14449217Y-14822239D01*
X14463503Y-14850811D01*
X14463503Y-14922239D01*
X14449217Y-14950811D01*
X14434932Y-14965097D01*
X14406360Y-14979382D01*
X14334932Y-14979382D01*
X14306360Y-14965097D01*
X14292075Y-14950811D01*
X14820646Y-14979382D02*
X14820646Y-14679382D01*
X14949217Y-14979382D02*
X14949217Y-14822239D01*
X14934932Y-14793668D01*
X14906360Y-14779382D01*
X14863503Y-14779382D01*
X14834932Y-14793668D01*
X14820646Y-14807954D01*
X15134932Y-14979382D02*
X15106360Y-14965097D01*
X15092075Y-14950811D01*
X15077789Y-14922239D01*
X15077789Y-14836525D01*
X15092075Y-14807954D01*
X15106360Y-14793668D01*
X15134932Y-14779382D01*
X15177789Y-14779382D01*
X15206360Y-14793668D01*
X15220646Y-14807954D01*
X15234932Y-14836525D01*
X15234932Y-14922239D01*
X15220646Y-14950811D01*
X15206360Y-14965097D01*
X15177789Y-14979382D01*
X15134932Y-14979382D01*
X15406360Y-14979382D02*
X15377789Y-14965097D01*
X15363503Y-14936525D01*
X15363503Y-14679382D01*
X15634932Y-14965097D02*
X15606360Y-14979382D01*
X15549218Y-14979382D01*
X15520646Y-14965097D01*
X15506360Y-14936525D01*
X15506360Y-14822239D01*
X15520646Y-14793668D01*
X15549218Y-14779382D01*
X15606360Y-14779382D01*
X15634932Y-14793668D01*
X15649218Y-14822239D01*
X15649218Y-14850811D01*
X15506360Y-14879382D01*
X15763503Y-14965097D02*
X15792075Y-14979382D01*
X15849218Y-14979382D01*
X15877789Y-14965097D01*
X15892075Y-14936525D01*
X15892075Y-14922239D01*
X15877789Y-14893668D01*
X15849218Y-14879382D01*
X15806360Y-14879382D01*
X15777789Y-14865097D01*
X15763503Y-14836525D01*
X15763503Y-14822239D01*
X15777789Y-14793668D01*
X15806360Y-14779382D01*
X15849218Y-14779382D01*
X15877789Y-14793668D01*
X15992075Y-15093668D02*
X16006360Y-15079382D01*
X16034932Y-15036525D01*
X16049218Y-15007954D01*
X16063503Y-14965097D01*
X16077789Y-14893668D01*
X16077789Y-14836525D01*
X16063503Y-14765097D01*
X16049218Y-14722239D01*
X16034932Y-14693668D01*
X16006360Y-14650811D01*
X15992075Y-14636525D01*
D12*
D13*
X9563503Y-15075382D02*
X9592075Y-15075382D01*
X9620646Y-15089668D01*
X9634932Y-15103954D01*
X9649218Y-15132525D01*
X9663503Y-15189668D01*
X9663503Y-15261097D01*
X9649218Y-15318239D01*
X9634932Y-15346811D01*
X9620646Y-15361097D01*
X9592075Y-15375382D01*
X9563503Y-15375382D01*
X9534932Y-15361097D01*
X9520646Y-15346811D01*
X9506361Y-15318239D01*
X9492075Y-15261097D01*
X9492075Y-15189668D01*
X9506361Y-15132525D01*
X9520646Y-15103954D01*
X9534932Y-15089668D01*
X9563503Y-15075382D01*
X9792075Y-15346811D02*
X9806361Y-15361097D01*
X9792075Y-15375382D01*
X9777789Y-15361097D01*
X9792075Y-15346811D01*
X9792075Y-15375382D01*
X9977789Y-15203954D02*
X9949218Y-15189668D01*
X9934932Y-15175382D01*
X9920646Y-15146811D01*
X9920646Y-15132525D01*
X9934932Y-15103954D01*
X9949218Y-15089668D01*
X9977789Y-15075382D01*
X10034932Y-15075382D01*
X10063503Y-15089668D01*
X10077789Y-15103954D01*
X10092075Y-15132525D01*
X10092075Y-15146811D01*
X10077789Y-15175382D01*
X10063503Y-15189668D01*
X10034932Y-15203954D01*
X9977789Y-15203954D01*
X9949218Y-15218239D01*
X9934932Y-15232525D01*
X9920646Y-15261097D01*
X9920646Y-15318239D01*
X9934932Y-15346811D01*
X9949218Y-15361097D01*
X9977789Y-15375382D01*
X10034932Y-15375382D01*
X10063503Y-15361097D01*
X10077789Y-15346811D01*
X10092075Y-15318239D01*
X10092075Y-15261097D01*
X10077789Y-15232525D01*
X10063503Y-15218239D01*
X10034932Y-15203954D01*
X10277789Y-15075382D02*
X10306361Y-15075382D01*
X10334932Y-15089668D01*
X10349218Y-15103954D01*
X10363503Y-15132525D01*
X10377789Y-15189668D01*
X10377789Y-15261097D01*
X10363503Y-15318239D01*
X10349218Y-15346811D01*
X10334932Y-15361097D01*
X10306361Y-15375382D01*
X10277789Y-15375382D01*
X10249218Y-15361097D01*
X10234932Y-15346811D01*
X10220646Y-15318239D01*
X10206361Y-15261097D01*
X10206361Y-15189668D01*
X10220646Y-15132525D01*
X10234932Y-15103954D01*
X10249218Y-15089668D01*
X10277789Y-15075382D01*
X10506361Y-15375382D02*
X10506361Y-15175382D01*
X10506361Y-15203954D02*
X10520646Y-15189668D01*
X10549218Y-15175382D01*
X10592075Y-15175382D01*
X10620646Y-15189668D01*
X10634932Y-15218239D01*
X10634932Y-15375382D01*
X10634932Y-15218239D02*
X10649218Y-15189668D01*
X10677789Y-15175382D01*
X10720646Y-15175382D01*
X10749218Y-15189668D01*
X10763503Y-15218239D01*
X10763503Y-15375382D01*
X10906361Y-15375382D02*
X10906361Y-15175382D01*
X10906361Y-15203954D02*
X10920646Y-15189668D01*
X10949218Y-15175382D01*
X10992075Y-15175382D01*
X11020646Y-15189668D01*
X11034932Y-15218239D01*
X11034932Y-15375382D01*
X11034932Y-15218239D02*
X11049218Y-15189668D01*
X11077789Y-15175382D01*
X11120646Y-15175382D01*
X11149218Y-15189668D01*
X11163503Y-15218239D01*
X11163503Y-15375382D01*
X11749218Y-15061097D02*
X11492075Y-15446811D01*
X12134932Y-15075382D02*
X12163503Y-15075382D01*
X12192075Y-15089668D01*
X12206360Y-15103954D01*
X12220646Y-15132525D01*
X12234932Y-15189668D01*
X12234932Y-15261097D01*
X12220646Y-15318239D01*
X12206360Y-15346811D01*
X12192075Y-15361097D01*
X12163503Y-15375382D01*
X12134932Y-15375382D01*
X12106360Y-15361097D01*
X12092075Y-15346811D01*
X12077789Y-15318239D01*
X12063503Y-15261097D01*
X12063503Y-15189668D01*
X12077789Y-15132525D01*
X12092075Y-15103954D01*
X12106360Y-15089668D01*
X12134932Y-15075382D01*
X12363503Y-15346811D02*
X12377789Y-15361097D01*
X12363503Y-15375382D01*
X12349218Y-15361097D01*
X12363503Y-15346811D01*
X12363503Y-15375382D01*
X12563503Y-15075382D02*
X12592075Y-15075382D01*
X12620646Y-15089668D01*
X12634932Y-15103954D01*
X12649217Y-15132525D01*
X12663503Y-15189668D01*
X12663503Y-15261097D01*
X12649217Y-15318239D01*
X12634932Y-15346811D01*
X12620646Y-15361097D01*
X12592075Y-15375382D01*
X12563503Y-15375382D01*
X12534932Y-15361097D01*
X12520646Y-15346811D01*
X12506360Y-15318239D01*
X12492075Y-15261097D01*
X12492075Y-15189668D01*
X12506360Y-15132525D01*
X12520646Y-15103954D01*
X12534932Y-15089668D01*
X12563503Y-15075382D01*
X12763503Y-15075382D02*
X12949217Y-15075382D01*
X12849217Y-15189668D01*
X12892075Y-15189668D01*
X12920646Y-15203954D01*
X12934932Y-15218239D01*
X12949217Y-15246811D01*
X12949217Y-15318239D01*
X12934932Y-15346811D01*
X12920646Y-15361097D01*
X12892075Y-15375382D01*
X12806360Y-15375382D01*
X12777789Y-15361097D01*
X12763503Y-15346811D01*
X13063503Y-15103954D02*
X13077789Y-15089668D01*
X13106360Y-15075382D01*
X13177789Y-15075382D01*
X13206360Y-15089668D01*
X13220646Y-15103954D01*
X13234932Y-15132525D01*
X13234932Y-15161097D01*
X13220646Y-15203954D01*
X13049217Y-15375382D01*
X13234932Y-15375382D01*
X13349218Y-15075382D02*
X13349218Y-15132525D01*
X13463503Y-15075382D02*
X13463503Y-15132525D01*
X13906360Y-15489668D02*
X13892075Y-15475382D01*
X13863503Y-15432525D01*
X13849217Y-15403954D01*
X13834932Y-15361097D01*
X13820646Y-15289668D01*
X13820646Y-15232525D01*
X13834932Y-15161097D01*
X13849217Y-15118239D01*
X13863503Y-15089668D01*
X13892075Y-15046811D01*
X13906360Y-15032525D01*
X14149217Y-15075382D02*
X14092075Y-15075382D01*
X14063503Y-15089668D01*
X14049217Y-15103954D01*
X14020646Y-15146811D01*
X14006360Y-15203954D01*
X14006360Y-15318239D01*
X14020646Y-15346811D01*
X14034932Y-15361097D01*
X14063503Y-15375382D01*
X14120646Y-15375382D01*
X14149217Y-15361097D01*
X14163503Y-15346811D01*
X14177789Y-15318239D01*
X14177789Y-15246811D01*
X14163503Y-15218239D01*
X14149217Y-15203954D01*
X14120646Y-15189668D01*
X14063503Y-15189668D01*
X14034932Y-15203954D01*
X14020646Y-15218239D01*
X14006360Y-15246811D01*
X14534932Y-15375382D02*
X14534932Y-15075382D01*
X14663503Y-15375382D02*
X14663503Y-15218239D01*
X14649217Y-15189668D01*
X14620646Y-15175382D01*
X14577789Y-15175382D01*
X14549217Y-15189668D01*
X14534932Y-15203954D01*
X14849217Y-15375382D02*
X14820646Y-15361097D01*
X14806360Y-15346811D01*
X14792075Y-15318239D01*
X14792075Y-15232525D01*
X14806360Y-15203954D01*
X14820646Y-15189668D01*
X14849217Y-15175382D01*
X14892075Y-15175382D01*
X14920646Y-15189668D01*
X14934932Y-15203954D01*
X14949217Y-15232525D01*
X14949217Y-15318239D01*
X14934932Y-15346811D01*
X14920646Y-15361097D01*
X14892075Y-15375382D01*
X14849217Y-15375382D01*
X15120646Y-15375382D02*
X15092075Y-15361097D01*
X15077789Y-15332525D01*
X15077789Y-15075382D01*
X15349218Y-15361097D02*
X15320646Y-15375382D01*
X15263503Y-15375382D01*
X15234932Y-15361097D01*
X15220646Y-15332525D01*
X15220646Y-15218239D01*
X15234932Y-15189668D01*
X15263503Y-15175382D01*
X15320646Y-15175382D01*
X15349218Y-15189668D01*
X15363503Y-15218239D01*
X15363503Y-15246811D01*
X15220646Y-15275382D01*
X15477789Y-15361097D02*
X15506360Y-15375382D01*
X15563503Y-15375382D01*
X15592075Y-15361097D01*
X15606360Y-15332525D01*
X15606360Y-15318239D01*
X15592075Y-15289668D01*
X15563503Y-15275382D01*
X15520646Y-15275382D01*
X15492075Y-15261097D01*
X15477789Y-15232525D01*
X15477789Y-15218239D01*
X15492075Y-15189668D01*
X15520646Y-15175382D01*
X15563503Y-15175382D01*
X15592075Y-15189668D01*
X15706360Y-15489668D02*
X15720646Y-15475382D01*
X15749218Y-15432525D01*
X15763503Y-15403954D01*
X15777789Y-15361097D01*
X15792075Y-15289668D01*
X15792075Y-15232525D01*
X15777789Y-15161097D01*
X15763503Y-15118239D01*
X15749218Y-15089668D01*
X15720646Y-15046811D01*
X15706360Y-15032525D01*
D12*
D13*
X9563503Y-15471382D02*
X9592075Y-15471382D01*
X9620646Y-15485668D01*
X9634932Y-15499954D01*
X9649218Y-15528525D01*
X9663503Y-15585668D01*
X9663503Y-15657097D01*
X9649218Y-15714239D01*
X9634932Y-15742811D01*
X9620646Y-15757097D01*
X9592075Y-15771382D01*
X9563503Y-15771382D01*
X9534932Y-15757097D01*
X9520646Y-15742811D01*
X9506361Y-15714239D01*
X9492075Y-15657097D01*
X9492075Y-15585668D01*
X9506361Y-15528525D01*
X9520646Y-15499954D01*
X9534932Y-15485668D01*
X9563503Y-15471382D01*
X9792075Y-15742811D02*
X9806361Y-15757097D01*
X9792075Y-15771382D01*
X9777789Y-15757097D01*
X9792075Y-15742811D01*
X9792075Y-15771382D01*
X9977789Y-15599954D02*
X9949218Y-15585668D01*
X9934932Y-15571382D01*
X9920646Y-15542811D01*
X9920646Y-15528525D01*
X9934932Y-15499954D01*
X9949218Y-15485668D01*
X9977789Y-15471382D01*
X10034932Y-15471382D01*
X10063503Y-15485668D01*
X10077789Y-15499954D01*
X10092075Y-15528525D01*
X10092075Y-15542811D01*
X10077789Y-15571382D01*
X10063503Y-15585668D01*
X10034932Y-15599954D01*
X9977789Y-15599954D01*
X9949218Y-15614239D01*
X9934932Y-15628525D01*
X9920646Y-15657097D01*
X9920646Y-15714239D01*
X9934932Y-15742811D01*
X9949218Y-15757097D01*
X9977789Y-15771382D01*
X10034932Y-15771382D01*
X10063503Y-15757097D01*
X10077789Y-15742811D01*
X10092075Y-15714239D01*
X10092075Y-15657097D01*
X10077789Y-15628525D01*
X10063503Y-15614239D01*
X10034932Y-15599954D01*
X10234932Y-15771382D02*
X10292075Y-15771382D01*
X10320646Y-15757097D01*
X10334932Y-15742811D01*
X10363503Y-15699954D01*
X10377789Y-15642811D01*
X10377789Y-15528525D01*
X10363503Y-15499954D01*
X10349218Y-15485668D01*
X10320646Y-15471382D01*
X10263503Y-15471382D01*
X10234932Y-15485668D01*
X10220646Y-15499954D01*
X10206361Y-15528525D01*
X10206361Y-15599954D01*
X10220646Y-15628525D01*
X10234932Y-15642811D01*
X10263503Y-15657097D01*
X10320646Y-15657097D01*
X10349218Y-15642811D01*
X10363503Y-15628525D01*
X10377789Y-15599954D01*
X10506361Y-15771382D02*
X10506361Y-15571382D01*
X10506361Y-15599954D02*
X10520646Y-15585668D01*
X10549218Y-15571382D01*
X10592075Y-15571382D01*
X10620646Y-15585668D01*
X10634932Y-15614239D01*
X10634932Y-15771382D01*
X10634932Y-15614239D02*
X10649218Y-15585668D01*
X10677789Y-15571382D01*
X10720646Y-15571382D01*
X10749218Y-15585668D01*
X10763503Y-15614239D01*
X10763503Y-15771382D01*
X10906361Y-15771382D02*
X10906361Y-15571382D01*
X10906361Y-15599954D02*
X10920646Y-15585668D01*
X10949218Y-15571382D01*
X10992075Y-15571382D01*
X11020646Y-15585668D01*
X11034932Y-15614239D01*
X11034932Y-15771382D01*
X11034932Y-15614239D02*
X11049218Y-15585668D01*
X11077789Y-15571382D01*
X11120646Y-15571382D01*
X11149218Y-15585668D01*
X11163503Y-15614239D01*
X11163503Y-15771382D01*
X11749218Y-15457097D02*
X11492075Y-15842811D01*
X12134932Y-15471382D02*
X12163503Y-15471382D01*
X12192075Y-15485668D01*
X12206360Y-15499954D01*
X12220646Y-15528525D01*
X12234932Y-15585668D01*
X12234932Y-15657097D01*
X12220646Y-15714239D01*
X12206360Y-15742811D01*
X12192075Y-15757097D01*
X12163503Y-15771382D01*
X12134932Y-15771382D01*
X12106360Y-15757097D01*
X12092075Y-15742811D01*
X12077789Y-15714239D01*
X12063503Y-15657097D01*
X12063503Y-15585668D01*
X12077789Y-15528525D01*
X12092075Y-15499954D01*
X12106360Y-15485668D01*
X12134932Y-15471382D01*
X12363503Y-15742811D02*
X12377789Y-15757097D01*
X12363503Y-15771382D01*
X12349218Y-15757097D01*
X12363503Y-15742811D01*
X12363503Y-15771382D01*
X12563503Y-15471382D02*
X12592075Y-15471382D01*
X12620646Y-15485668D01*
X12634932Y-15499954D01*
X12649217Y-15528525D01*
X12663503Y-15585668D01*
X12663503Y-15657097D01*
X12649217Y-15714239D01*
X12634932Y-15742811D01*
X12620646Y-15757097D01*
X12592075Y-15771382D01*
X12563503Y-15771382D01*
X12534932Y-15757097D01*
X12520646Y-15742811D01*
X12506360Y-15714239D01*
X12492075Y-15657097D01*
X12492075Y-15585668D01*
X12506360Y-15528525D01*
X12520646Y-15499954D01*
X12534932Y-15485668D01*
X12563503Y-15471382D01*
X12763503Y-15471382D02*
X12949217Y-15471382D01*
X12849217Y-15585668D01*
X12892075Y-15585668D01*
X12920646Y-15599954D01*
X12934932Y-15614239D01*
X12949217Y-15642811D01*
X12949217Y-15714239D01*
X12934932Y-15742811D01*
X12920646Y-15757097D01*
X12892075Y-15771382D01*
X12806360Y-15771382D01*
X12777789Y-15757097D01*
X12763503Y-15742811D01*
X13220646Y-15471382D02*
X13077789Y-15471382D01*
X13063503Y-15614239D01*
X13077789Y-15599954D01*
X13106360Y-15585668D01*
X13177789Y-15585668D01*
X13206360Y-15599954D01*
X13220646Y-15614239D01*
X13234932Y-15642811D01*
X13234932Y-15714239D01*
X13220646Y-15742811D01*
X13206360Y-15757097D01*
X13177789Y-15771382D01*
X13106360Y-15771382D01*
X13077789Y-15757097D01*
X13063503Y-15742811D01*
X13349218Y-15471382D02*
X13349218Y-15528525D01*
X13463503Y-15471382D02*
X13463503Y-15528525D01*
X13906360Y-15885668D02*
X13892075Y-15871382D01*
X13863503Y-15828525D01*
X13849217Y-15799954D01*
X13834932Y-15757097D01*
X13820646Y-15685668D01*
X13820646Y-15628525D01*
X13834932Y-15557097D01*
X13849217Y-15514239D01*
X13863503Y-15485668D01*
X13892075Y-15442811D01*
X13906360Y-15428525D01*
X14063503Y-15599954D02*
X14034932Y-15585668D01*
X14020646Y-15571382D01*
X14006360Y-15542811D01*
X14006360Y-15528525D01*
X14020646Y-15499954D01*
X14034932Y-15485668D01*
X14063503Y-15471382D01*
X14120646Y-15471382D01*
X14149217Y-15485668D01*
X14163503Y-15499954D01*
X14177789Y-15528525D01*
X14177789Y-15542811D01*
X14163503Y-15571382D01*
X14149217Y-15585668D01*
X14120646Y-15599954D01*
X14063503Y-15599954D01*
X14034932Y-15614239D01*
X14020646Y-15628525D01*
X14006360Y-15657097D01*
X14006360Y-15714239D01*
X14020646Y-15742811D01*
X14034932Y-15757097D01*
X14063503Y-15771382D01*
X14120646Y-15771382D01*
X14149217Y-15757097D01*
X14163503Y-15742811D01*
X14177789Y-15714239D01*
X14177789Y-15657097D01*
X14163503Y-15628525D01*
X14149217Y-15614239D01*
X14120646Y-15599954D01*
X14292075Y-15499954D02*
X14306360Y-15485668D01*
X14334932Y-15471382D01*
X14406360Y-15471382D01*
X14434932Y-15485668D01*
X14449217Y-15499954D01*
X14463503Y-15528525D01*
X14463503Y-15557097D01*
X14449217Y-15599954D01*
X14277789Y-15771382D01*
X14463503Y-15771382D01*
X14820646Y-15771382D02*
X14820646Y-15471382D01*
X14949217Y-15771382D02*
X14949217Y-15614239D01*
X14934932Y-15585668D01*
X14906360Y-15571382D01*
X14863503Y-15571382D01*
X14834932Y-15585668D01*
X14820646Y-15599954D01*
X15134932Y-15771382D02*
X15106360Y-15757097D01*
X15092075Y-15742811D01*
X15077789Y-15714239D01*
X15077789Y-15628525D01*
X15092075Y-15599954D01*
X15106360Y-15585668D01*
X15134932Y-15571382D01*
X15177789Y-15571382D01*
X15206360Y-15585668D01*
X15220646Y-15599954D01*
X15234932Y-15628525D01*
X15234932Y-15714239D01*
X15220646Y-15742811D01*
X15206360Y-15757097D01*
X15177789Y-15771382D01*
X15134932Y-15771382D01*
X15406360Y-15771382D02*
X15377789Y-15757097D01*
X15363503Y-15728525D01*
X15363503Y-15471382D01*
X15634932Y-15757097D02*
X15606360Y-15771382D01*
X15549218Y-15771382D01*
X15520646Y-15757097D01*
X15506360Y-15728525D01*
X15506360Y-15614239D01*
X15520646Y-15585668D01*
X15549218Y-15571382D01*
X15606360Y-15571382D01*
X15634932Y-15585668D01*
X15649218Y-15614239D01*
X15649218Y-15642811D01*
X15506360Y-15671382D01*
X15763503Y-15757097D02*
X15792075Y-15771382D01*
X15849218Y-15771382D01*
X15877789Y-15757097D01*
X15892075Y-15728525D01*
X15892075Y-15714239D01*
X15877789Y-15685668D01*
X15849218Y-15671382D01*
X15806360Y-15671382D01*
X15777789Y-15657097D01*
X15763503Y-15628525D01*
X15763503Y-15614239D01*
X15777789Y-15585668D01*
X15806360Y-15571382D01*
X15849218Y-15571382D01*
X15877789Y-15585668D01*
X15992075Y-15885668D02*
X16006360Y-15871382D01*
X16034932Y-15828525D01*
X16049218Y-15799954D01*
X16063503Y-15757097D01*
X16077789Y-15685668D01*
X16077789Y-15628525D01*
X16063503Y-15557097D01*
X16049218Y-15514239D01*
X16034932Y-15485668D01*
X16006360Y-15442811D01*
X15992075Y-15428525D01*
X9144932Y-15986668D02*
X9234932Y-16076668D01*
X9234932Y-15986668D02*
X9144932Y-16076668D01*
D12*
X9234932Y-16031668D02*
G75*
G03X9234932Y-16031668I-45000J0D01*
G74*
G01*
D13*
X9563503Y-15867382D02*
X9592075Y-15867382D01*
X9620646Y-15881668D01*
X9634932Y-15895954D01*
X9649218Y-15924525D01*
X9663503Y-15981668D01*
X9663503Y-16053097D01*
X9649218Y-16110239D01*
X9634932Y-16138811D01*
X9620646Y-16153097D01*
X9592075Y-16167382D01*
X9563503Y-16167382D01*
X9534932Y-16153097D01*
X9520646Y-16138811D01*
X9506361Y-16110239D01*
X9492075Y-16053097D01*
X9492075Y-15981668D01*
X9506361Y-15924525D01*
X9520646Y-15895954D01*
X9534932Y-15881668D01*
X9563503Y-15867382D01*
X9792075Y-16138811D02*
X9806361Y-16153097D01*
X9792075Y-16167382D01*
X9777789Y-16153097D01*
X9792075Y-16138811D01*
X9792075Y-16167382D01*
X9949218Y-16167382D02*
X10006360Y-16167382D01*
X10034932Y-16153097D01*
X10049218Y-16138811D01*
X10077789Y-16095954D01*
X10092075Y-16038811D01*
X10092075Y-15924525D01*
X10077789Y-15895954D01*
X10063503Y-15881668D01*
X10034932Y-15867382D01*
X9977789Y-15867382D01*
X9949218Y-15881668D01*
X9934932Y-15895954D01*
X9920646Y-15924525D01*
X9920646Y-15995954D01*
X9934932Y-16024525D01*
X9949218Y-16038811D01*
X9977789Y-16053097D01*
X10034932Y-16053097D01*
X10063503Y-16038811D01*
X10077789Y-16024525D01*
X10092075Y-15995954D01*
X10277789Y-15867382D02*
X10306361Y-15867382D01*
X10334932Y-15881668D01*
X10349218Y-15895954D01*
X10363503Y-15924525D01*
X10377789Y-15981668D01*
X10377789Y-16053097D01*
X10363503Y-16110239D01*
X10349218Y-16138811D01*
X10334932Y-16153097D01*
X10306361Y-16167382D01*
X10277789Y-16167382D01*
X10249218Y-16153097D01*
X10234932Y-16138811D01*
X10220646Y-16110239D01*
X10206361Y-16053097D01*
X10206361Y-15981668D01*
X10220646Y-15924525D01*
X10234932Y-15895954D01*
X10249218Y-15881668D01*
X10277789Y-15867382D01*
X10506361Y-16167382D02*
X10506361Y-15967382D01*
X10506361Y-15995954D02*
X10520646Y-15981668D01*
X10549218Y-15967382D01*
X10592075Y-15967382D01*
X10620646Y-15981668D01*
X10634932Y-16010239D01*
X10634932Y-16167382D01*
X10634932Y-16010239D02*
X10649218Y-15981668D01*
X10677789Y-15967382D01*
X10720646Y-15967382D01*
X10749218Y-15981668D01*
X10763503Y-16010239D01*
X10763503Y-16167382D01*
X10906361Y-16167382D02*
X10906361Y-15967382D01*
X10906361Y-15995954D02*
X10920646Y-15981668D01*
X10949218Y-15967382D01*
X10992075Y-15967382D01*
X11020646Y-15981668D01*
X11034932Y-16010239D01*
X11034932Y-16167382D01*
X11034932Y-16010239D02*
X11049218Y-15981668D01*
X11077789Y-15967382D01*
X11120646Y-15967382D01*
X11149218Y-15981668D01*
X11163503Y-16010239D01*
X11163503Y-16167382D01*
X11749218Y-15853097D02*
X11492075Y-16238811D01*
X12134932Y-15867382D02*
X12163503Y-15867382D01*
X12192075Y-15881668D01*
X12206360Y-15895954D01*
X12220646Y-15924525D01*
X12234932Y-15981668D01*
X12234932Y-16053097D01*
X12220646Y-16110239D01*
X12206360Y-16138811D01*
X12192075Y-16153097D01*
X12163503Y-16167382D01*
X12134932Y-16167382D01*
X12106360Y-16153097D01*
X12092075Y-16138811D01*
X12077789Y-16110239D01*
X12063503Y-16053097D01*
X12063503Y-15981668D01*
X12077789Y-15924525D01*
X12092075Y-15895954D01*
X12106360Y-15881668D01*
X12134932Y-15867382D01*
X12363503Y-16138811D02*
X12377789Y-16153097D01*
X12363503Y-16167382D01*
X12349218Y-16153097D01*
X12363503Y-16138811D01*
X12363503Y-16167382D01*
X12563503Y-15867382D02*
X12592075Y-15867382D01*
X12620646Y-15881668D01*
X12634932Y-15895954D01*
X12649217Y-15924525D01*
X12663503Y-15981668D01*
X12663503Y-16053097D01*
X12649217Y-16110239D01*
X12634932Y-16138811D01*
X12620646Y-16153097D01*
X12592075Y-16167382D01*
X12563503Y-16167382D01*
X12534932Y-16153097D01*
X12520646Y-16138811D01*
X12506360Y-16110239D01*
X12492075Y-16053097D01*
X12492075Y-15981668D01*
X12506360Y-15924525D01*
X12520646Y-15895954D01*
X12534932Y-15881668D01*
X12563503Y-15867382D01*
X12763503Y-15867382D02*
X12949217Y-15867382D01*
X12849217Y-15981668D01*
X12892075Y-15981668D01*
X12920646Y-15995954D01*
X12934932Y-16010239D01*
X12949217Y-16038811D01*
X12949217Y-16110239D01*
X12934932Y-16138811D01*
X12920646Y-16153097D01*
X12892075Y-16167382D01*
X12806360Y-16167382D01*
X12777789Y-16153097D01*
X12763503Y-16138811D01*
X13220646Y-15867382D02*
X13077789Y-15867382D01*
X13063503Y-16010239D01*
X13077789Y-15995954D01*
X13106360Y-15981668D01*
X13177789Y-15981668D01*
X13206360Y-15995954D01*
X13220646Y-16010239D01*
X13234932Y-16038811D01*
X13234932Y-16110239D01*
X13220646Y-16138811D01*
X13206360Y-16153097D01*
X13177789Y-16167382D01*
X13106360Y-16167382D01*
X13077789Y-16153097D01*
X13063503Y-16138811D01*
X13349218Y-15867382D02*
X13349218Y-15924525D01*
X13463503Y-15867382D02*
X13463503Y-15924525D01*
X13906360Y-16281668D02*
X13892075Y-16267382D01*
X13863503Y-16224525D01*
X13849217Y-16195954D01*
X13834932Y-16153097D01*
X13820646Y-16081668D01*
X13820646Y-16024525D01*
X13834932Y-15953097D01*
X13849217Y-15910239D01*
X13863503Y-15881668D01*
X13892075Y-15838811D01*
X13906360Y-15824525D01*
X14177789Y-16167382D02*
X14006360Y-16167382D01*
X14092075Y-16167382D02*
X14092075Y-15867382D01*
X14063503Y-15910239D01*
X14034932Y-15938811D01*
X14006360Y-15953097D01*
X14463503Y-16167382D02*
X14292075Y-16167382D01*
X14377789Y-16167382D02*
X14377789Y-15867382D01*
X14349217Y-15910239D01*
X14320646Y-15938811D01*
X14292075Y-15953097D01*
X14820646Y-16167382D02*
X14820646Y-15867382D01*
X14949217Y-16167382D02*
X14949217Y-16010239D01*
X14934932Y-15981668D01*
X14906360Y-15967382D01*
X14863503Y-15967382D01*
X14834932Y-15981668D01*
X14820646Y-15995954D01*
X15134932Y-16167382D02*
X15106360Y-16153097D01*
X15092075Y-16138811D01*
X15077789Y-16110239D01*
X15077789Y-16024525D01*
X15092075Y-15995954D01*
X15106360Y-15981668D01*
X15134932Y-15967382D01*
X15177789Y-15967382D01*
X15206360Y-15981668D01*
X15220646Y-15995954D01*
X15234932Y-16024525D01*
X15234932Y-16110239D01*
X15220646Y-16138811D01*
X15206360Y-16153097D01*
X15177789Y-16167382D01*
X15134932Y-16167382D01*
X15406360Y-16167382D02*
X15377789Y-16153097D01*
X15363503Y-16124525D01*
X15363503Y-15867382D01*
X15634932Y-16153097D02*
X15606360Y-16167382D01*
X15549218Y-16167382D01*
X15520646Y-16153097D01*
X15506360Y-16124525D01*
X15506360Y-16010239D01*
X15520646Y-15981668D01*
X15549218Y-15967382D01*
X15606360Y-15967382D01*
X15634932Y-15981668D01*
X15649218Y-16010239D01*
X15649218Y-16038811D01*
X15506360Y-16067382D01*
X15763503Y-16153097D02*
X15792075Y-16167382D01*
X15849218Y-16167382D01*
X15877789Y-16153097D01*
X15892075Y-16124525D01*
X15892075Y-16110239D01*
X15877789Y-16081668D01*
X15849218Y-16067382D01*
X15806360Y-16067382D01*
X15777789Y-16053097D01*
X15763503Y-16024525D01*
X15763503Y-16010239D01*
X15777789Y-15981668D01*
X15806360Y-15967382D01*
X15849218Y-15967382D01*
X15877789Y-15981668D01*
X15992075Y-16281668D02*
X16006360Y-16267382D01*
X16034932Y-16224525D01*
X16049218Y-16195954D01*
X16063503Y-16153097D01*
X16077789Y-16081668D01*
X16077789Y-16024525D01*
X16063503Y-15953097D01*
X16049218Y-15910239D01*
X16034932Y-15881668D01*
X16006360Y-15838811D01*
X15992075Y-15824525D01*
X9135110Y-16377757D02*
X9234932Y-16477579D01*
X9234932Y-16377757D02*
X9135110Y-16477579D01*
X9185021Y-16377757D02*
X9185021Y-16477579D01*
X9135110Y-16427668D02*
X9234932Y-16427668D01*
X9663503Y-16563382D02*
X9492075Y-16563382D01*
X9577789Y-16563382D02*
X9577789Y-16263382D01*
X9549218Y-16306239D01*
X9520646Y-16334811D01*
X9492075Y-16349097D01*
X9792075Y-16534811D02*
X9806361Y-16549097D01*
X9792075Y-16563382D01*
X9777789Y-16549097D01*
X9792075Y-16534811D01*
X9792075Y-16563382D01*
X9992075Y-16263382D02*
X10020646Y-16263382D01*
X10049218Y-16277668D01*
X10063503Y-16291954D01*
X10077789Y-16320525D01*
X10092075Y-16377668D01*
X10092075Y-16449097D01*
X10077789Y-16506239D01*
X10063503Y-16534811D01*
X10049218Y-16549097D01*
X10020646Y-16563382D01*
X9992075Y-16563382D01*
X9963503Y-16549097D01*
X9949218Y-16534811D01*
X9934932Y-16506239D01*
X9920646Y-16449097D01*
X9920646Y-16377668D01*
X9934932Y-16320525D01*
X9949218Y-16291954D01*
X9963503Y-16277668D01*
X9992075Y-16263382D01*
X10277789Y-16263382D02*
X10306361Y-16263382D01*
X10334932Y-16277668D01*
X10349218Y-16291954D01*
X10363503Y-16320525D01*
X10377789Y-16377668D01*
X10377789Y-16449097D01*
X10363503Y-16506239D01*
X10349218Y-16534811D01*
X10334932Y-16549097D01*
X10306361Y-16563382D01*
X10277789Y-16563382D01*
X10249218Y-16549097D01*
X10234932Y-16534811D01*
X10220646Y-16506239D01*
X10206361Y-16449097D01*
X10206361Y-16377668D01*
X10220646Y-16320525D01*
X10234932Y-16291954D01*
X10249218Y-16277668D01*
X10277789Y-16263382D01*
X10506361Y-16563382D02*
X10506361Y-16363382D01*
X10506361Y-16391954D02*
X10520646Y-16377668D01*
X10549218Y-16363382D01*
X10592075Y-16363382D01*
X10620646Y-16377668D01*
X10634932Y-16406239D01*
X10634932Y-16563382D01*
X10634932Y-16406239D02*
X10649218Y-16377668D01*
X10677789Y-16363382D01*
X10720646Y-16363382D01*
X10749218Y-16377668D01*
X10763503Y-16406239D01*
X10763503Y-16563382D01*
X10906361Y-16563382D02*
X10906361Y-16363382D01*
X10906361Y-16391954D02*
X10920646Y-16377668D01*
X10949218Y-16363382D01*
X10992075Y-16363382D01*
X11020646Y-16377668D01*
X11034932Y-16406239D01*
X11034932Y-16563382D01*
X11034932Y-16406239D02*
X11049218Y-16377668D01*
X11077789Y-16363382D01*
X11120646Y-16363382D01*
X11149218Y-16377668D01*
X11163503Y-16406239D01*
X11163503Y-16563382D01*
X11749218Y-16249097D02*
X11492075Y-16634811D01*
X12134932Y-16263382D02*
X12163503Y-16263382D01*
X12192075Y-16277668D01*
X12206360Y-16291954D01*
X12220646Y-16320525D01*
X12234932Y-16377668D01*
X12234932Y-16449097D01*
X12220646Y-16506239D01*
X12206360Y-16534811D01*
X12192075Y-16549097D01*
X12163503Y-16563382D01*
X12134932Y-16563382D01*
X12106360Y-16549097D01*
X12092075Y-16534811D01*
X12077789Y-16506239D01*
X12063503Y-16449097D01*
X12063503Y-16377668D01*
X12077789Y-16320525D01*
X12092075Y-16291954D01*
X12106360Y-16277668D01*
X12134932Y-16263382D01*
X12363503Y-16534811D02*
X12377789Y-16549097D01*
X12363503Y-16563382D01*
X12349218Y-16549097D01*
X12363503Y-16534811D01*
X12363503Y-16563382D01*
X12563503Y-16263382D02*
X12592075Y-16263382D01*
X12620646Y-16277668D01*
X12634932Y-16291954D01*
X12649217Y-16320525D01*
X12663503Y-16377668D01*
X12663503Y-16449097D01*
X12649217Y-16506239D01*
X12634932Y-16534811D01*
X12620646Y-16549097D01*
X12592075Y-16563382D01*
X12563503Y-16563382D01*
X12534932Y-16549097D01*
X12520646Y-16534811D01*
X12506360Y-16506239D01*
X12492075Y-16449097D01*
X12492075Y-16377668D01*
X12506360Y-16320525D01*
X12520646Y-16291954D01*
X12534932Y-16277668D01*
X12563503Y-16263382D01*
X12763503Y-16263382D02*
X12949217Y-16263382D01*
X12849217Y-16377668D01*
X12892075Y-16377668D01*
X12920646Y-16391954D01*
X12934932Y-16406239D01*
X12949217Y-16434811D01*
X12949217Y-16506239D01*
X12934932Y-16534811D01*
X12920646Y-16549097D01*
X12892075Y-16563382D01*
X12806360Y-16563382D01*
X12777789Y-16549097D01*
X12763503Y-16534811D01*
X13092075Y-16563382D02*
X13149217Y-16563382D01*
X13177789Y-16549097D01*
X13192075Y-16534811D01*
X13220646Y-16491954D01*
X13234932Y-16434811D01*
X13234932Y-16320525D01*
X13220646Y-16291954D01*
X13206360Y-16277668D01*
X13177789Y-16263382D01*
X13120646Y-16263382D01*
X13092075Y-16277668D01*
X13077789Y-16291954D01*
X13063503Y-16320525D01*
X13063503Y-16391954D01*
X13077789Y-16420525D01*
X13092075Y-16434811D01*
X13120646Y-16449097D01*
X13177789Y-16449097D01*
X13206360Y-16434811D01*
X13220646Y-16420525D01*
X13234932Y-16391954D01*
X13349218Y-16263382D02*
X13349218Y-16320525D01*
X13463503Y-16263382D02*
X13463503Y-16320525D01*
X13906360Y-16677668D02*
X13892075Y-16663382D01*
X13863503Y-16620525D01*
X13849217Y-16591954D01*
X13834932Y-16549097D01*
X13820646Y-16477668D01*
X13820646Y-16420525D01*
X13834932Y-16349097D01*
X13849217Y-16306239D01*
X13863503Y-16277668D01*
X13892075Y-16234811D01*
X13906360Y-16220525D01*
X14149217Y-16363382D02*
X14149217Y-16563382D01*
X14077789Y-16249097D02*
X14006360Y-16463382D01*
X14192075Y-16463382D01*
X14349217Y-16391954D02*
X14320646Y-16377668D01*
X14306360Y-16363382D01*
X14292075Y-16334811D01*
X14292075Y-16320525D01*
X14306360Y-16291954D01*
X14320646Y-16277668D01*
X14349217Y-16263382D01*
X14406360Y-16263382D01*
X14434932Y-16277668D01*
X14449217Y-16291954D01*
X14463503Y-16320525D01*
X14463503Y-16334811D01*
X14449217Y-16363382D01*
X14434932Y-16377668D01*
X14406360Y-16391954D01*
X14349217Y-16391954D01*
X14320646Y-16406239D01*
X14306360Y-16420525D01*
X14292075Y-16449097D01*
X14292075Y-16506239D01*
X14306360Y-16534811D01*
X14320646Y-16549097D01*
X14349217Y-16563382D01*
X14406360Y-16563382D01*
X14434932Y-16549097D01*
X14449217Y-16534811D01*
X14463503Y-16506239D01*
X14463503Y-16449097D01*
X14449217Y-16420525D01*
X14434932Y-16406239D01*
X14406360Y-16391954D01*
X14820646Y-16563382D02*
X14820646Y-16263382D01*
X14949217Y-16563382D02*
X14949217Y-16406239D01*
X14934932Y-16377668D01*
X14906360Y-16363382D01*
X14863503Y-16363382D01*
X14834932Y-16377668D01*
X14820646Y-16391954D01*
X15134932Y-16563382D02*
X15106360Y-16549097D01*
X15092075Y-16534811D01*
X15077789Y-16506239D01*
X15077789Y-16420525D01*
X15092075Y-16391954D01*
X15106360Y-16377668D01*
X15134932Y-16363382D01*
X15177789Y-16363382D01*
X15206360Y-16377668D01*
X15220646Y-16391954D01*
X15234932Y-16420525D01*
X15234932Y-16506239D01*
X15220646Y-16534811D01*
X15206360Y-16549097D01*
X15177789Y-16563382D01*
X15134932Y-16563382D01*
X15406360Y-16563382D02*
X15377789Y-16549097D01*
X15363503Y-16520525D01*
X15363503Y-16263382D01*
X15634932Y-16549097D02*
X15606360Y-16563382D01*
X15549218Y-16563382D01*
X15520646Y-16549097D01*
X15506360Y-16520525D01*
X15506360Y-16406239D01*
X15520646Y-16377668D01*
X15549218Y-16363382D01*
X15606360Y-16363382D01*
X15634932Y-16377668D01*
X15649218Y-16406239D01*
X15649218Y-16434811D01*
X15506360Y-16463382D01*
X15763503Y-16549097D02*
X15792075Y-16563382D01*
X15849218Y-16563382D01*
X15877789Y-16549097D01*
X15892075Y-16520525D01*
X15892075Y-16506239D01*
X15877789Y-16477668D01*
X15849218Y-16463382D01*
X15806360Y-16463382D01*
X15777789Y-16449097D01*
X15763503Y-16420525D01*
X15763503Y-16406239D01*
X15777789Y-16377668D01*
X15806360Y-16363382D01*
X15849218Y-16363382D01*
X15877789Y-16377668D01*
X15992075Y-16677668D02*
X16006360Y-16663382D01*
X16034932Y-16620525D01*
X16049218Y-16591954D01*
X16063503Y-16549097D01*
X16077789Y-16477668D01*
X16077789Y-16420525D01*
X16063503Y-16349097D01*
X16049218Y-16306239D01*
X16034932Y-16277668D01*
X16006360Y-16234811D01*
X15992075Y-16220525D01*
X9134932Y-16773668D02*
X9234932Y-16873668D01*
X9234932Y-16773668D02*
X9134932Y-16873668D01*
D12*
D13*
X9663503Y-16959382D02*
X9492075Y-16959382D01*
X9577789Y-16959382D02*
X9577789Y-16659382D01*
X9549218Y-16702239D01*
X9520646Y-16730811D01*
X9492075Y-16745097D01*
X9792075Y-16930811D02*
X9806361Y-16945097D01*
X9792075Y-16959382D01*
X9777789Y-16945097D01*
X9792075Y-16930811D01*
X9792075Y-16959382D01*
X9992075Y-16659382D02*
X10020646Y-16659382D01*
X10049218Y-16673668D01*
X10063503Y-16687954D01*
X10077789Y-16716525D01*
X10092075Y-16773668D01*
X10092075Y-16845097D01*
X10077789Y-16902240D01*
X10063503Y-16930811D01*
X10049218Y-16945097D01*
X10020646Y-16959382D01*
X9992075Y-16959382D01*
X9963503Y-16945097D01*
X9949218Y-16930811D01*
X9934932Y-16902240D01*
X9920646Y-16845097D01*
X9920646Y-16773668D01*
X9934932Y-16716525D01*
X9949218Y-16687954D01*
X9963503Y-16673668D01*
X9992075Y-16659382D01*
X10277789Y-16659382D02*
X10306361Y-16659382D01*
X10334932Y-16673668D01*
X10349218Y-16687954D01*
X10363503Y-16716525D01*
X10377789Y-16773668D01*
X10377789Y-16845097D01*
X10363503Y-16902240D01*
X10349218Y-16930811D01*
X10334932Y-16945097D01*
X10306361Y-16959382D01*
X10277789Y-16959382D01*
X10249218Y-16945097D01*
X10234932Y-16930811D01*
X10220646Y-16902240D01*
X10206361Y-16845097D01*
X10206361Y-16773668D01*
X10220646Y-16716525D01*
X10234932Y-16687954D01*
X10249218Y-16673668D01*
X10277789Y-16659382D01*
X10506361Y-16959382D02*
X10506361Y-16759382D01*
X10506361Y-16787954D02*
X10520646Y-16773668D01*
X10549218Y-16759382D01*
X10592075Y-16759382D01*
X10620646Y-16773668D01*
X10634932Y-16802240D01*
X10634932Y-16959382D01*
X10634932Y-16802240D02*
X10649218Y-16773668D01*
X10677789Y-16759382D01*
X10720646Y-16759382D01*
X10749218Y-16773668D01*
X10763503Y-16802240D01*
X10763503Y-16959382D01*
X10906361Y-16959382D02*
X10906361Y-16759382D01*
X10906361Y-16787954D02*
X10920646Y-16773668D01*
X10949218Y-16759382D01*
X10992075Y-16759382D01*
X11020646Y-16773668D01*
X11034932Y-16802240D01*
X11034932Y-16959382D01*
X11034932Y-16802240D02*
X11049218Y-16773668D01*
X11077789Y-16759382D01*
X11120646Y-16759382D01*
X11149218Y-16773668D01*
X11163503Y-16802240D01*
X11163503Y-16959382D01*
X11749218Y-16645097D02*
X11492075Y-17030811D01*
X12134932Y-16659382D02*
X12163503Y-16659382D01*
X12192075Y-16673668D01*
X12206360Y-16687954D01*
X12220646Y-16716525D01*
X12234932Y-16773668D01*
X12234932Y-16845097D01*
X12220646Y-16902240D01*
X12206360Y-16930811D01*
X12192075Y-16945097D01*
X12163503Y-16959382D01*
X12134932Y-16959382D01*
X12106360Y-16945097D01*
X12092075Y-16930811D01*
X12077789Y-16902240D01*
X12063503Y-16845097D01*
X12063503Y-16773668D01*
X12077789Y-16716525D01*
X12092075Y-16687954D01*
X12106360Y-16673668D01*
X12134932Y-16659382D01*
X12363503Y-16930811D02*
X12377789Y-16945097D01*
X12363503Y-16959382D01*
X12349218Y-16945097D01*
X12363503Y-16930811D01*
X12363503Y-16959382D01*
X12563503Y-16659382D02*
X12592075Y-16659382D01*
X12620646Y-16673668D01*
X12634932Y-16687954D01*
X12649217Y-16716525D01*
X12663503Y-16773668D01*
X12663503Y-16845097D01*
X12649217Y-16902240D01*
X12634932Y-16930811D01*
X12620646Y-16945097D01*
X12592075Y-16959382D01*
X12563503Y-16959382D01*
X12534932Y-16945097D01*
X12520646Y-16930811D01*
X12506360Y-16902240D01*
X12492075Y-16845097D01*
X12492075Y-16773668D01*
X12506360Y-16716525D01*
X12520646Y-16687954D01*
X12534932Y-16673668D01*
X12563503Y-16659382D01*
X12763503Y-16659382D02*
X12949217Y-16659382D01*
X12849217Y-16773668D01*
X12892075Y-16773668D01*
X12920646Y-16787954D01*
X12934932Y-16802240D01*
X12949217Y-16830811D01*
X12949217Y-16902240D01*
X12934932Y-16930811D01*
X12920646Y-16945097D01*
X12892075Y-16959382D01*
X12806360Y-16959382D01*
X12777789Y-16945097D01*
X12763503Y-16930811D01*
X13092075Y-16959382D02*
X13149217Y-16959382D01*
X13177789Y-16945097D01*
X13192075Y-16930811D01*
X13220646Y-16887954D01*
X13234932Y-16830811D01*
X13234932Y-16716525D01*
X13220646Y-16687954D01*
X13206360Y-16673668D01*
X13177789Y-16659382D01*
X13120646Y-16659382D01*
X13092075Y-16673668D01*
X13077789Y-16687954D01*
X13063503Y-16716525D01*
X13063503Y-16787954D01*
X13077789Y-16816525D01*
X13092075Y-16830811D01*
X13120646Y-16845097D01*
X13177789Y-16845097D01*
X13206360Y-16830811D01*
X13220646Y-16816525D01*
X13234932Y-16787954D01*
X13349218Y-16659382D02*
X13349218Y-16716525D01*
X13463503Y-16659382D02*
X13463503Y-16716525D01*
X13906360Y-17073668D02*
X13892075Y-17059382D01*
X13863503Y-17016525D01*
X13849217Y-16987954D01*
X13834932Y-16945097D01*
X13820646Y-16873668D01*
X13820646Y-16816525D01*
X13834932Y-16745097D01*
X13849217Y-16702239D01*
X13863503Y-16673668D01*
X13892075Y-16630811D01*
X13906360Y-16616525D01*
X13992075Y-16659382D02*
X14177789Y-16659382D01*
X14077789Y-16773668D01*
X14120646Y-16773668D01*
X14149217Y-16787954D01*
X14163503Y-16802240D01*
X14177789Y-16830811D01*
X14177789Y-16902240D01*
X14163503Y-16930811D01*
X14149217Y-16945097D01*
X14120646Y-16959382D01*
X14034932Y-16959382D01*
X14006360Y-16945097D01*
X13992075Y-16930811D01*
X14534932Y-16959382D02*
X14534932Y-16659382D01*
X14663503Y-16959382D02*
X14663503Y-16802240D01*
X14649217Y-16773668D01*
X14620646Y-16759382D01*
X14577789Y-16759382D01*
X14549217Y-16773668D01*
X14534932Y-16787954D01*
X14849217Y-16959382D02*
X14820646Y-16945097D01*
X14806360Y-16930811D01*
X14792075Y-16902240D01*
X14792075Y-16816525D01*
X14806360Y-16787954D01*
X14820646Y-16773668D01*
X14849217Y-16759382D01*
X14892075Y-16759382D01*
X14920646Y-16773668D01*
X14934932Y-16787954D01*
X14949217Y-16816525D01*
X14949217Y-16902240D01*
X14934932Y-16930811D01*
X14920646Y-16945097D01*
X14892075Y-16959382D01*
X14849217Y-16959382D01*
X15120646Y-16959382D02*
X15092075Y-16945097D01*
X15077789Y-16916525D01*
X15077789Y-16659382D01*
X15349218Y-16945097D02*
X15320646Y-16959382D01*
X15263503Y-16959382D01*
X15234932Y-16945097D01*
X15220646Y-16916525D01*
X15220646Y-16802240D01*
X15234932Y-16773668D01*
X15263503Y-16759382D01*
X15320646Y-16759382D01*
X15349218Y-16773668D01*
X15363503Y-16802240D01*
X15363503Y-16830811D01*
X15220646Y-16859382D01*
X15477789Y-16945097D02*
X15506360Y-16959382D01*
X15563503Y-16959382D01*
X15592075Y-16945097D01*
X15606360Y-16916525D01*
X15606360Y-16902240D01*
X15592075Y-16873668D01*
X15563503Y-16859382D01*
X15520646Y-16859382D01*
X15492075Y-16845097D01*
X15477789Y-16816525D01*
X15477789Y-16802240D01*
X15492075Y-16773668D01*
X15520646Y-16759382D01*
X15563503Y-16759382D01*
X15592075Y-16773668D01*
X15706360Y-17073668D02*
X15720646Y-17059382D01*
X15749218Y-17016525D01*
X15763503Y-16987954D01*
X15777789Y-16945097D01*
X15792075Y-16873668D01*
X15792075Y-16816525D01*
X15777789Y-16745097D01*
X15763503Y-16702239D01*
X15749218Y-16673668D01*
X15720646Y-16630811D01*
X15706360Y-16616525D01*
X9134856Y-17169630D02*
X9234932Y-17269706D01*
X9234932Y-17169630D02*
X9134856Y-17269706D01*
D12*
D13*
X9663503Y-17355382D02*
X9492075Y-17355382D01*
X9577789Y-17355382D02*
X9577789Y-17055382D01*
X9549218Y-17098240D01*
X9520646Y-17126811D01*
X9492075Y-17141097D01*
X9792075Y-17326811D02*
X9806361Y-17341097D01*
X9792075Y-17355382D01*
X9777789Y-17341097D01*
X9792075Y-17326811D01*
X9792075Y-17355382D01*
X9992075Y-17055382D02*
X10020646Y-17055382D01*
X10049218Y-17069668D01*
X10063503Y-17083954D01*
X10077789Y-17112525D01*
X10092075Y-17169668D01*
X10092075Y-17241097D01*
X10077789Y-17298240D01*
X10063503Y-17326811D01*
X10049218Y-17341097D01*
X10020646Y-17355382D01*
X9992075Y-17355382D01*
X9963503Y-17341097D01*
X9949218Y-17326811D01*
X9934932Y-17298240D01*
X9920646Y-17241097D01*
X9920646Y-17169668D01*
X9934932Y-17112525D01*
X9949218Y-17083954D01*
X9963503Y-17069668D01*
X9992075Y-17055382D01*
X10277789Y-17055382D02*
X10306361Y-17055382D01*
X10334932Y-17069668D01*
X10349218Y-17083954D01*
X10363503Y-17112525D01*
X10377789Y-17169668D01*
X10377789Y-17241097D01*
X10363503Y-17298240D01*
X10349218Y-17326811D01*
X10334932Y-17341097D01*
X10306361Y-17355382D01*
X10277789Y-17355382D01*
X10249218Y-17341097D01*
X10234932Y-17326811D01*
X10220646Y-17298240D01*
X10206361Y-17241097D01*
X10206361Y-17169668D01*
X10220646Y-17112525D01*
X10234932Y-17083954D01*
X10249218Y-17069668D01*
X10277789Y-17055382D01*
X10506361Y-17355382D02*
X10506361Y-17155382D01*
X10506361Y-17183954D02*
X10520646Y-17169668D01*
X10549218Y-17155382D01*
X10592075Y-17155382D01*
X10620646Y-17169668D01*
X10634932Y-17198240D01*
X10634932Y-17355382D01*
X10634932Y-17198240D02*
X10649218Y-17169668D01*
X10677789Y-17155382D01*
X10720646Y-17155382D01*
X10749218Y-17169668D01*
X10763503Y-17198240D01*
X10763503Y-17355382D01*
X10906361Y-17355382D02*
X10906361Y-17155382D01*
X10906361Y-17183954D02*
X10920646Y-17169668D01*
X10949218Y-17155382D01*
X10992075Y-17155382D01*
X11020646Y-17169668D01*
X11034932Y-17198240D01*
X11034932Y-17355382D01*
X11034932Y-17198240D02*
X11049218Y-17169668D01*
X11077789Y-17155382D01*
X11120646Y-17155382D01*
X11149218Y-17169668D01*
X11163503Y-17198240D01*
X11163503Y-17355382D01*
X11749218Y-17041097D02*
X11492075Y-17426811D01*
X12134932Y-17055382D02*
X12163503Y-17055382D01*
X12192075Y-17069668D01*
X12206360Y-17083954D01*
X12220646Y-17112525D01*
X12234932Y-17169668D01*
X12234932Y-17241097D01*
X12220646Y-17298240D01*
X12206360Y-17326811D01*
X12192075Y-17341097D01*
X12163503Y-17355382D01*
X12134932Y-17355382D01*
X12106360Y-17341097D01*
X12092075Y-17326811D01*
X12077789Y-17298240D01*
X12063503Y-17241097D01*
X12063503Y-17169668D01*
X12077789Y-17112525D01*
X12092075Y-17083954D01*
X12106360Y-17069668D01*
X12134932Y-17055382D01*
X12363503Y-17326811D02*
X12377789Y-17341097D01*
X12363503Y-17355382D01*
X12349218Y-17341097D01*
X12363503Y-17326811D01*
X12363503Y-17355382D01*
X12563503Y-17055382D02*
X12592075Y-17055382D01*
X12620646Y-17069668D01*
X12634932Y-17083954D01*
X12649217Y-17112525D01*
X12663503Y-17169668D01*
X12663503Y-17241097D01*
X12649217Y-17298240D01*
X12634932Y-17326811D01*
X12620646Y-17341097D01*
X12592075Y-17355382D01*
X12563503Y-17355382D01*
X12534932Y-17341097D01*
X12520646Y-17326811D01*
X12506360Y-17298240D01*
X12492075Y-17241097D01*
X12492075Y-17169668D01*
X12506360Y-17112525D01*
X12520646Y-17083954D01*
X12534932Y-17069668D01*
X12563503Y-17055382D01*
X12763503Y-17055382D02*
X12949217Y-17055382D01*
X12849217Y-17169668D01*
X12892075Y-17169668D01*
X12920646Y-17183954D01*
X12934932Y-17198240D01*
X12949217Y-17226811D01*
X12949217Y-17298240D01*
X12934932Y-17326811D01*
X12920646Y-17341097D01*
X12892075Y-17355382D01*
X12806360Y-17355382D01*
X12777789Y-17341097D01*
X12763503Y-17326811D01*
X13092075Y-17355382D02*
X13149217Y-17355382D01*
X13177789Y-17341097D01*
X13192075Y-17326811D01*
X13220646Y-17283954D01*
X13234932Y-17226811D01*
X13234932Y-17112525D01*
X13220646Y-17083954D01*
X13206360Y-17069668D01*
X13177789Y-17055382D01*
X13120646Y-17055382D01*
X13092075Y-17069668D01*
X13077789Y-17083954D01*
X13063503Y-17112525D01*
X13063503Y-17183954D01*
X13077789Y-17212525D01*
X13092075Y-17226811D01*
X13120646Y-17241097D01*
X13177789Y-17241097D01*
X13206360Y-17226811D01*
X13220646Y-17212525D01*
X13234932Y-17183954D01*
X13349218Y-17055382D02*
X13349218Y-17112525D01*
X13463503Y-17055382D02*
X13463503Y-17112525D01*
X13906360Y-17469668D02*
X13892075Y-17455382D01*
X13863503Y-17412525D01*
X13849217Y-17383954D01*
X13834932Y-17341097D01*
X13820646Y-17269668D01*
X13820646Y-17212525D01*
X13834932Y-17141097D01*
X13849217Y-17098240D01*
X13863503Y-17069668D01*
X13892075Y-17026811D01*
X13906360Y-17012525D01*
X14149217Y-17055382D02*
X14092075Y-17055382D01*
X14063503Y-17069668D01*
X14049217Y-17083954D01*
X14020646Y-17126811D01*
X14006360Y-17183954D01*
X14006360Y-17298240D01*
X14020646Y-17326811D01*
X14034932Y-17341097D01*
X14063503Y-17355382D01*
X14120646Y-17355382D01*
X14149217Y-17341097D01*
X14163503Y-17326811D01*
X14177789Y-17298240D01*
X14177789Y-17226811D01*
X14163503Y-17198240D01*
X14149217Y-17183954D01*
X14120646Y-17169668D01*
X14063503Y-17169668D01*
X14034932Y-17183954D01*
X14020646Y-17198240D01*
X14006360Y-17226811D01*
X14320646Y-17355382D02*
X14377789Y-17355382D01*
X14406360Y-17341097D01*
X14420646Y-17326811D01*
X14449217Y-17283954D01*
X14463503Y-17226811D01*
X14463503Y-17112525D01*
X14449217Y-17083954D01*
X14434932Y-17069668D01*
X14406360Y-17055382D01*
X14349217Y-17055382D01*
X14320646Y-17069668D01*
X14306360Y-17083954D01*
X14292075Y-17112525D01*
X14292075Y-17183954D01*
X14306360Y-17212525D01*
X14320646Y-17226811D01*
X14349217Y-17241097D01*
X14406360Y-17241097D01*
X14434932Y-17226811D01*
X14449217Y-17212525D01*
X14463503Y-17183954D01*
X14820646Y-17355382D02*
X14820646Y-17055382D01*
X14949217Y-17355382D02*
X14949217Y-17198240D01*
X14934932Y-17169668D01*
X14906360Y-17155382D01*
X14863503Y-17155382D01*
X14834932Y-17169668D01*
X14820646Y-17183954D01*
X15134932Y-17355382D02*
X15106360Y-17341097D01*
X15092075Y-17326811D01*
X15077789Y-17298240D01*
X15077789Y-17212525D01*
X15092075Y-17183954D01*
X15106360Y-17169668D01*
X15134932Y-17155382D01*
X15177789Y-17155382D01*
X15206360Y-17169668D01*
X15220646Y-17183954D01*
X15234932Y-17212525D01*
X15234932Y-17298240D01*
X15220646Y-17326811D01*
X15206360Y-17341097D01*
X15177789Y-17355382D01*
X15134932Y-17355382D01*
X15406360Y-17355382D02*
X15377789Y-17341097D01*
X15363503Y-17312525D01*
X15363503Y-17055382D01*
X15634932Y-17341097D02*
X15606360Y-17355382D01*
X15549218Y-17355382D01*
X15520646Y-17341097D01*
X15506360Y-17312525D01*
X15506360Y-17198240D01*
X15520646Y-17169668D01*
X15549218Y-17155382D01*
X15606360Y-17155382D01*
X15634932Y-17169668D01*
X15649218Y-17198240D01*
X15649218Y-17226811D01*
X15506360Y-17255382D01*
X15763503Y-17341097D02*
X15792075Y-17355382D01*
X15849218Y-17355382D01*
X15877789Y-17341097D01*
X15892075Y-17312525D01*
X15892075Y-17298240D01*
X15877789Y-17269668D01*
X15849218Y-17255382D01*
X15806360Y-17255382D01*
X15777789Y-17241097D01*
X15763503Y-17212525D01*
X15763503Y-17198240D01*
X15777789Y-17169668D01*
X15806360Y-17155382D01*
X15849218Y-17155382D01*
X15877789Y-17169668D01*
X15992075Y-17469668D02*
X16006360Y-17455382D01*
X16034932Y-17412525D01*
X16049218Y-17383954D01*
X16063503Y-17341097D01*
X16077789Y-17269668D01*
X16077789Y-17212525D01*
X16063503Y-17141097D01*
X16049218Y-17098240D01*
X16034932Y-17069668D01*
X16006360Y-17026811D01*
X15992075Y-17012525D01*
X9184132Y-17564868D02*
X9184132Y-17666468D01*
X9133332Y-17615668D02*
X9234932Y-17615668D01*
D12*
X9234932Y-17615668D02*
G75*
G03X9234932Y-17615668I-50800J0D01*
G74*
G01*
D13*
X9663503Y-17751382D02*
X9492075Y-17751382D01*
X9577789Y-17751382D02*
X9577789Y-17451382D01*
X9549218Y-17494240D01*
X9520646Y-17522811D01*
X9492075Y-17537097D01*
X9792075Y-17722811D02*
X9806361Y-17737097D01*
X9792075Y-17751382D01*
X9777789Y-17737097D01*
X9792075Y-17722811D01*
X9792075Y-17751382D01*
X9992075Y-17451382D02*
X10020646Y-17451382D01*
X10049218Y-17465668D01*
X10063503Y-17479954D01*
X10077789Y-17508525D01*
X10092075Y-17565668D01*
X10092075Y-17637097D01*
X10077789Y-17694240D01*
X10063503Y-17722811D01*
X10049218Y-17737097D01*
X10020646Y-17751382D01*
X9992075Y-17751382D01*
X9963503Y-17737097D01*
X9949218Y-17722811D01*
X9934932Y-17694240D01*
X9920646Y-17637097D01*
X9920646Y-17565668D01*
X9934932Y-17508525D01*
X9949218Y-17479954D01*
X9963503Y-17465668D01*
X9992075Y-17451382D01*
X10206361Y-17479954D02*
X10220646Y-17465668D01*
X10249218Y-17451382D01*
X10320646Y-17451382D01*
X10349218Y-17465668D01*
X10363503Y-17479954D01*
X10377789Y-17508525D01*
X10377789Y-17537097D01*
X10363503Y-17579954D01*
X10192075Y-17751382D01*
X10377789Y-17751382D01*
X10506361Y-17751382D02*
X10506361Y-17551382D01*
X10506361Y-17579954D02*
X10520646Y-17565668D01*
X10549218Y-17551382D01*
X10592075Y-17551382D01*
X10620646Y-17565668D01*
X10634932Y-17594240D01*
X10634932Y-17751382D01*
X10634932Y-17594240D02*
X10649218Y-17565668D01*
X10677789Y-17551382D01*
X10720646Y-17551382D01*
X10749218Y-17565668D01*
X10763503Y-17594240D01*
X10763503Y-17751382D01*
X10906361Y-17751382D02*
X10906361Y-17551382D01*
X10906361Y-17579954D02*
X10920646Y-17565668D01*
X10949218Y-17551382D01*
X10992075Y-17551382D01*
X11020646Y-17565668D01*
X11034932Y-17594240D01*
X11034932Y-17751382D01*
X11034932Y-17594240D02*
X11049218Y-17565668D01*
X11077789Y-17551382D01*
X11120646Y-17551382D01*
X11149218Y-17565668D01*
X11163503Y-17594240D01*
X11163503Y-17751382D01*
X11749218Y-17437097D02*
X11492075Y-17822811D01*
X12134932Y-17451382D02*
X12163503Y-17451382D01*
X12192075Y-17465668D01*
X12206360Y-17479954D01*
X12220646Y-17508525D01*
X12234932Y-17565668D01*
X12234932Y-17637097D01*
X12220646Y-17694240D01*
X12206360Y-17722811D01*
X12192075Y-17737097D01*
X12163503Y-17751382D01*
X12134932Y-17751382D01*
X12106360Y-17737097D01*
X12092075Y-17722811D01*
X12077789Y-17694240D01*
X12063503Y-17637097D01*
X12063503Y-17565668D01*
X12077789Y-17508525D01*
X12092075Y-17479954D01*
X12106360Y-17465668D01*
X12134932Y-17451382D01*
X12363503Y-17722811D02*
X12377789Y-17737097D01*
X12363503Y-17751382D01*
X12349218Y-17737097D01*
X12363503Y-17722811D01*
X12363503Y-17751382D01*
X12563503Y-17451382D02*
X12592075Y-17451382D01*
X12620646Y-17465668D01*
X12634932Y-17479954D01*
X12649217Y-17508525D01*
X12663503Y-17565668D01*
X12663503Y-17637097D01*
X12649217Y-17694240D01*
X12634932Y-17722811D01*
X12620646Y-17737097D01*
X12592075Y-17751382D01*
X12563503Y-17751382D01*
X12534932Y-17737097D01*
X12520646Y-17722811D01*
X12506360Y-17694240D01*
X12492075Y-17637097D01*
X12492075Y-17565668D01*
X12506360Y-17508525D01*
X12520646Y-17479954D01*
X12534932Y-17465668D01*
X12563503Y-17451382D01*
X12920646Y-17551382D02*
X12920646Y-17751382D01*
X12849217Y-17437097D02*
X12777789Y-17651382D01*
X12963503Y-17651382D01*
X13134932Y-17451382D02*
X13163503Y-17451382D01*
X13192075Y-17465668D01*
X13206360Y-17479954D01*
X13220646Y-17508525D01*
X13234932Y-17565668D01*
X13234932Y-17637097D01*
X13220646Y-17694240D01*
X13206360Y-17722811D01*
X13192075Y-17737097D01*
X13163503Y-17751382D01*
X13134932Y-17751382D01*
X13106360Y-17737097D01*
X13092075Y-17722811D01*
X13077789Y-17694240D01*
X13063503Y-17637097D01*
X13063503Y-17565668D01*
X13077789Y-17508525D01*
X13092075Y-17479954D01*
X13106360Y-17465668D01*
X13134932Y-17451382D01*
X13349218Y-17451382D02*
X13349218Y-17508525D01*
X13463503Y-17451382D02*
X13463503Y-17508525D01*
X13906360Y-17865668D02*
X13892075Y-17851382D01*
X13863503Y-17808525D01*
X13849217Y-17779954D01*
X13834932Y-17737097D01*
X13820646Y-17665668D01*
X13820646Y-17608525D01*
X13834932Y-17537097D01*
X13849217Y-17494240D01*
X13863503Y-17465668D01*
X13892075Y-17422811D01*
X13906360Y-17408525D01*
X13992075Y-17451382D02*
X14192075Y-17451382D01*
X14063503Y-17751382D01*
X14534932Y-17751382D02*
X14534932Y-17451382D01*
X14663503Y-17751382D02*
X14663503Y-17594240D01*
X14649217Y-17565668D01*
X14620646Y-17551382D01*
X14577789Y-17551382D01*
X14549217Y-17565668D01*
X14534932Y-17579954D01*
X14849217Y-17751382D02*
X14820646Y-17737097D01*
X14806360Y-17722811D01*
X14792075Y-17694240D01*
X14792075Y-17608525D01*
X14806360Y-17579954D01*
X14820646Y-17565668D01*
X14849217Y-17551382D01*
X14892075Y-17551382D01*
X14920646Y-17565668D01*
X14934932Y-17579954D01*
X14949217Y-17608525D01*
X14949217Y-17694240D01*
X14934932Y-17722811D01*
X14920646Y-17737097D01*
X14892075Y-17751382D01*
X14849217Y-17751382D01*
X15120646Y-17751382D02*
X15092075Y-17737097D01*
X15077789Y-17708525D01*
X15077789Y-17451382D01*
X15349218Y-17737097D02*
X15320646Y-17751382D01*
X15263503Y-17751382D01*
X15234932Y-17737097D01*
X15220646Y-17708525D01*
X15220646Y-17594240D01*
X15234932Y-17565668D01*
X15263503Y-17551382D01*
X15320646Y-17551382D01*
X15349218Y-17565668D01*
X15363503Y-17594240D01*
X15363503Y-17622811D01*
X15220646Y-17651382D01*
X15477789Y-17737097D02*
X15506360Y-17751382D01*
X15563503Y-17751382D01*
X15592075Y-17737097D01*
X15606360Y-17708525D01*
X15606360Y-17694240D01*
X15592075Y-17665668D01*
X15563503Y-17651382D01*
X15520646Y-17651382D01*
X15492075Y-17637097D01*
X15477789Y-17608525D01*
X15477789Y-17594240D01*
X15492075Y-17565668D01*
X15520646Y-17551382D01*
X15563503Y-17551382D01*
X15592075Y-17565668D01*
X15706360Y-17865668D02*
X15720646Y-17851382D01*
X15749218Y-17808525D01*
X15763503Y-17779954D01*
X15777789Y-17737097D01*
X15792075Y-17665668D01*
X15792075Y-17608525D01*
X15777789Y-17537097D01*
X15763503Y-17494240D01*
X15749218Y-17465668D01*
X15720646Y-17422811D01*
X15706360Y-17408525D01*
D12*
X9234932Y-18011668D02*
G75*
G03X9234932Y-18011668I-80000J0D01*
G74*
G01*
D13*
X9663503Y-18147382D02*
X9492075Y-18147382D01*
X9577789Y-18147382D02*
X9577789Y-17847382D01*
X9549218Y-17890240D01*
X9520646Y-17918811D01*
X9492075Y-17933097D01*
X9792075Y-18118811D02*
X9806361Y-18133097D01*
X9792075Y-18147382D01*
X9777789Y-18133097D01*
X9792075Y-18118811D01*
X9792075Y-18147382D01*
X10063503Y-17847382D02*
X10006360Y-17847382D01*
X9977789Y-17861668D01*
X9963503Y-17875954D01*
X9934932Y-17918811D01*
X9920646Y-17975954D01*
X9920646Y-18090240D01*
X9934932Y-18118811D01*
X9949218Y-18133097D01*
X9977789Y-18147382D01*
X10034932Y-18147382D01*
X10063503Y-18133097D01*
X10077789Y-18118811D01*
X10092075Y-18090240D01*
X10092075Y-18018811D01*
X10077789Y-17990240D01*
X10063503Y-17975954D01*
X10034932Y-17961668D01*
X9977789Y-17961668D01*
X9949218Y-17975954D01*
X9934932Y-17990240D01*
X9920646Y-18018811D01*
X10277789Y-17847382D02*
X10306361Y-17847382D01*
X10334932Y-17861668D01*
X10349218Y-17875954D01*
X10363503Y-17904525D01*
X10377789Y-17961668D01*
X10377789Y-18033097D01*
X10363503Y-18090240D01*
X10349218Y-18118811D01*
X10334932Y-18133097D01*
X10306361Y-18147382D01*
X10277789Y-18147382D01*
X10249218Y-18133097D01*
X10234932Y-18118811D01*
X10220646Y-18090240D01*
X10206361Y-18033097D01*
X10206361Y-17961668D01*
X10220646Y-17904525D01*
X10234932Y-17875954D01*
X10249218Y-17861668D01*
X10277789Y-17847382D01*
X10506361Y-18147382D02*
X10506361Y-17947382D01*
X10506361Y-17975954D02*
X10520646Y-17961668D01*
X10549218Y-17947382D01*
X10592075Y-17947382D01*
X10620646Y-17961668D01*
X10634932Y-17990240D01*
X10634932Y-18147382D01*
X10634932Y-17990240D02*
X10649218Y-17961668D01*
X10677789Y-17947382D01*
X10720646Y-17947382D01*
X10749218Y-17961668D01*
X10763503Y-17990240D01*
X10763503Y-18147382D01*
X10906361Y-18147382D02*
X10906361Y-17947382D01*
X10906361Y-17975954D02*
X10920646Y-17961668D01*
X10949218Y-17947382D01*
X10992075Y-17947382D01*
X11020646Y-17961668D01*
X11034932Y-17990240D01*
X11034932Y-18147382D01*
X11034932Y-17990240D02*
X11049218Y-17961668D01*
X11077789Y-17947382D01*
X11120646Y-17947382D01*
X11149218Y-17961668D01*
X11163503Y-17990240D01*
X11163503Y-18147382D01*
X11749218Y-17833097D02*
X11492075Y-18218811D01*
X12134932Y-17847382D02*
X12163503Y-17847382D01*
X12192075Y-17861668D01*
X12206360Y-17875954D01*
X12220646Y-17904525D01*
X12234932Y-17961668D01*
X12234932Y-18033097D01*
X12220646Y-18090240D01*
X12206360Y-18118811D01*
X12192075Y-18133097D01*
X12163503Y-18147382D01*
X12134932Y-18147382D01*
X12106360Y-18133097D01*
X12092075Y-18118811D01*
X12077789Y-18090240D01*
X12063503Y-18033097D01*
X12063503Y-17961668D01*
X12077789Y-17904525D01*
X12092075Y-17875954D01*
X12106360Y-17861668D01*
X12134932Y-17847382D01*
X12363503Y-18118811D02*
X12377789Y-18133097D01*
X12363503Y-18147382D01*
X12349218Y-18133097D01*
X12363503Y-18118811D01*
X12363503Y-18147382D01*
X12563503Y-17847382D02*
X12592075Y-17847382D01*
X12620646Y-17861668D01*
X12634932Y-17875954D01*
X12649217Y-17904525D01*
X12663503Y-17961668D01*
X12663503Y-18033097D01*
X12649217Y-18090240D01*
X12634932Y-18118811D01*
X12620646Y-18133097D01*
X12592075Y-18147382D01*
X12563503Y-18147382D01*
X12534932Y-18133097D01*
X12520646Y-18118811D01*
X12506360Y-18090240D01*
X12492075Y-18033097D01*
X12492075Y-17961668D01*
X12506360Y-17904525D01*
X12520646Y-17875954D01*
X12534932Y-17861668D01*
X12563503Y-17847382D01*
X12920646Y-17847382D02*
X12863503Y-17847382D01*
X12834932Y-17861668D01*
X12820646Y-17875954D01*
X12792075Y-17918811D01*
X12777789Y-17975954D01*
X12777789Y-18090240D01*
X12792075Y-18118811D01*
X12806360Y-18133097D01*
X12834932Y-18147382D01*
X12892075Y-18147382D01*
X12920646Y-18133097D01*
X12934932Y-18118811D01*
X12949217Y-18090240D01*
X12949217Y-18018811D01*
X12934932Y-17990240D01*
X12920646Y-17975954D01*
X12892075Y-17961668D01*
X12834932Y-17961668D01*
X12806360Y-17975954D01*
X12792075Y-17990240D01*
X12777789Y-18018811D01*
X13049217Y-17847382D02*
X13234932Y-17847382D01*
X13134932Y-17961668D01*
X13177789Y-17961668D01*
X13206360Y-17975954D01*
X13220646Y-17990240D01*
X13234932Y-18018811D01*
X13234932Y-18090240D01*
X13220646Y-18118811D01*
X13206360Y-18133097D01*
X13177789Y-18147382D01*
X13092075Y-18147382D01*
X13063503Y-18133097D01*
X13049217Y-18118811D01*
X13349218Y-17847382D02*
X13349218Y-17904525D01*
X13463503Y-17847382D02*
X13463503Y-17904525D01*
X13906360Y-18261668D02*
X13892075Y-18247382D01*
X13863503Y-18204525D01*
X13849217Y-18175954D01*
X13834932Y-18133097D01*
X13820646Y-18061668D01*
X13820646Y-18004525D01*
X13834932Y-17933097D01*
X13849217Y-17890240D01*
X13863503Y-17861668D01*
X13892075Y-17818811D01*
X13906360Y-17804525D01*
X14006360Y-17875954D02*
X14020646Y-17861668D01*
X14049217Y-17847382D01*
X14120646Y-17847382D01*
X14149217Y-17861668D01*
X14163503Y-17875954D01*
X14177789Y-17904525D01*
X14177789Y-17933097D01*
X14163503Y-17975954D01*
X13992075Y-18147382D01*
X14177789Y-18147382D01*
X14534932Y-18147382D02*
X14534932Y-17847382D01*
X14663503Y-18147382D02*
X14663503Y-17990240D01*
X14649217Y-17961668D01*
X14620646Y-17947382D01*
X14577789Y-17947382D01*
X14549217Y-17961668D01*
X14534932Y-17975954D01*
X14849217Y-18147382D02*
X14820646Y-18133097D01*
X14806360Y-18118811D01*
X14792075Y-18090240D01*
X14792075Y-18004525D01*
X14806360Y-17975954D01*
X14820646Y-17961668D01*
X14849217Y-17947382D01*
X14892075Y-17947382D01*
X14920646Y-17961668D01*
X14934932Y-17975954D01*
X14949217Y-18004525D01*
X14949217Y-18090240D01*
X14934932Y-18118811D01*
X14920646Y-18133097D01*
X14892075Y-18147382D01*
X14849217Y-18147382D01*
X15120646Y-18147382D02*
X15092075Y-18133097D01*
X15077789Y-18104525D01*
X15077789Y-17847382D01*
X15349218Y-18133097D02*
X15320646Y-18147382D01*
X15263503Y-18147382D01*
X15234932Y-18133097D01*
X15220646Y-18104525D01*
X15220646Y-17990240D01*
X15234932Y-17961668D01*
X15263503Y-17947382D01*
X15320646Y-17947382D01*
X15349218Y-17961668D01*
X15363503Y-17990240D01*
X15363503Y-18018811D01*
X15220646Y-18047382D01*
X15477789Y-18133097D02*
X15506360Y-18147382D01*
X15563503Y-18147382D01*
X15592075Y-18133097D01*
X15606360Y-18104525D01*
X15606360Y-18090240D01*
X15592075Y-18061668D01*
X15563503Y-18047382D01*
X15520646Y-18047382D01*
X15492075Y-18033097D01*
X15477789Y-18004525D01*
X15477789Y-17990240D01*
X15492075Y-17961668D01*
X15520646Y-17947382D01*
X15563503Y-17947382D01*
X15592075Y-17961668D01*
X15706360Y-18261668D02*
X15720646Y-18247382D01*
X15749218Y-18204525D01*
X15763503Y-18175954D01*
X15777789Y-18133097D01*
X15792075Y-18061668D01*
X15792075Y-18004525D01*
X15777789Y-17933097D01*
X15763503Y-17890240D01*
X15749218Y-17861668D01*
X15720646Y-17818811D01*
X15706360Y-17804525D01*
D12*
X9234932Y-18407668D02*
G75*
G03X9234932Y-18407668I-100000J0D01*
G74*
G01*
D13*
X9492075Y-18271954D02*
X9506361Y-18257668D01*
X9534932Y-18243382D01*
X9606361Y-18243382D01*
X9634932Y-18257668D01*
X9649218Y-18271954D01*
X9663503Y-18300525D01*
X9663503Y-18329097D01*
X9649218Y-18371954D01*
X9477789Y-18543382D01*
X9663503Y-18543382D01*
X9792075Y-18514811D02*
X9806361Y-18529097D01*
X9792075Y-18543382D01*
X9777789Y-18529097D01*
X9792075Y-18514811D01*
X9792075Y-18543382D01*
X9992075Y-18243382D02*
X10020646Y-18243382D01*
X10049218Y-18257668D01*
X10063503Y-18271954D01*
X10077789Y-18300525D01*
X10092075Y-18357668D01*
X10092075Y-18429097D01*
X10077789Y-18486240D01*
X10063503Y-18514811D01*
X10049218Y-18529097D01*
X10020646Y-18543382D01*
X9992075Y-18543382D01*
X9963503Y-18529097D01*
X9949218Y-18514811D01*
X9934932Y-18486240D01*
X9920646Y-18429097D01*
X9920646Y-18357668D01*
X9934932Y-18300525D01*
X9949218Y-18271954D01*
X9963503Y-18257668D01*
X9992075Y-18243382D01*
X10277789Y-18243382D02*
X10306361Y-18243382D01*
X10334932Y-18257668D01*
X10349218Y-18271954D01*
X10363503Y-18300525D01*
X10377789Y-18357668D01*
X10377789Y-18429097D01*
X10363503Y-18486240D01*
X10349218Y-18514811D01*
X10334932Y-18529097D01*
X10306361Y-18543382D01*
X10277789Y-18543382D01*
X10249218Y-18529097D01*
X10234932Y-18514811D01*
X10220646Y-18486240D01*
X10206361Y-18429097D01*
X10206361Y-18357668D01*
X10220646Y-18300525D01*
X10234932Y-18271954D01*
X10249218Y-18257668D01*
X10277789Y-18243382D01*
X10506361Y-18543382D02*
X10506361Y-18343382D01*
X10506361Y-18371954D02*
X10520646Y-18357668D01*
X10549218Y-18343382D01*
X10592075Y-18343382D01*
X10620646Y-18357668D01*
X10634932Y-18386240D01*
X10634932Y-18543382D01*
X10634932Y-18386240D02*
X10649218Y-18357668D01*
X10677789Y-18343382D01*
X10720646Y-18343382D01*
X10749218Y-18357668D01*
X10763503Y-18386240D01*
X10763503Y-18543382D01*
X10906361Y-18543382D02*
X10906361Y-18343382D01*
X10906361Y-18371954D02*
X10920646Y-18357668D01*
X10949218Y-18343382D01*
X10992075Y-18343382D01*
X11020646Y-18357668D01*
X11034932Y-18386240D01*
X11034932Y-18543382D01*
X11034932Y-18386240D02*
X11049218Y-18357668D01*
X11077789Y-18343382D01*
X11120646Y-18343382D01*
X11149218Y-18357668D01*
X11163503Y-18386240D01*
X11163503Y-18543382D01*
X11749218Y-18229097D02*
X11492075Y-18614811D01*
X12134932Y-18243382D02*
X12163503Y-18243382D01*
X12192075Y-18257668D01*
X12206360Y-18271954D01*
X12220646Y-18300525D01*
X12234932Y-18357668D01*
X12234932Y-18429097D01*
X12220646Y-18486240D01*
X12206360Y-18514811D01*
X12192075Y-18529097D01*
X12163503Y-18543382D01*
X12134932Y-18543382D01*
X12106360Y-18529097D01*
X12092075Y-18514811D01*
X12077789Y-18486240D01*
X12063503Y-18429097D01*
X12063503Y-18357668D01*
X12077789Y-18300525D01*
X12092075Y-18271954D01*
X12106360Y-18257668D01*
X12134932Y-18243382D01*
X12363503Y-18514811D02*
X12377789Y-18529097D01*
X12363503Y-18543382D01*
X12349218Y-18529097D01*
X12363503Y-18514811D01*
X12363503Y-18543382D01*
X12563503Y-18243382D02*
X12592075Y-18243382D01*
X12620646Y-18257668D01*
X12634932Y-18271954D01*
X12649217Y-18300525D01*
X12663503Y-18357668D01*
X12663503Y-18429097D01*
X12649217Y-18486240D01*
X12634932Y-18514811D01*
X12620646Y-18529097D01*
X12592075Y-18543382D01*
X12563503Y-18543382D01*
X12534932Y-18529097D01*
X12520646Y-18514811D01*
X12506360Y-18486240D01*
X12492075Y-18429097D01*
X12492075Y-18357668D01*
X12506360Y-18300525D01*
X12520646Y-18271954D01*
X12534932Y-18257668D01*
X12563503Y-18243382D01*
X12763503Y-18243382D02*
X12963503Y-18243382D01*
X12834932Y-18543382D01*
X13092075Y-18543382D02*
X13149217Y-18543382D01*
X13177789Y-18529097D01*
X13192075Y-18514811D01*
X13220646Y-18471954D01*
X13234932Y-18414811D01*
X13234932Y-18300525D01*
X13220646Y-18271954D01*
X13206360Y-18257668D01*
X13177789Y-18243382D01*
X13120646Y-18243382D01*
X13092075Y-18257668D01*
X13077789Y-18271954D01*
X13063503Y-18300525D01*
X13063503Y-18371954D01*
X13077789Y-18400525D01*
X13092075Y-18414811D01*
X13120646Y-18429097D01*
X13177789Y-18429097D01*
X13206360Y-18414811D01*
X13220646Y-18400525D01*
X13234932Y-18371954D01*
X13349218Y-18243382D02*
X13349218Y-18300525D01*
X13463503Y-18243382D02*
X13463503Y-18300525D01*
X13906360Y-18657668D02*
X13892075Y-18643382D01*
X13863503Y-18600525D01*
X13849217Y-18571954D01*
X13834932Y-18529097D01*
X13820646Y-18457668D01*
X13820646Y-18400525D01*
X13834932Y-18329097D01*
X13849217Y-18286240D01*
X13863503Y-18257668D01*
X13892075Y-18214811D01*
X13906360Y-18200525D01*
X14006360Y-18271954D02*
X14020646Y-18257668D01*
X14049217Y-18243382D01*
X14120646Y-18243382D01*
X14149217Y-18257668D01*
X14163503Y-18271954D01*
X14177789Y-18300525D01*
X14177789Y-18329097D01*
X14163503Y-18371954D01*
X13992075Y-18543382D01*
X14177789Y-18543382D01*
X14534932Y-18543382D02*
X14534932Y-18243382D01*
X14663503Y-18543382D02*
X14663503Y-18386240D01*
X14649217Y-18357668D01*
X14620646Y-18343382D01*
X14577789Y-18343382D01*
X14549217Y-18357668D01*
X14534932Y-18371954D01*
X14849217Y-18543382D02*
X14820646Y-18529097D01*
X14806360Y-18514811D01*
X14792075Y-18486240D01*
X14792075Y-18400525D01*
X14806360Y-18371954D01*
X14820646Y-18357668D01*
X14849217Y-18343382D01*
X14892075Y-18343382D01*
X14920646Y-18357668D01*
X14934932Y-18371954D01*
X14949217Y-18400525D01*
X14949217Y-18486240D01*
X14934932Y-18514811D01*
X14920646Y-18529097D01*
X14892075Y-18543382D01*
X14849217Y-18543382D01*
X15120646Y-18543382D02*
X15092075Y-18529097D01*
X15077789Y-18500525D01*
X15077789Y-18243382D01*
X15349218Y-18529097D02*
X15320646Y-18543382D01*
X15263503Y-18543382D01*
X15234932Y-18529097D01*
X15220646Y-18500525D01*
X15220646Y-18386240D01*
X15234932Y-18357668D01*
X15263503Y-18343382D01*
X15320646Y-18343382D01*
X15349218Y-18357668D01*
X15363503Y-18386240D01*
X15363503Y-18414811D01*
X15220646Y-18443382D01*
X15477789Y-18529097D02*
X15506360Y-18543382D01*
X15563503Y-18543382D01*
X15592075Y-18529097D01*
X15606360Y-18500525D01*
X15606360Y-18486240D01*
X15592075Y-18457668D01*
X15563503Y-18443382D01*
X15520646Y-18443382D01*
X15492075Y-18429097D01*
X15477789Y-18400525D01*
X15477789Y-18386240D01*
X15492075Y-18357668D01*
X15520646Y-18343382D01*
X15563503Y-18343382D01*
X15592075Y-18357668D01*
X15706360Y-18657668D02*
X15720646Y-18643382D01*
X15749218Y-18600525D01*
X15763503Y-18571954D01*
X15777789Y-18529097D01*
X15792075Y-18457668D01*
X15792075Y-18400525D01*
X15777789Y-18329097D01*
X15763503Y-18286240D01*
X15749218Y-18257668D01*
X15720646Y-18214811D01*
X15706360Y-18200525D01*
X9074912Y-18643648D02*
X9074912Y-18963688D01*
X8914892Y-18803668D02*
X9234932Y-18803668D01*
D12*
D13*
X9477789Y-18639382D02*
X9663503Y-18639382D01*
X9563503Y-18753668D01*
X9606361Y-18753668D01*
X9634932Y-18767954D01*
X9649218Y-18782240D01*
X9663503Y-18810811D01*
X9663503Y-18882240D01*
X9649218Y-18910811D01*
X9634932Y-18925097D01*
X9606361Y-18939382D01*
X9520646Y-18939382D01*
X9492075Y-18925097D01*
X9477789Y-18910811D01*
X9792075Y-18910811D02*
X9806361Y-18925097D01*
X9792075Y-18939382D01*
X9777789Y-18925097D01*
X9792075Y-18910811D01*
X9792075Y-18939382D01*
X9920646Y-18667954D02*
X9934932Y-18653668D01*
X9963503Y-18639382D01*
X10034932Y-18639382D01*
X10063503Y-18653668D01*
X10077789Y-18667954D01*
X10092075Y-18696525D01*
X10092075Y-18725097D01*
X10077789Y-18767954D01*
X9906360Y-18939382D01*
X10092075Y-18939382D01*
X10277789Y-18639382D02*
X10306361Y-18639382D01*
X10334932Y-18653668D01*
X10349218Y-18667954D01*
X10363503Y-18696525D01*
X10377789Y-18753668D01*
X10377789Y-18825097D01*
X10363503Y-18882240D01*
X10349218Y-18910811D01*
X10334932Y-18925097D01*
X10306361Y-18939382D01*
X10277789Y-18939382D01*
X10249218Y-18925097D01*
X10234932Y-18910811D01*
X10220646Y-18882240D01*
X10206361Y-18825097D01*
X10206361Y-18753668D01*
X10220646Y-18696525D01*
X10234932Y-18667954D01*
X10249218Y-18653668D01*
X10277789Y-18639382D01*
X10506361Y-18939382D02*
X10506361Y-18739382D01*
X10506361Y-18767954D02*
X10520646Y-18753668D01*
X10549218Y-18739382D01*
X10592075Y-18739382D01*
X10620646Y-18753668D01*
X10634932Y-18782240D01*
X10634932Y-18939382D01*
X10634932Y-18782240D02*
X10649218Y-18753668D01*
X10677789Y-18739382D01*
X10720646Y-18739382D01*
X10749218Y-18753668D01*
X10763503Y-18782240D01*
X10763503Y-18939382D01*
X10906361Y-18939382D02*
X10906361Y-18739382D01*
X10906361Y-18767954D02*
X10920646Y-18753668D01*
X10949218Y-18739382D01*
X10992075Y-18739382D01*
X11020646Y-18753668D01*
X11034932Y-18782240D01*
X11034932Y-18939382D01*
X11034932Y-18782240D02*
X11049218Y-18753668D01*
X11077789Y-18739382D01*
X11120646Y-18739382D01*
X11149218Y-18753668D01*
X11163503Y-18782240D01*
X11163503Y-18939382D01*
X11749218Y-18625097D02*
X11492075Y-19010811D01*
X12134932Y-18639382D02*
X12163503Y-18639382D01*
X12192075Y-18653668D01*
X12206360Y-18667954D01*
X12220646Y-18696525D01*
X12234932Y-18753668D01*
X12234932Y-18825097D01*
X12220646Y-18882240D01*
X12206360Y-18910811D01*
X12192075Y-18925097D01*
X12163503Y-18939382D01*
X12134932Y-18939382D01*
X12106360Y-18925097D01*
X12092075Y-18910811D01*
X12077789Y-18882240D01*
X12063503Y-18825097D01*
X12063503Y-18753668D01*
X12077789Y-18696525D01*
X12092075Y-18667954D01*
X12106360Y-18653668D01*
X12134932Y-18639382D01*
X12363503Y-18910811D02*
X12377789Y-18925097D01*
X12363503Y-18939382D01*
X12349218Y-18925097D01*
X12363503Y-18910811D01*
X12363503Y-18939382D01*
X12663503Y-18939382D02*
X12492075Y-18939382D01*
X12577789Y-18939382D02*
X12577789Y-18639382D01*
X12549217Y-18682240D01*
X12520646Y-18710811D01*
X12492075Y-18725097D01*
X12777789Y-18667954D02*
X12792075Y-18653668D01*
X12820646Y-18639382D01*
X12892075Y-18639382D01*
X12920646Y-18653668D01*
X12934932Y-18667954D01*
X12949217Y-18696525D01*
X12949217Y-18725097D01*
X12934932Y-18767954D01*
X12763503Y-18939382D01*
X12949217Y-18939382D01*
X13206360Y-18639382D02*
X13149217Y-18639382D01*
X13120646Y-18653668D01*
X13106360Y-18667954D01*
X13077789Y-18710811D01*
X13063503Y-18767954D01*
X13063503Y-18882240D01*
X13077789Y-18910811D01*
X13092075Y-18925097D01*
X13120646Y-18939382D01*
X13177789Y-18939382D01*
X13206360Y-18925097D01*
X13220646Y-18910811D01*
X13234932Y-18882240D01*
X13234932Y-18810811D01*
X13220646Y-18782240D01*
X13206360Y-18767954D01*
X13177789Y-18753668D01*
X13120646Y-18753668D01*
X13092075Y-18767954D01*
X13077789Y-18782240D01*
X13063503Y-18810811D01*
X13349218Y-18639382D02*
X13349218Y-18696525D01*
X13463503Y-18639382D02*
X13463503Y-18696525D01*
X13906360Y-19053668D02*
X13892075Y-19039382D01*
X13863503Y-18996525D01*
X13849217Y-18967954D01*
X13834932Y-18925097D01*
X13820646Y-18853668D01*
X13820646Y-18796525D01*
X13834932Y-18725097D01*
X13849217Y-18682240D01*
X13863503Y-18653668D01*
X13892075Y-18610811D01*
X13906360Y-18596525D01*
X14006360Y-18667954D02*
X14020646Y-18653668D01*
X14049217Y-18639382D01*
X14120646Y-18639382D01*
X14149217Y-18653668D01*
X14163503Y-18667954D01*
X14177789Y-18696525D01*
X14177789Y-18725097D01*
X14163503Y-18767954D01*
X13992075Y-18939382D01*
X14177789Y-18939382D01*
X14534932Y-18939382D02*
X14534932Y-18639382D01*
X14663503Y-18939382D02*
X14663503Y-18782240D01*
X14649217Y-18753668D01*
X14620646Y-18739382D01*
X14577789Y-18739382D01*
X14549217Y-18753668D01*
X14534932Y-18767954D01*
X14849217Y-18939382D02*
X14820646Y-18925097D01*
X14806360Y-18910811D01*
X14792075Y-18882240D01*
X14792075Y-18796525D01*
X14806360Y-18767954D01*
X14820646Y-18753668D01*
X14849217Y-18739382D01*
X14892075Y-18739382D01*
X14920646Y-18753668D01*
X14934932Y-18767954D01*
X14949217Y-18796525D01*
X14949217Y-18882240D01*
X14934932Y-18910811D01*
X14920646Y-18925097D01*
X14892075Y-18939382D01*
X14849217Y-18939382D01*
X15120646Y-18939382D02*
X15092075Y-18925097D01*
X15077789Y-18896525D01*
X15077789Y-18639382D01*
X15349218Y-18925097D02*
X15320646Y-18939382D01*
X15263503Y-18939382D01*
X15234932Y-18925097D01*
X15220646Y-18896525D01*
X15220646Y-18782240D01*
X15234932Y-18753668D01*
X15263503Y-18739382D01*
X15320646Y-18739382D01*
X15349218Y-18753668D01*
X15363503Y-18782240D01*
X15363503Y-18810811D01*
X15220646Y-18839382D01*
X15477789Y-18925097D02*
X15506360Y-18939382D01*
X15563503Y-18939382D01*
X15592075Y-18925097D01*
X15606360Y-18896525D01*
X15606360Y-18882240D01*
X15592075Y-18853668D01*
X15563503Y-18839382D01*
X15520646Y-18839382D01*
X15492075Y-18825097D01*
X15477789Y-18796525D01*
X15477789Y-18782240D01*
X15492075Y-18753668D01*
X15520646Y-18739382D01*
X15563503Y-18739382D01*
X15592075Y-18753668D01*
X15706360Y-19053668D02*
X15720646Y-19039382D01*
X15749218Y-18996525D01*
X15763503Y-18967954D01*
X15777789Y-18925097D01*
X15792075Y-18853668D01*
X15792075Y-18796525D01*
X15777789Y-18725097D01*
X15763503Y-18682240D01*
X15749218Y-18653668D01*
X15720646Y-18610811D01*
X15706360Y-18596525D01*
X9072432Y-19091208D02*
X9072432Y-19416208D01*
X8909932Y-19253708D02*
X9234932Y-19253708D01*
D12*
D13*
X9477789Y-19089422D02*
X9663503Y-19089422D01*
X9563503Y-19203708D01*
X9606361Y-19203708D01*
X9634932Y-19217994D01*
X9649218Y-19232280D01*
X9663503Y-19260851D01*
X9663503Y-19332280D01*
X9649218Y-19360851D01*
X9634932Y-19375137D01*
X9606361Y-19389422D01*
X9520646Y-19389422D01*
X9492075Y-19375137D01*
X9477789Y-19360851D01*
X9792075Y-19360851D02*
X9806361Y-19375137D01*
X9792075Y-19389422D01*
X9777789Y-19375137D01*
X9792075Y-19360851D01*
X9792075Y-19389422D01*
X9920646Y-19117994D02*
X9934932Y-19103708D01*
X9963503Y-19089422D01*
X10034932Y-19089422D01*
X10063503Y-19103708D01*
X10077789Y-19117994D01*
X10092075Y-19146565D01*
X10092075Y-19175137D01*
X10077789Y-19217994D01*
X9906360Y-19389422D01*
X10092075Y-19389422D01*
X10363503Y-19089422D02*
X10220646Y-19089422D01*
X10206361Y-19232280D01*
X10220646Y-19217994D01*
X10249218Y-19203708D01*
X10320646Y-19203708D01*
X10349218Y-19217994D01*
X10363503Y-19232280D01*
X10377789Y-19260851D01*
X10377789Y-19332280D01*
X10363503Y-19360851D01*
X10349218Y-19375137D01*
X10320646Y-19389422D01*
X10249218Y-19389422D01*
X10220646Y-19375137D01*
X10206361Y-19360851D01*
X10506361Y-19389422D02*
X10506361Y-19189422D01*
X10506361Y-19217994D02*
X10520646Y-19203708D01*
X10549218Y-19189422D01*
X10592075Y-19189422D01*
X10620646Y-19203708D01*
X10634932Y-19232280D01*
X10634932Y-19389422D01*
X10634932Y-19232280D02*
X10649218Y-19203708D01*
X10677789Y-19189422D01*
X10720646Y-19189422D01*
X10749218Y-19203708D01*
X10763503Y-19232280D01*
X10763503Y-19389422D01*
X10906361Y-19389422D02*
X10906361Y-19189422D01*
X10906361Y-19217994D02*
X10920646Y-19203708D01*
X10949218Y-19189422D01*
X10992075Y-19189422D01*
X11020646Y-19203708D01*
X11034932Y-19232280D01*
X11034932Y-19389422D01*
X11034932Y-19232280D02*
X11049218Y-19203708D01*
X11077789Y-19189422D01*
X11120646Y-19189422D01*
X11149218Y-19203708D01*
X11163503Y-19232280D01*
X11163503Y-19389422D01*
X11749218Y-19075137D02*
X11492075Y-19460851D01*
X12134932Y-19089422D02*
X12163503Y-19089422D01*
X12192075Y-19103708D01*
X12206360Y-19117994D01*
X12220646Y-19146565D01*
X12234932Y-19203708D01*
X12234932Y-19275137D01*
X12220646Y-19332280D01*
X12206360Y-19360851D01*
X12192075Y-19375137D01*
X12163503Y-19389422D01*
X12134932Y-19389422D01*
X12106360Y-19375137D01*
X12092075Y-19360851D01*
X12077789Y-19332280D01*
X12063503Y-19275137D01*
X12063503Y-19203708D01*
X12077789Y-19146565D01*
X12092075Y-19117994D01*
X12106360Y-19103708D01*
X12134932Y-19089422D01*
X12363503Y-19360851D02*
X12377789Y-19375137D01*
X12363503Y-19389422D01*
X12349218Y-19375137D01*
X12363503Y-19360851D01*
X12363503Y-19389422D01*
X12663503Y-19389422D02*
X12492075Y-19389422D01*
X12577789Y-19389422D02*
X12577789Y-19089422D01*
X12549217Y-19132280D01*
X12520646Y-19160851D01*
X12492075Y-19175137D01*
X12777789Y-19117994D02*
X12792075Y-19103708D01*
X12820646Y-19089422D01*
X12892075Y-19089422D01*
X12920646Y-19103708D01*
X12934932Y-19117994D01*
X12949217Y-19146565D01*
X12949217Y-19175137D01*
X12934932Y-19217994D01*
X12763503Y-19389422D01*
X12949217Y-19389422D01*
X13120646Y-19217994D02*
X13092075Y-19203708D01*
X13077789Y-19189422D01*
X13063503Y-19160851D01*
X13063503Y-19146565D01*
X13077789Y-19117994D01*
X13092075Y-19103708D01*
X13120646Y-19089422D01*
X13177789Y-19089422D01*
X13206360Y-19103708D01*
X13220646Y-19117994D01*
X13234932Y-19146565D01*
X13234932Y-19160851D01*
X13220646Y-19189422D01*
X13206360Y-19203708D01*
X13177789Y-19217994D01*
X13120646Y-19217994D01*
X13092075Y-19232280D01*
X13077789Y-19246565D01*
X13063503Y-19275137D01*
X13063503Y-19332280D01*
X13077789Y-19360851D01*
X13092075Y-19375137D01*
X13120646Y-19389422D01*
X13177789Y-19389422D01*
X13206360Y-19375137D01*
X13220646Y-19360851D01*
X13234932Y-19332280D01*
X13234932Y-19275137D01*
X13220646Y-19246565D01*
X13206360Y-19232280D01*
X13177789Y-19217994D01*
X13349218Y-19089422D02*
X13349218Y-19146565D01*
X13463503Y-19089422D02*
X13463503Y-19146565D01*
X13906360Y-19503708D02*
X13892075Y-19489422D01*
X13863503Y-19446565D01*
X13849217Y-19417994D01*
X13834932Y-19375137D01*
X13820646Y-19303708D01*
X13820646Y-19246565D01*
X13834932Y-19175137D01*
X13849217Y-19132280D01*
X13863503Y-19103708D01*
X13892075Y-19060851D01*
X13906360Y-19046565D01*
X14006360Y-19117994D02*
X14020646Y-19103708D01*
X14049217Y-19089422D01*
X14120646Y-19089422D01*
X14149217Y-19103708D01*
X14163503Y-19117994D01*
X14177789Y-19146565D01*
X14177789Y-19175137D01*
X14163503Y-19217994D01*
X13992075Y-19389422D01*
X14177789Y-19389422D01*
X14534932Y-19389422D02*
X14534932Y-19089422D01*
X14663503Y-19389422D02*
X14663503Y-19232280D01*
X14649217Y-19203708D01*
X14620646Y-19189422D01*
X14577789Y-19189422D01*
X14549217Y-19203708D01*
X14534932Y-19217994D01*
X14849217Y-19389422D02*
X14820646Y-19375137D01*
X14806360Y-19360851D01*
X14792075Y-19332280D01*
X14792075Y-19246565D01*
X14806360Y-19217994D01*
X14820646Y-19203708D01*
X14849217Y-19189422D01*
X14892075Y-19189422D01*
X14920646Y-19203708D01*
X14934932Y-19217994D01*
X14949217Y-19246565D01*
X14949217Y-19332280D01*
X14934932Y-19360851D01*
X14920646Y-19375137D01*
X14892075Y-19389422D01*
X14849217Y-19389422D01*
X15120646Y-19389422D02*
X15092075Y-19375137D01*
X15077789Y-19346565D01*
X15077789Y-19089422D01*
X15349218Y-19375137D02*
X15320646Y-19389422D01*
X15263503Y-19389422D01*
X15234932Y-19375137D01*
X15220646Y-19346565D01*
X15220646Y-19232280D01*
X15234932Y-19203708D01*
X15263503Y-19189422D01*
X15320646Y-19189422D01*
X15349218Y-19203708D01*
X15363503Y-19232280D01*
X15363503Y-19260851D01*
X15220646Y-19289422D01*
X15477789Y-19375137D02*
X15506360Y-19389422D01*
X15563503Y-19389422D01*
X15592075Y-19375137D01*
X15606360Y-19346565D01*
X15606360Y-19332280D01*
X15592075Y-19303708D01*
X15563503Y-19289422D01*
X15520646Y-19289422D01*
X15492075Y-19275137D01*
X15477789Y-19246565D01*
X15477789Y-19232280D01*
X15492075Y-19203708D01*
X15520646Y-19189422D01*
X15563503Y-19189422D01*
X15592075Y-19203708D01*
X15706360Y-19503708D02*
X15720646Y-19489422D01*
X15749218Y-19446565D01*
X15763503Y-19417994D01*
X15777789Y-19375137D01*
X15792075Y-19303708D01*
X15792075Y-19246565D01*
X15777789Y-19175137D01*
X15763503Y-19132280D01*
X15749218Y-19103708D01*
X15720646Y-19060851D01*
X15706360Y-19046565D01*
D12*
D13*
X9477789Y-19544422D02*
X9663503Y-19544422D01*
X9563503Y-19658708D01*
X9606361Y-19658708D01*
X9634932Y-19672994D01*
X9649218Y-19687280D01*
X9663503Y-19715851D01*
X9663503Y-19787280D01*
X9649218Y-19815851D01*
X9634932Y-19830137D01*
X9606361Y-19844422D01*
X9520646Y-19844422D01*
X9492075Y-19830137D01*
X9477789Y-19815851D01*
X9792075Y-19815851D02*
X9806361Y-19830137D01*
X9792075Y-19844422D01*
X9777789Y-19830137D01*
X9792075Y-19815851D01*
X9792075Y-19844422D01*
X9977789Y-19672994D02*
X9949218Y-19658708D01*
X9934932Y-19644422D01*
X9920646Y-19615851D01*
X9920646Y-19601565D01*
X9934932Y-19572994D01*
X9949218Y-19558708D01*
X9977789Y-19544422D01*
X10034932Y-19544422D01*
X10063503Y-19558708D01*
X10077789Y-19572994D01*
X10092075Y-19601565D01*
X10092075Y-19615851D01*
X10077789Y-19644422D01*
X10063503Y-19658708D01*
X10034932Y-19672994D01*
X9977789Y-19672994D01*
X9949218Y-19687280D01*
X9934932Y-19701565D01*
X9920646Y-19730137D01*
X9920646Y-19787280D01*
X9934932Y-19815851D01*
X9949218Y-19830137D01*
X9977789Y-19844422D01*
X10034932Y-19844422D01*
X10063503Y-19830137D01*
X10077789Y-19815851D01*
X10092075Y-19787280D01*
X10092075Y-19730137D01*
X10077789Y-19701565D01*
X10063503Y-19687280D01*
X10034932Y-19672994D01*
X10277789Y-19544422D02*
X10306361Y-19544422D01*
X10334932Y-19558708D01*
X10349218Y-19572994D01*
X10363503Y-19601565D01*
X10377789Y-19658708D01*
X10377789Y-19730137D01*
X10363503Y-19787280D01*
X10349218Y-19815851D01*
X10334932Y-19830137D01*
X10306361Y-19844422D01*
X10277789Y-19844422D01*
X10249218Y-19830137D01*
X10234932Y-19815851D01*
X10220646Y-19787280D01*
X10206361Y-19730137D01*
X10206361Y-19658708D01*
X10220646Y-19601565D01*
X10234932Y-19572994D01*
X10249218Y-19558708D01*
X10277789Y-19544422D01*
X10506361Y-19844422D02*
X10506361Y-19644422D01*
X10506361Y-19672994D02*
X10520646Y-19658708D01*
X10549218Y-19644422D01*
X10592075Y-19644422D01*
X10620646Y-19658708D01*
X10634932Y-19687280D01*
X10634932Y-19844422D01*
X10634932Y-19687280D02*
X10649218Y-19658708D01*
X10677789Y-19644422D01*
X10720646Y-19644422D01*
X10749218Y-19658708D01*
X10763503Y-19687280D01*
X10763503Y-19844422D01*
X10906361Y-19844422D02*
X10906361Y-19644422D01*
X10906361Y-19672994D02*
X10920646Y-19658708D01*
X10949218Y-19644422D01*
X10992075Y-19644422D01*
X11020646Y-19658708D01*
X11034932Y-19687280D01*
X11034932Y-19844422D01*
X11034932Y-19687280D02*
X11049218Y-19658708D01*
X11077789Y-19644422D01*
X11120646Y-19644422D01*
X11149218Y-19658708D01*
X11163503Y-19687280D01*
X11163503Y-19844422D01*
X11749218Y-19530137D02*
X11492075Y-19915851D01*
X12134932Y-19544422D02*
X12163503Y-19544422D01*
X12192075Y-19558708D01*
X12206360Y-19572994D01*
X12220646Y-19601565D01*
X12234932Y-19658708D01*
X12234932Y-19730137D01*
X12220646Y-19787280D01*
X12206360Y-19815851D01*
X12192075Y-19830137D01*
X12163503Y-19844422D01*
X12134932Y-19844422D01*
X12106360Y-19830137D01*
X12092075Y-19815851D01*
X12077789Y-19787280D01*
X12063503Y-19730137D01*
X12063503Y-19658708D01*
X12077789Y-19601565D01*
X12092075Y-19572994D01*
X12106360Y-19558708D01*
X12134932Y-19544422D01*
X12363503Y-19815851D02*
X12377789Y-19830137D01*
X12363503Y-19844422D01*
X12349218Y-19830137D01*
X12363503Y-19815851D01*
X12363503Y-19844422D01*
X12663503Y-19844422D02*
X12492075Y-19844422D01*
X12577789Y-19844422D02*
X12577789Y-19544422D01*
X12549217Y-19587280D01*
X12520646Y-19615851D01*
X12492075Y-19630137D01*
X12934932Y-19544422D02*
X12792075Y-19544422D01*
X12777789Y-19687280D01*
X12792075Y-19672994D01*
X12820646Y-19658708D01*
X12892075Y-19658708D01*
X12920646Y-19672994D01*
X12934932Y-19687280D01*
X12949217Y-19715851D01*
X12949217Y-19787280D01*
X12934932Y-19815851D01*
X12920646Y-19830137D01*
X12892075Y-19844422D01*
X12820646Y-19844422D01*
X12792075Y-19830137D01*
X12777789Y-19815851D01*
X13134932Y-19544422D02*
X13163503Y-19544422D01*
X13192075Y-19558708D01*
X13206360Y-19572994D01*
X13220646Y-19601565D01*
X13234932Y-19658708D01*
X13234932Y-19730137D01*
X13220646Y-19787280D01*
X13206360Y-19815851D01*
X13192075Y-19830137D01*
X13163503Y-19844422D01*
X13134932Y-19844422D01*
X13106360Y-19830137D01*
X13092075Y-19815851D01*
X13077789Y-19787280D01*
X13063503Y-19730137D01*
X13063503Y-19658708D01*
X13077789Y-19601565D01*
X13092075Y-19572994D01*
X13106360Y-19558708D01*
X13134932Y-19544422D01*
X13349218Y-19544422D02*
X13349218Y-19601565D01*
X13463503Y-19544422D02*
X13463503Y-19601565D01*
X13906360Y-19958708D02*
X13892075Y-19944422D01*
X13863503Y-19901565D01*
X13849217Y-19872994D01*
X13834932Y-19830137D01*
X13820646Y-19758708D01*
X13820646Y-19701565D01*
X13834932Y-19630137D01*
X13849217Y-19587280D01*
X13863503Y-19558708D01*
X13892075Y-19515851D01*
X13906360Y-19501565D01*
X14149217Y-19644422D02*
X14149217Y-19844422D01*
X14077789Y-19530137D02*
X14006360Y-19744422D01*
X14192075Y-19744422D01*
X14534932Y-19844422D02*
X14534932Y-19544422D01*
X14663503Y-19844422D02*
X14663503Y-19687280D01*
X14649217Y-19658708D01*
X14620646Y-19644422D01*
X14577789Y-19644422D01*
X14549217Y-19658708D01*
X14534932Y-19672994D01*
X14849217Y-19844422D02*
X14820646Y-19830137D01*
X14806360Y-19815851D01*
X14792075Y-19787280D01*
X14792075Y-19701565D01*
X14806360Y-19672994D01*
X14820646Y-19658708D01*
X14849217Y-19644422D01*
X14892075Y-19644422D01*
X14920646Y-19658708D01*
X14934932Y-19672994D01*
X14949217Y-19701565D01*
X14949217Y-19787280D01*
X14934932Y-19815851D01*
X14920646Y-19830137D01*
X14892075Y-19844422D01*
X14849217Y-19844422D01*
X15120646Y-19844422D02*
X15092075Y-19830137D01*
X15077789Y-19801565D01*
X15077789Y-19544422D01*
X15349218Y-19830137D02*
X15320646Y-19844422D01*
X15263503Y-19844422D01*
X15234932Y-19830137D01*
X15220646Y-19801565D01*
X15220646Y-19687280D01*
X15234932Y-19658708D01*
X15263503Y-19644422D01*
X15320646Y-19644422D01*
X15349218Y-19658708D01*
X15363503Y-19687280D01*
X15363503Y-19715851D01*
X15220646Y-19744422D01*
X15477789Y-19830137D02*
X15506360Y-19844422D01*
X15563503Y-19844422D01*
X15592075Y-19830137D01*
X15606360Y-19801565D01*
X15606360Y-19787280D01*
X15592075Y-19758708D01*
X15563503Y-19744422D01*
X15520646Y-19744422D01*
X15492075Y-19730137D01*
X15477789Y-19701565D01*
X15477789Y-19687280D01*
X15492075Y-19658708D01*
X15520646Y-19644422D01*
X15563503Y-19644422D01*
X15592075Y-19658708D01*
X15706360Y-19958708D02*
X15720646Y-19944422D01*
X15749218Y-19901565D01*
X15763503Y-19872994D01*
X15777789Y-19830137D01*
X15792075Y-19758708D01*
X15792075Y-19701565D01*
X15777789Y-19630137D01*
X15763503Y-19587280D01*
X15749218Y-19558708D01*
X15720646Y-19515851D01*
X15706360Y-19501565D01*
M02*
